<svg width="663" height="243" viewBox="0 0 663 243" fill="none" xmlns="http://www.w3.org/2000/svg">
<path d="M26.56 11.92L16.84 30.72V40H10V30.72L0.28 11.92H8.04L13.48 23.68L18.88 11.92H26.56ZM40.2759 40.32C38.0893 40.32 36.1159 39.8533 34.3559 38.92C32.6226 37.9867 31.2493 36.6533 30.2359 34.92C29.2493 33.1867 28.7559 31.16 28.7559 28.84C28.7559 26.5467 29.2626 24.5333 30.2759 22.8C31.2893 21.04 32.6759 19.6933 34.4359 18.76C36.1959 17.8267 38.1693 17.36 40.3559 17.36C42.5426 17.36 44.5159 17.8267 46.2759 18.76C48.0359 19.6933 49.4226 21.04 50.4359 22.8C51.4493 24.5333 51.9559 26.5467 51.9559 28.84C51.9559 31.1333 51.4359 33.16 50.3959 34.92C49.3826 36.6533 47.9826 37.9867 46.1959 38.92C44.4359 39.8533 42.4626 40.32 40.2759 40.32ZM40.2759 34.4C41.5826 34.4 42.6893 33.92 43.5959 32.96C44.5293 32 44.9959 30.6267 44.9959 28.84C44.9959 27.0533 44.5426 25.68 43.6359 24.72C42.7559 23.76 41.6626 23.28 40.3559 23.28C39.0226 23.28 37.9159 23.76 37.0359 24.72C36.1559 25.6533 35.7159 27.0267 35.7159 28.84C35.7159 30.6267 36.1426 32 36.9959 32.96C37.8759 33.92 38.9693 34.4 40.2759 34.4ZM78.4247 17.68V40H71.5847V36.96C70.8914 37.9467 69.9447 38.7467 68.7447 39.36C67.5714 39.9467 66.2647 40.24 64.8247 40.24C63.118 40.24 61.6114 39.8667 60.3047 39.12C58.998 38.3467 57.9847 37.24 57.2647 35.8C56.5447 34.36 56.1847 32.6667 56.1847 30.72V17.68H62.9847V29.8C62.9847 31.2933 63.3714 32.4533 64.1447 33.28C64.918 34.1067 65.958 34.52 67.2647 34.52C68.598 34.52 69.6514 34.1067 70.4247 33.28C71.198 32.4533 71.5847 31.2933 71.5847 29.8V17.68H78.4247ZM90.9778 21.4C91.7778 20.1733 92.7778 19.2133 93.9778 18.52C95.1778 17.8 96.5111 17.44 97.9778 17.44V24.68H96.0978C94.3911 24.68 93.1111 25.0533 92.2578 25.8C91.4045 26.52 90.9778 27.8 90.9778 29.64V40H84.1378V17.68H90.9778V21.4ZM135.644 11.92V40H128.804V28.44H118.164V40H111.324V11.92H118.164V22.92H128.804V11.92H135.644ZM162.422 28.48C162.422 29.12 162.382 29.7867 162.302 30.48H146.822C146.928 31.8667 147.368 32.9333 148.142 33.68C148.942 34.4 149.915 34.76 151.062 34.76C152.768 34.76 153.955 34.04 154.622 32.6H161.902C161.528 34.0667 160.848 35.3867 159.862 36.56C158.902 37.7333 157.688 38.6533 156.222 39.32C154.755 39.9867 153.115 40.32 151.302 40.32C149.115 40.32 147.168 39.8533 145.462 38.92C143.755 37.9867 142.422 36.6533 141.462 34.92C140.502 33.1867 140.022 31.16 140.022 28.84C140.022 26.52 140.488 24.4933 141.422 22.76C142.382 21.0267 143.715 19.6933 145.422 18.76C147.128 17.8267 149.088 17.36 151.302 17.36C153.462 17.36 155.382 17.8133 157.062 18.72C158.742 19.6267 160.048 20.92 160.982 22.6C161.942 24.28 162.422 26.24 162.422 28.48ZM155.422 26.68C155.422 25.5067 155.022 24.5733 154.222 23.88C153.422 23.1867 152.422 22.84 151.222 22.84C150.075 22.84 149.102 23.1733 148.302 23.84C147.528 24.5067 147.048 25.4533 146.862 26.68H155.422ZM165.47 28.8C165.47 26.5067 165.897 24.4933 166.75 22.76C167.63 21.0267 168.817 19.6933 170.31 18.76C171.803 17.8267 173.47 17.36 175.31 17.36C176.883 17.36 178.257 17.68 179.43 18.32C180.63 18.96 181.55 19.8 182.19 20.84V17.68H189.03V40H182.19V36.84C181.523 37.88 180.59 38.72 179.39 39.36C178.217 40 176.843 40.32 175.27 40.32C173.457 40.32 171.803 39.8533 170.31 38.92C168.817 37.96 167.63 36.6133 166.75 34.88C165.897 33.12 165.47 31.0933 165.47 28.8ZM182.19 28.84C182.19 27.1333 181.71 25.7867 180.75 24.8C179.817 23.8133 178.67 23.32 177.31 23.32C175.95 23.32 174.79 23.8133 173.83 24.8C172.897 25.76 172.43 27.0933 172.43 28.8C172.43 30.5067 172.897 31.8667 173.83 32.88C174.79 33.8667 175.95 34.36 177.31 34.36C178.67 34.36 179.817 33.8667 180.75 32.88C181.71 31.8933 182.19 30.5467 182.19 28.84ZM201.618 10.4V40H194.778V10.4H201.618ZM219.815 34.2V40H216.335C213.855 40 211.922 39.4 210.535 38.2C209.149 36.9733 208.455 34.9867 208.455 32.24V23.36H205.735V17.68H208.455V12.24H215.295V17.68H219.775V23.36H215.295V32.32C215.295 32.9867 215.455 33.4667 215.775 33.76C216.095 34.0533 216.629 34.2 217.375 34.2H219.815ZM238.145 17.44C240.705 17.44 242.759 18.2933 244.305 20C245.852 21.68 246.625 24 246.625 26.96V40H239.825V27.88C239.825 26.3867 239.439 25.2267 238.665 24.4C237.892 23.5733 236.852 23.16 235.545 23.16C234.239 23.16 233.199 23.5733 232.425 24.4C231.652 25.2267 231.265 26.3867 231.265 27.88V40H224.425V10.4H231.265V20.68C231.959 19.6933 232.905 18.9067 234.105 18.32C235.305 17.7333 236.652 17.44 238.145 17.44ZM259.538 33.68L255.098 45.16H250.738L253.058 33.68H259.538Z" fill="#151718"/>
<path d="M287.019 40.28C284.379 40.28 281.953 39.6667 279.739 38.44C277.553 37.2133 275.806 35.5067 274.499 33.32C273.219 31.1067 272.579 28.6267 272.579 25.88C272.579 23.1333 273.219 20.6667 274.499 18.48C275.806 16.2933 277.553 14.5867 279.739 13.36C281.953 12.1333 284.379 11.52 287.019 11.52C289.659 11.52 292.073 12.1333 294.259 13.36C296.473 14.5867 298.206 16.2933 299.459 18.48C300.739 20.6667 301.379 23.1333 301.379 25.88C301.379 28.6267 300.739 31.1067 299.459 33.32C298.179 35.5067 296.446 37.2133 294.259 38.44C292.073 39.6667 289.659 40.28 287.019 40.28ZM287.019 34.04C289.259 34.04 291.046 33.2933 292.379 31.8C293.739 30.3067 294.419 28.3333 294.419 25.88C294.419 23.4 293.739 21.4267 292.379 19.96C291.046 18.4667 289.259 17.72 287.019 17.72C284.753 17.72 282.939 18.4533 281.579 19.92C280.246 21.3867 279.579 23.3733 279.579 25.88C279.579 28.36 280.246 30.3467 281.579 31.84C282.939 33.3067 284.753 34.04 287.019 34.04ZM328.025 17.68V40H321.185V36.96C320.491 37.9467 319.545 38.7467 318.345 39.36C317.171 39.9467 315.865 40.24 314.425 40.24C312.718 40.24 311.211 39.8667 309.905 39.12C308.598 38.3467 307.585 37.24 306.865 35.8C306.145 34.36 305.785 32.6667 305.785 30.72V17.68H312.585V29.8C312.585 31.2933 312.971 32.4533 313.745 33.28C314.518 34.1067 315.558 34.52 316.865 34.52C318.198 34.52 319.251 34.1067 320.025 33.28C320.798 32.4533 321.185 31.2933 321.185 29.8V17.68H328.025ZM340.578 21.4C341.378 20.1733 342.378 19.2133 343.578 18.52C344.778 17.8 346.111 17.44 347.578 17.44V24.68H345.698C343.991 24.68 342.711 25.0533 341.858 25.8C341.004 26.52 340.578 27.8 340.578 29.64V40H333.738V17.68H340.578V21.4ZM392.724 11.92V40H385.884V23.16L379.604 40H374.084L367.764 23.12V40H360.924V11.92H369.004L376.884 31.36L384.684 11.92H392.724ZM401.882 15.36C400.682 15.36 399.696 15.0133 398.922 14.32C398.176 13.6 397.802 12.72 397.802 11.68C397.802 10.6133 398.176 9.73333 398.922 9.04C399.696 8.32 400.682 7.96 401.882 7.96C403.056 7.96 404.016 8.32 404.762 9.04C405.536 9.73333 405.922 10.6133 405.922 11.68C405.922 12.72 405.536 13.6 404.762 14.32C404.016 15.0133 403.056 15.36 401.882 15.36ZM405.282 17.68V40H398.442V17.68H405.282ZM420.119 40.32C418.173 40.32 416.439 39.9867 414.919 39.32C413.399 38.6533 412.199 37.7467 411.319 36.6C410.439 35.4267 409.946 34.12 409.839 32.68H416.599C416.679 33.4533 417.039 34.08 417.679 34.56C418.319 35.04 419.106 35.28 420.039 35.28C420.893 35.28 421.546 35.12 421.999 34.8C422.479 34.4533 422.719 34.0133 422.719 33.48C422.719 32.84 422.386 32.3733 421.719 32.08C421.053 31.76 419.973 31.4133 418.479 31.04C416.879 30.6667 415.546 30.28 414.479 29.88C413.413 29.4533 412.493 28.8 411.719 27.92C410.946 27.0133 410.559 25.8 410.559 24.28C410.559 23 410.906 21.84 411.599 20.8C412.319 19.7333 413.359 18.8933 414.719 18.28C416.106 17.6667 417.746 17.36 419.639 17.36C422.439 17.36 424.639 18.0533 426.239 19.44C427.866 20.8267 428.799 22.6667 429.039 24.96H422.719C422.613 24.1867 422.266 23.5733 421.679 23.12C421.119 22.6667 420.373 22.44 419.439 22.44C418.639 22.44 418.026 22.6 417.599 22.92C417.173 23.2133 416.959 23.6267 416.959 24.16C416.959 24.8 417.293 25.28 417.959 25.6C418.653 25.92 419.719 26.24 421.159 26.56C422.813 26.9867 424.159 27.4133 425.199 27.84C426.239 28.24 427.146 28.9067 427.919 29.84C428.719 30.7467 429.133 31.9733 429.159 33.52C429.159 34.8267 428.786 36 428.039 37.04C427.319 38.0533 426.266 38.8533 424.879 39.44C423.519 40.0267 421.933 40.32 420.119 40.32ZM443.224 40.32C441.277 40.32 439.544 39.9867 438.024 39.32C436.504 38.6533 435.304 37.7467 434.424 36.6C433.544 35.4267 433.051 34.12 432.944 32.68H439.704C439.784 33.4533 440.144 34.08 440.784 34.56C441.424 35.04 442.211 35.28 443.144 35.28C443.997 35.28 444.651 35.12 445.104 34.8C445.584 34.4533 445.824 34.0133 445.824 33.48C445.824 32.84 445.491 32.3733 444.824 32.08C444.157 31.76 443.077 31.4133 441.584 31.04C439.984 30.6667 438.651 30.28 437.584 29.88C436.517 29.4533 435.597 28.8 434.824 27.92C434.051 27.0133 433.664 25.8 433.664 24.28C433.664 23 434.011 21.84 434.704 20.8C435.424 19.7333 436.464 18.8933 437.824 18.28C439.211 17.6667 440.851 17.36 442.744 17.36C445.544 17.36 447.744 18.0533 449.344 19.44C450.971 20.8267 451.904 22.6667 452.144 24.96H445.824C445.717 24.1867 445.371 23.5733 444.784 23.12C444.224 22.6667 443.477 22.44 442.544 22.44C441.744 22.44 441.131 22.6 440.704 22.92C440.277 23.2133 440.064 23.6267 440.064 24.16C440.064 24.8 440.397 25.28 441.064 25.6C441.757 25.92 442.824 26.24 444.264 26.56C445.917 26.9867 447.264 27.4133 448.304 27.84C449.344 28.24 450.251 28.9067 451.024 29.84C451.824 30.7467 452.237 31.9733 452.264 33.52C452.264 34.8267 451.891 36 451.144 37.04C450.424 38.0533 449.371 38.8533 447.984 39.44C446.624 40.0267 445.037 40.32 443.224 40.32ZM460.689 15.36C459.489 15.36 458.502 15.0133 457.729 14.32C456.982 13.6 456.609 12.72 456.609 11.68C456.609 10.6133 456.982 9.73333 457.729 9.04C458.502 8.32 459.489 7.96 460.689 7.96C461.862 7.96 462.822 8.32 463.569 9.04C464.342 9.73333 464.729 10.6133 464.729 11.68C464.729 12.72 464.342 13.6 463.569 14.32C462.822 15.0133 461.862 15.36 460.689 15.36ZM464.089 17.68V40H457.249V17.68H464.089ZM480.006 40.32C477.819 40.32 475.846 39.8533 474.086 38.92C472.352 37.9867 470.979 36.6533 469.966 34.92C468.979 33.1867 468.486 31.16 468.486 28.84C468.486 26.5467 468.992 24.5333 470.006 22.8C471.019 21.04 472.406 19.6933 474.166 18.76C475.926 17.8267 477.899 17.36 480.086 17.36C482.272 17.36 484.246 17.8267 486.006 18.76C487.766 19.6933 489.152 21.04 490.166 22.8C491.179 24.5333 491.686 26.5467 491.686 28.84C491.686 31.1333 491.166 33.16 490.126 34.92C489.112 36.6533 487.712 37.9867 485.926 38.92C484.166 39.8533 482.192 40.32 480.006 40.32ZM480.006 34.4C481.312 34.4 482.419 33.92 483.326 32.96C484.259 32 484.726 30.6267 484.726 28.84C484.726 27.0533 484.272 25.68 483.366 24.72C482.486 23.76 481.392 23.28 480.086 23.28C478.752 23.28 477.646 23.76 476.766 24.72C475.886 25.6533 475.446 27.0267 475.446 28.84C475.446 30.6267 475.872 32 476.726 32.96C477.606 33.92 478.699 34.4 480.006 34.4ZM509.714 17.44C512.328 17.44 514.408 18.2933 515.954 20C517.528 21.68 518.314 24 518.314 26.96V40H511.514V27.88C511.514 26.3867 511.128 25.2267 510.354 24.4C509.581 23.5733 508.541 23.16 507.234 23.16C505.928 23.16 504.888 23.5733 504.114 24.4C503.341 25.2267 502.954 26.3867 502.954 27.88V40H496.114V17.68H502.954V20.64C503.648 19.6533 504.581 18.88 505.754 18.32C506.928 17.7333 508.248 17.44 509.714 17.44ZM214.165 88.288C214.165 84.4053 215.005 80.952 216.685 77.928C218.365 74.8667 220.698 72.496 223.685 70.816C226.709 69.0987 230.125 68.24 233.933 68.24C238.599 68.24 242.594 69.472 245.917 71.936C249.239 74.4 251.461 77.76 252.581 82.016H242.053C241.269 80.3733 240.149 79.1227 238.693 78.264C237.274 77.4053 235.65 76.976 233.821 76.976C230.871 76.976 228.482 78.0027 226.653 80.056C224.823 82.1093 223.909 84.8533 223.909 88.288C223.909 91.7227 224.823 94.4667 226.653 96.52C228.482 98.5733 230.871 99.6 233.821 99.6C235.65 99.6 237.274 99.1707 238.693 98.312C240.149 97.4533 241.269 96.2027 242.053 94.56H252.581C251.461 98.816 249.239 102.176 245.917 104.64C242.594 107.067 238.599 108.28 233.933 108.28C230.125 108.28 226.709 107.44 223.685 105.76C220.698 104.043 218.365 101.672 216.685 98.648C215.005 95.624 214.165 92.1707 214.165 88.288ZM273.789 108.448C270.727 108.448 267.965 107.795 265.501 106.488C263.074 105.181 261.151 103.315 259.733 100.888C258.351 98.4613 257.661 95.624 257.661 92.376C257.661 89.1653 258.37 86.3467 259.789 83.92C261.207 81.456 263.149 79.5707 265.613 78.264C268.077 76.9573 270.839 76.304 273.901 76.304C276.962 76.304 279.725 76.9573 282.189 78.264C284.653 79.5707 286.594 81.456 288.013 83.92C289.431 86.3467 290.141 89.1653 290.141 92.376C290.141 95.5867 289.413 98.424 287.957 100.888C286.538 103.315 284.578 105.181 282.077 106.488C279.613 107.795 276.85 108.448 273.789 108.448ZM273.789 100.16C275.618 100.16 277.167 99.488 278.437 98.144C279.743 96.8 280.397 94.8773 280.397 92.376C280.397 89.8747 279.762 87.952 278.493 86.608C277.261 85.264 275.73 84.592 273.901 84.592C272.034 84.592 270.485 85.264 269.253 86.608C268.021 87.9147 267.405 89.8373 267.405 92.376C267.405 94.8773 268.002 96.8 269.197 98.144C270.429 99.488 271.959 100.16 273.789 100.16ZM315.381 76.416C319.04 76.416 321.952 77.6107 324.117 80C326.32 82.352 327.421 85.6 327.421 89.744V108H317.901V91.032C317.901 88.9413 317.36 87.3173 316.277 86.16C315.194 85.0027 313.738 84.424 311.909 84.424C310.08 84.424 308.624 85.0027 307.541 86.16C306.458 87.3173 305.917 88.9413 305.917 91.032V108H296.341V76.752H305.917V80.896C306.888 79.5147 308.194 78.432 309.837 77.648C311.48 76.8267 313.328 76.416 315.381 76.416ZM347.907 108.448C345.182 108.448 342.755 107.981 340.627 107.048C338.499 106.115 336.819 104.845 335.587 103.24C334.355 101.597 333.665 99.768 333.515 97.752H342.979C343.091 98.8347 343.595 99.712 344.491 100.384C345.387 101.056 346.489 101.392 347.795 101.392C348.99 101.392 349.905 101.168 350.539 100.72C351.211 100.235 351.547 99.6187 351.547 98.872C351.547 97.976 351.081 97.3227 350.147 96.912C349.214 96.464 347.702 95.9787 345.611 95.456C343.371 94.9333 341.505 94.392 340.011 93.832C338.518 93.2347 337.23 92.32 336.147 91.088C335.065 89.8187 334.523 88.12 334.523 85.992C334.523 84.2 335.009 82.576 335.979 81.12C336.987 79.6267 338.443 78.4507 340.347 77.592C342.289 76.7333 344.585 76.304 347.235 76.304C351.155 76.304 354.235 77.2747 356.475 79.216C358.753 81.1573 360.059 83.7333 360.395 86.944H351.547C351.398 85.8613 350.913 85.0027 350.091 84.368C349.307 83.7333 348.262 83.416 346.955 83.416C345.835 83.416 344.977 83.64 344.379 84.088C343.782 84.4987 343.483 85.0773 343.483 85.824C343.483 86.72 343.95 87.392 344.883 87.84C345.854 88.288 347.347 88.736 349.363 89.184C351.678 89.7813 353.563 90.3787 355.019 90.976C356.475 91.536 357.745 92.4693 358.827 93.776C359.947 95.0453 360.526 96.7627 360.563 98.928C360.563 100.757 360.041 102.4 358.995 103.856C357.987 105.275 356.513 106.395 354.571 107.216C352.667 108.037 350.446 108.448 347.907 108.448ZM398.398 76.752V108H388.822V103.744C387.851 105.125 386.526 106.245 384.846 107.104C383.203 107.925 381.374 108.336 379.358 108.336C376.969 108.336 374.859 107.813 373.03 106.768C371.201 105.685 369.782 104.136 368.774 102.12C367.766 100.104 367.262 97.7333 367.262 95.008V76.752H376.782V93.72C376.782 95.8107 377.323 97.4347 378.406 98.592C379.489 99.7493 380.945 100.328 382.774 100.328C384.641 100.328 386.115 99.7493 387.198 98.592C388.281 97.4347 388.822 95.8107 388.822 93.72V76.752H398.398ZM415.972 66.56V108H406.396V66.56H415.972ZM441.448 99.88V108H436.576C433.104 108 430.397 107.16 428.456 105.48C426.515 103.763 425.544 100.981 425.544 97.136V84.704H421.736V76.752H425.544V69.136H435.12V76.752H441.392V84.704H435.12V97.248C435.12 98.1813 435.344 98.8533 435.792 99.264C436.24 99.6747 436.987 99.88 438.032 99.88H441.448ZM445.998 92.32C445.998 89.1093 446.595 86.2907 447.79 83.864C449.022 81.4373 450.683 79.5707 452.774 78.264C454.865 76.9573 457.198 76.304 459.774 76.304C461.977 76.304 463.899 76.752 465.542 77.648C467.222 78.544 468.51 79.72 469.406 81.176V76.752H478.982V108H469.406V103.576C468.473 105.032 467.166 106.208 465.486 107.104C463.843 108 461.921 108.448 459.718 108.448C457.179 108.448 454.865 107.795 452.774 106.488C450.683 105.144 449.022 103.259 447.79 100.832C446.595 98.368 445.998 95.5307 445.998 92.32ZM469.406 92.376C469.406 89.9867 468.734 88.1013 467.39 86.72C466.083 85.3387 464.478 84.648 462.574 84.648C460.67 84.648 459.046 85.3387 457.702 86.72C456.395 88.064 455.742 89.9307 455.742 92.32C455.742 94.7093 456.395 96.6133 457.702 98.032C459.046 99.4133 460.67 100.104 462.574 100.104C464.478 100.104 466.083 99.4133 467.39 98.032C468.734 96.6507 469.406 94.7653 469.406 92.376ZM504.446 99.88V108H499.574C496.102 108 493.395 107.16 491.454 105.48C489.512 103.763 488.542 100.981 488.542 97.136V84.704H484.734V76.752H488.542V69.136H498.118V76.752H504.39V84.704H498.118V97.248C498.118 98.1813 498.342 98.8533 498.79 99.264C499.238 99.6747 499.984 99.88 501.03 99.88H504.446ZM515.716 73.504C514.036 73.504 512.654 73.0187 511.572 72.048C510.526 71.04 510.004 69.808 510.004 68.352C510.004 66.8587 510.526 65.6267 511.572 64.656C512.654 63.648 514.036 63.144 515.716 63.144C517.358 63.144 518.702 63.648 519.748 64.656C520.83 65.6267 521.372 66.8587 521.372 68.352C521.372 69.808 520.83 71.04 519.748 72.048C518.702 73.0187 517.358 73.504 515.716 73.504ZM520.476 76.752V108H510.9V76.752H520.476ZM542.759 108.448C539.698 108.448 536.935 107.795 534.471 106.488C532.045 105.181 530.122 103.315 528.703 100.888C527.322 98.4613 526.631 95.624 526.631 92.376C526.631 89.1653 527.341 86.3467 528.759 83.92C530.178 81.456 532.119 79.5707 534.583 78.264C537.047 76.9573 539.81 76.304 542.871 76.304C545.933 76.304 548.695 76.9573 551.159 78.264C553.623 79.5707 555.565 81.456 556.983 83.92C558.402 86.3467 559.111 89.1653 559.111 92.376C559.111 95.5867 558.383 98.424 556.927 100.888C555.509 103.315 553.549 105.181 551.047 106.488C548.583 107.795 545.821 108.448 542.759 108.448ZM542.759 100.16C544.589 100.16 546.138 99.488 547.407 98.144C548.714 96.8 549.367 94.8773 549.367 92.376C549.367 89.8747 548.733 87.952 547.463 86.608C546.231 85.264 544.701 84.592 542.871 84.592C541.005 84.592 539.455 85.264 538.223 86.608C536.991 87.9147 536.375 89.8373 536.375 92.376C536.375 94.8773 536.973 96.8 538.167 98.144C539.399 99.488 540.93 100.16 542.759 100.16ZM584.352 76.416C588.01 76.416 590.922 77.6107 593.088 80C595.29 82.352 596.392 85.6 596.392 89.744V108H586.872V91.032C586.872 88.9413 586.33 87.3173 585.248 86.16C584.165 85.0027 582.709 84.424 580.88 84.424C579.05 84.424 577.594 85.0027 576.512 86.16C575.429 87.3173 574.888 88.9413 574.888 91.032V108H565.312V76.752H574.888V80.896C575.858 79.5147 577.165 78.432 578.808 77.648C580.45 76.8267 582.298 76.416 584.352 76.416Z" fill="#2AA7FF"/>
<path d="M18.2 68.688C22.344 68.688 25.9653 69.5093 29.064 71.152C32.1627 72.7947 34.552 75.1093 36.232 78.096C37.9493 81.0453 38.808 84.4613 38.808 88.344C38.808 92.1893 37.9493 95.6053 36.232 98.592C34.552 101.579 32.144 103.893 29.008 105.536C25.9093 107.179 22.3067 108 18.2 108H3.472V68.688H18.2ZM17.584 99.712C21.2053 99.712 24.024 98.7227 26.04 96.744C28.056 94.7653 29.064 91.9653 29.064 88.344C29.064 84.7227 28.056 81.904 26.04 79.888C24.024 77.872 21.2053 76.864 17.584 76.864H13.048V99.712H17.584ZM59.5035 108.448C56.4422 108.448 53.6795 107.795 51.2155 106.488C48.7888 105.181 46.8662 103.315 45.4475 100.888C44.0662 98.4613 43.3755 95.624 43.3755 92.376C43.3755 89.1653 44.0848 86.3467 45.5035 83.92C46.9222 81.456 48.8635 79.5707 51.3275 78.264C53.7915 76.9573 56.5542 76.304 59.6155 76.304C62.6768 76.304 65.4395 76.9573 67.9035 78.264C70.3675 79.5707 72.3088 81.456 73.7275 83.92C75.1462 86.3467 75.8555 89.1653 75.8555 92.376C75.8555 95.5867 75.1275 98.424 73.6715 100.888C72.2528 103.315 70.2928 105.181 67.7915 106.488C65.3275 107.795 62.5648 108.448 59.5035 108.448ZM59.5035 100.16C61.3328 100.16 62.8822 99.488 64.1515 98.144C65.4582 96.8 66.1115 94.8773 66.1115 92.376C66.1115 89.8747 65.4768 87.952 64.2075 86.608C62.9755 85.264 61.4448 84.592 59.6155 84.592C57.7488 84.592 56.1995 85.264 54.9675 86.608C53.7355 87.9147 53.1195 89.8373 53.1195 92.376C53.1195 94.8773 53.7168 96.8 54.9115 98.144C56.1435 99.488 57.6742 100.16 59.5035 100.16ZM80.1517 92.376C80.1517 89.128 80.8051 86.2907 82.1117 83.864C83.4557 81.4373 85.3037 79.5707 87.6557 78.264C90.0451 76.9573 92.7704 76.304 95.8317 76.304C99.7517 76.304 103.018 77.3307 105.632 79.384C108.282 81.4373 110.018 84.3307 110.84 88.064H100.648C99.7891 85.6747 98.1277 84.48 95.6637 84.48C93.9091 84.48 92.5091 85.1707 91.4637 86.552C90.4184 87.896 89.8957 89.8373 89.8957 92.376C89.8957 94.9147 90.4184 96.8747 91.4637 98.256C92.5091 99.6 93.9091 100.272 95.6637 100.272C98.1277 100.272 99.7891 99.0773 100.648 96.688H110.84C110.018 100.347 108.282 103.221 105.632 105.312C102.981 107.403 99.7144 108.448 95.8317 108.448C92.7704 108.448 90.0451 107.795 87.6557 106.488C85.3037 105.181 83.4557 103.315 82.1117 100.888C80.8051 98.4613 80.1517 95.624 80.1517 92.376ZM134.498 99.88V108H129.626C126.154 108 123.447 107.16 121.506 105.48C119.565 103.763 118.594 100.981 118.594 97.136V84.704H114.786V76.752H118.594V69.136H128.17V76.752H134.442V84.704H128.17V97.248C128.17 98.1813 128.394 98.8533 128.842 99.264C129.29 99.6747 130.037 99.88 131.082 99.88H134.498ZM155.176 108.448C152.115 108.448 149.352 107.795 146.888 106.488C144.461 105.181 142.539 103.315 141.12 100.888C139.739 98.4613 139.048 95.624 139.048 92.376C139.048 89.1653 139.757 86.3467 141.176 83.92C142.595 81.456 144.536 79.5707 147 78.264C149.464 76.9573 152.227 76.304 155.288 76.304C158.349 76.304 161.112 76.9573 163.576 78.264C166.04 79.5707 167.981 81.456 169.4 83.92C170.819 86.3467 171.528 89.1653 171.528 92.376C171.528 95.5867 170.8 98.424 169.344 100.888C167.925 103.315 165.965 105.181 163.464 106.488C161 107.795 158.237 108.448 155.176 108.448ZM155.176 100.16C157.005 100.16 158.555 99.488 159.824 98.144C161.131 96.8 161.784 94.8773 161.784 92.376C161.784 89.8747 161.149 87.952 159.88 86.608C158.648 85.264 157.117 84.592 155.288 84.592C153.421 84.592 151.872 85.264 150.64 86.608C149.408 87.9147 148.792 89.8373 148.792 92.376C148.792 94.8773 149.389 96.8 150.584 98.144C151.816 99.488 153.347 100.16 155.176 100.16ZM187.304 81.96C188.424 80.2427 189.824 78.8987 191.504 77.928C193.184 76.92 195.051 76.416 197.104 76.416V86.552H194.472C192.083 86.552 190.291 87.0747 189.096 88.12C187.902 89.128 187.304 90.92 187.304 93.496V108H177.728V76.752H187.304V81.96Z" fill="black"/>
<path d="M16.736 177.492H9.44L8.096 181.212H5.792L11.84 164.58H14.36L20.384 181.212H18.08L16.736 177.492ZM16.112 175.716L13.088 167.268L10.064 175.716H16.112ZM22.6839 174.588C22.6839 173.244 22.9559 172.068 23.4999 171.06C24.0439 170.036 24.7879 169.244 25.7319 168.684C26.6919 168.124 27.7639 167.844 28.9479 167.844C29.9719 167.844 30.9239 168.084 31.8039 168.564C32.6839 169.028 33.3559 169.644 33.8199 170.412V163.452H36.0279V181.212H33.8199V178.74C33.3879 179.524 32.7479 180.172 31.8999 180.684C31.0519 181.18 30.0599 181.428 28.9239 181.428C27.7559 181.428 26.6919 181.14 25.7319 180.564C24.7879 179.988 24.0439 179.18 23.4999 178.14C22.9559 177.1 22.6839 175.916 22.6839 174.588ZM33.8199 174.612C33.8199 173.62 33.6199 172.756 33.2199 172.02C32.8199 171.284 32.2759 170.724 31.5879 170.34C30.9159 169.94 30.1719 169.74 29.3559 169.74C28.5399 169.74 27.7959 169.932 27.1239 170.316C26.4519 170.7 25.9159 171.26 25.5159 171.996C25.1159 172.732 24.9159 173.596 24.9159 174.588C24.9159 175.596 25.1159 176.476 25.5159 177.228C25.9159 177.964 26.4519 178.532 27.1239 178.932C27.7959 179.316 28.5399 179.508 29.3559 179.508C30.1719 179.508 30.9159 179.316 31.5879 178.932C32.2759 178.532 32.8199 177.964 33.2199 177.228C33.6199 176.476 33.8199 175.604 33.8199 174.612ZM39.3826 174.588C39.3826 173.244 39.6546 172.068 40.1986 171.06C40.7426 170.036 41.4866 169.244 42.4306 168.684C43.3906 168.124 44.4626 167.844 45.6466 167.844C46.6706 167.844 47.6226 168.084 48.5026 168.564C49.3826 169.028 50.0546 169.644 50.5186 170.412V163.452H52.7266V181.212H50.5186V178.74C50.0866 179.524 49.4466 180.172 48.5986 180.684C47.7506 181.18 46.7586 181.428 45.6226 181.428C44.4546 181.428 43.3906 181.14 42.4306 180.564C41.4866 179.988 40.7426 179.18 40.1986 178.14C39.6546 177.1 39.3826 175.916 39.3826 174.588ZM50.5186 174.612C50.5186 173.62 50.3186 172.756 49.9186 172.02C49.5186 171.284 48.9746 170.724 48.2866 170.34C47.6146 169.94 46.8706 169.74 46.0546 169.74C45.2386 169.74 44.4946 169.932 43.8226 170.316C43.1506 170.7 42.6146 171.26 42.2146 171.996C41.8146 172.732 41.6146 173.596 41.6146 174.588C41.6146 175.596 41.8146 176.476 42.2146 177.228C42.6146 177.964 43.1506 178.532 43.8226 178.932C44.4946 179.316 45.2386 179.508 46.0546 179.508C46.8706 179.508 47.6146 179.316 48.2866 178.932C48.9746 178.532 49.5186 177.964 49.9186 177.228C50.3186 176.476 50.5186 175.604 50.5186 174.612ZM59.0814 170.196C59.4654 169.444 60.0094 168.86 60.7134 168.444C61.4334 168.028 62.3054 167.82 63.3294 167.82V170.076H62.7534C60.3054 170.076 59.0814 171.404 59.0814 174.06V181.212H56.8974V168.06H59.0814V170.196ZM78.3305 174.132C78.3305 174.548 78.3065 174.988 78.2585 175.452H67.7465C67.8265 176.748 68.2665 177.764 69.0665 178.5C69.8825 179.22 70.8665 179.58 72.0185 179.58C72.9625 179.58 73.7465 179.364 74.3705 178.932C75.0105 178.484 75.4585 177.892 75.7145 177.156H78.0665C77.7145 178.42 77.0105 179.452 75.9545 180.252C74.8985 181.036 73.5865 181.428 72.0185 181.428C70.7705 181.428 69.6505 181.148 68.6585 180.588C67.6825 180.028 66.9145 179.236 66.3545 178.212C65.7945 177.172 65.5145 175.972 65.5145 174.612C65.5145 173.252 65.7865 172.06 66.3305 171.036C66.8745 170.012 67.6345 169.228 68.6105 168.684C69.6025 168.124 70.7385 167.844 72.0185 167.844C73.2665 167.844 74.3705 168.116 75.3305 168.66C76.2905 169.204 77.0265 169.956 77.5385 170.916C78.0665 171.86 78.3305 172.932 78.3305 174.132ZM76.0745 173.676C76.0745 172.844 75.8905 172.132 75.5225 171.54C75.1545 170.932 74.6505 170.476 74.0105 170.172C73.3865 169.852 72.6905 169.692 71.9225 169.692C70.8185 169.692 69.8745 170.044 69.0905 170.748C68.3225 171.452 67.8825 172.428 67.7705 173.676H76.0745ZM86.3493 181.428C85.3413 181.428 84.4373 181.26 83.6373 180.924C82.8373 180.572 82.2053 180.092 81.7413 179.484C81.2773 178.86 81.0213 178.148 80.9733 177.348H83.2293C83.2933 178.004 83.5973 178.54 84.1413 178.956C84.7013 179.372 85.4293 179.58 86.3253 179.58C87.1573 179.58 87.8133 179.396 88.2933 179.028C88.7733 178.66 89.0133 178.196 89.0133 177.636C89.0133 177.06 88.7573 176.636 88.2453 176.364C87.7333 176.076 86.9413 175.796 85.8693 175.524C84.8933 175.268 84.0933 175.012 83.4693 174.756C82.8613 174.484 82.3333 174.092 81.8853 173.58C81.4533 173.052 81.2373 172.364 81.2373 171.516C81.2373 170.844 81.4373 170.228 81.8373 169.668C82.2373 169.108 82.8053 168.668 83.5413 168.348C84.2773 168.012 85.1173 167.844 86.0613 167.844C87.5173 167.844 88.6933 168.212 89.5893 168.948C90.4853 169.684 90.9653 170.692 91.0293 171.972H88.8453C88.7973 171.284 88.5173 170.732 88.0053 170.316C87.5093 169.9 86.8373 169.692 85.9893 169.692C85.2053 169.692 84.5813 169.86 84.1173 170.196C83.6533 170.532 83.4213 170.972 83.4213 171.516C83.4213 171.948 83.5573 172.308 83.8293 172.596C84.1173 172.868 84.4693 173.092 84.8853 173.268C85.3173 173.428 85.9093 173.612 86.6613 173.82C87.6053 174.076 88.3733 174.332 88.9653 174.588C89.5573 174.828 90.0613 175.196 90.4773 175.692C90.9093 176.188 91.1333 176.836 91.1493 177.636C91.1493 178.356 90.9493 179.004 90.5493 179.58C90.1493 180.156 89.5813 180.612 88.8453 180.948C88.1253 181.268 87.2933 181.428 86.3493 181.428ZM99.3684 181.428C98.3604 181.428 97.4564 181.26 96.6564 180.924C95.8564 180.572 95.2244 180.092 94.7604 179.484C94.2964 178.86 94.0404 178.148 93.9924 177.348H96.2484C96.3124 178.004 96.6164 178.54 97.1604 178.956C97.7204 179.372 98.4484 179.58 99.3444 179.58C100.176 179.58 100.832 179.396 101.312 179.028C101.792 178.66 102.032 178.196 102.032 177.636C102.032 177.06 101.776 176.636 101.264 176.364C100.752 176.076 99.9604 175.796 98.8884 175.524C97.9124 175.268 97.1124 175.012 96.4884 174.756C95.8804 174.484 95.3524 174.092 94.9044 173.58C94.4724 173.052 94.2564 172.364 94.2564 171.516C94.2564 170.844 94.4564 170.228 94.8564 169.668C95.2564 169.108 95.8244 168.668 96.5604 168.348C97.2964 168.012 98.1364 167.844 99.0804 167.844C100.536 167.844 101.712 168.212 102.608 168.948C103.504 169.684 103.984 170.692 104.048 171.972H101.864C101.816 171.284 101.536 170.732 101.024 170.316C100.528 169.9 99.8564 169.692 99.0084 169.692C98.2244 169.692 97.6004 169.86 97.1364 170.196C96.6724 170.532 96.4404 170.972 96.4404 171.516C96.4404 171.948 96.5764 172.308 96.8484 172.596C97.1364 172.868 97.4884 173.092 97.9044 173.268C98.3364 173.428 98.9284 173.612 99.6804 173.82C100.624 174.076 101.392 174.332 101.984 174.588C102.576 174.828 103.08 175.196 103.496 175.692C103.928 176.188 104.152 176.836 104.168 177.636C104.168 178.356 103.968 179.004 103.568 179.58C103.168 180.156 102.6 180.612 101.864 180.948C101.144 181.268 100.312 181.428 99.3684 181.428ZM108.859 165.924C108.443 165.924 108.091 165.78 107.803 165.492C107.515 165.204 107.371 164.852 107.371 164.436C107.371 164.02 107.515 163.668 107.803 163.38C108.091 163.092 108.443 162.948 108.859 162.948C109.259 162.948 109.595 163.092 109.867 163.38C110.155 163.668 110.299 164.02 110.299 164.436C110.299 164.852 110.155 165.204 109.867 165.492C109.595 165.78 109.259 165.924 108.859 165.924ZM109.915 168.06V181.212H107.731V168.06H109.915ZM120.526 167.82C122.126 167.82 123.422 168.308 124.414 169.284C125.406 170.244 125.902 171.636 125.902 173.46V181.212H123.742V173.772C123.742 172.46 123.414 171.46 122.758 170.772C122.102 170.068 121.206 169.716 120.07 169.716C118.918 169.716 117.998 170.076 117.31 170.796C116.638 171.516 116.302 172.564 116.302 173.94V181.212H114.118V168.06H116.302V169.932C116.734 169.26 117.318 168.74 118.054 168.372C118.806 168.004 119.63 167.82 120.526 167.82ZM135.373 167.844C136.509 167.844 137.501 168.092 138.349 168.588C139.213 169.084 139.853 169.708 140.269 170.46V168.06H142.477V181.5C142.477 182.7 142.221 183.764 141.709 184.692C141.197 185.636 140.461 186.372 139.501 186.9C138.557 187.428 137.453 187.692 136.189 187.692C134.461 187.692 133.021 187.284 131.869 186.468C130.717 185.652 130.037 184.54 129.829 183.132H131.989C132.229 183.932 132.725 184.572 133.477 185.052C134.229 185.548 135.133 185.796 136.189 185.796C137.389 185.796 138.365 185.42 139.117 184.668C139.885 183.916 140.269 182.86 140.269 181.5V178.74C139.837 179.508 139.197 180.148 138.349 180.66C137.501 181.172 136.509 181.428 135.373 181.428C134.205 181.428 133.141 181.14 132.181 180.564C131.237 179.988 130.493 179.18 129.949 178.14C129.405 177.1 129.133 175.916 129.133 174.588C129.133 173.244 129.405 172.068 129.949 171.06C130.493 170.036 131.237 169.244 132.181 168.684C133.141 168.124 134.205 167.844 135.373 167.844ZM140.269 174.612C140.269 173.62 140.069 172.756 139.669 172.02C139.269 171.284 138.725 170.724 138.037 170.34C137.365 169.94 136.621 169.74 135.805 169.74C134.989 169.74 134.245 169.932 133.573 170.316C132.901 170.7 132.365 171.26 131.965 171.996C131.565 172.732 131.365 173.596 131.365 174.588C131.365 175.596 131.565 176.476 131.965 177.228C132.365 177.964 132.901 178.532 133.573 178.932C134.245 179.316 134.989 179.508 135.805 179.508C136.621 179.508 137.365 179.316 138.037 178.932C138.725 178.532 139.269 177.964 139.669 177.228C140.069 176.476 140.269 175.604 140.269 174.612ZM165.526 174.132C165.526 174.548 165.502 174.988 165.454 175.452H154.942C155.022 176.748 155.462 177.764 156.262 178.5C157.078 179.22 158.062 179.58 159.214 179.58C160.158 179.58 160.942 179.364 161.566 178.932C162.206 178.484 162.654 177.892 162.91 177.156H165.262C164.91 178.42 164.206 179.452 163.15 180.252C162.094 181.036 160.782 181.428 159.214 181.428C157.966 181.428 156.846 181.148 155.854 180.588C154.878 180.028 154.11 179.236 153.55 178.212C152.99 177.172 152.71 175.972 152.71 174.612C152.71 173.252 152.982 172.06 153.526 171.036C154.07 170.012 154.83 169.228 155.806 168.684C156.798 168.124 157.934 167.844 159.214 167.844C160.462 167.844 161.566 168.116 162.526 168.66C163.486 169.204 164.222 169.956 164.734 170.916C165.262 171.86 165.526 172.932 165.526 174.132ZM163.27 173.676C163.27 172.844 163.086 172.132 162.718 171.54C162.35 170.932 161.846 170.476 161.206 170.172C160.582 169.852 159.886 169.692 159.118 169.692C158.014 169.692 157.07 170.044 156.286 170.748C155.518 171.452 155.078 172.428 154.966 173.676H163.27ZM173.785 179.196L177.865 168.06H180.193L175.033 181.212H172.489L167.329 168.06H169.681L173.785 179.196ZM194.822 174.132C194.822 174.548 194.798 174.988 194.75 175.452H184.238C184.318 176.748 184.758 177.764 185.558 178.5C186.374 179.22 187.358 179.58 188.51 179.58C189.454 179.58 190.238 179.364 190.862 178.932C191.502 178.484 191.95 177.892 192.206 177.156H194.558C194.206 178.42 193.502 179.452 192.446 180.252C191.39 181.036 190.078 181.428 188.51 181.428C187.262 181.428 186.142 181.148 185.15 180.588C184.174 180.028 183.406 179.236 182.846 178.212C182.286 177.172 182.006 175.972 182.006 174.612C182.006 173.252 182.278 172.06 182.822 171.036C183.366 170.012 184.126 169.228 185.102 168.684C186.094 168.124 187.23 167.844 188.51 167.844C189.758 167.844 190.862 168.116 191.822 168.66C192.782 169.204 193.518 169.956 194.03 170.916C194.558 171.86 194.822 172.932 194.822 174.132ZM192.566 173.676C192.566 172.844 192.382 172.132 192.014 171.54C191.646 170.932 191.142 170.476 190.502 170.172C189.878 169.852 189.182 169.692 188.414 169.692C187.31 169.692 186.366 170.044 185.582 170.748C184.814 171.452 184.374 172.428 184.262 173.676H192.566ZM200.369 170.196C200.753 169.444 201.297 168.86 202.001 168.444C202.721 168.028 203.593 167.82 204.617 167.82V170.076H204.041C201.593 170.076 200.369 171.404 200.369 174.06V181.212H198.185V168.06H200.369V170.196ZM218.946 168.06L211.026 187.404H208.77L211.362 181.068L206.058 168.06H208.482L212.61 178.716L216.69 168.06H218.946ZM234.908 167.82C236.508 167.82 237.804 168.308 238.796 169.284C239.788 170.244 240.284 171.636 240.284 173.46V181.212H238.124V173.772C238.124 172.46 237.796 171.46 237.14 170.772C236.484 170.068 235.588 169.716 234.452 169.716C233.3 169.716 232.38 170.076 231.692 170.796C231.02 171.516 230.684 172.564 230.684 173.94V181.212H228.5V168.06H230.684V169.932C231.116 169.26 231.7 168.74 232.436 168.372C233.188 168.004 234.012 167.82 234.908 167.82ZM256.332 174.132C256.332 174.548 256.308 174.988 256.26 175.452H245.748C245.828 176.748 246.268 177.764 247.068 178.5C247.884 179.22 248.868 179.58 250.02 179.58C250.964 179.58 251.748 179.364 252.372 178.932C253.012 178.484 253.46 177.892 253.716 177.156H256.068C255.716 178.42 255.012 179.452 253.956 180.252C252.9 181.036 251.588 181.428 250.02 181.428C248.772 181.428 247.652 181.148 246.66 180.588C245.684 180.028 244.916 179.236 244.356 178.212C243.796 177.172 243.516 175.972 243.516 174.612C243.516 173.252 243.788 172.06 244.332 171.036C244.876 170.012 245.636 169.228 246.612 168.684C247.604 168.124 248.74 167.844 250.02 167.844C251.268 167.844 252.372 168.116 253.332 168.66C254.292 169.204 255.028 169.956 255.54 170.916C256.068 171.86 256.332 172.932 256.332 174.132ZM254.076 173.676C254.076 172.844 253.892 172.132 253.524 171.54C253.156 170.932 252.652 170.476 252.012 170.172C251.388 169.852 250.692 169.692 249.924 169.692C248.82 169.692 247.876 170.044 247.092 170.748C246.324 171.452 245.884 172.428 245.772 173.676H254.076ZM271.695 174.132C271.695 174.548 271.671 174.988 271.623 175.452H261.111C261.191 176.748 261.631 177.764 262.431 178.5C263.247 179.22 264.231 179.58 265.383 179.58C266.327 179.58 267.111 179.364 267.735 178.932C268.375 178.484 268.823 177.892 269.079 177.156H271.431C271.079 178.42 270.375 179.452 269.319 180.252C268.263 181.036 266.951 181.428 265.383 181.428C264.135 181.428 263.015 181.148 262.023 180.588C261.047 180.028 260.279 179.236 259.719 178.212C259.159 177.172 258.879 175.972 258.879 174.612C258.879 173.252 259.151 172.06 259.695 171.036C260.239 170.012 260.999 169.228 261.975 168.684C262.967 168.124 264.103 167.844 265.383 167.844C266.631 167.844 267.735 168.116 268.695 168.66C269.655 169.204 270.391 169.956 270.903 170.916C271.431 171.86 271.695 172.932 271.695 174.132ZM269.439 173.676C269.439 172.844 269.255 172.132 268.887 171.54C268.519 170.932 268.015 170.476 267.375 170.172C266.751 169.852 266.055 169.692 265.287 169.692C264.183 169.692 263.239 170.044 262.455 170.748C261.687 171.452 261.247 172.428 261.135 173.676H269.439ZM274.241 174.588C274.241 173.244 274.513 172.068 275.057 171.06C275.601 170.036 276.345 169.244 277.289 168.684C278.249 168.124 279.321 167.844 280.505 167.844C281.529 167.844 282.481 168.084 283.361 168.564C284.241 169.028 284.913 169.644 285.377 170.412V163.452H287.585V181.212H285.377V178.74C284.945 179.524 284.305 180.172 283.457 180.684C282.609 181.18 281.617 181.428 280.481 181.428C279.313 181.428 278.249 181.14 277.289 180.564C276.345 179.988 275.601 179.18 275.057 178.14C274.513 177.1 274.241 175.916 274.241 174.588ZM285.377 174.612C285.377 173.62 285.177 172.756 284.777 172.02C284.377 171.284 283.833 170.724 283.145 170.34C282.473 169.94 281.729 169.74 280.913 169.74C280.097 169.74 279.353 169.932 278.681 170.316C278.009 170.7 277.473 171.26 277.073 171.996C276.673 172.732 276.473 173.596 276.473 174.588C276.473 175.596 276.673 176.476 277.073 177.228C277.473 177.964 278.009 178.532 278.681 178.932C279.353 179.316 280.097 179.508 280.913 179.508C281.729 179.508 282.473 179.316 283.145 178.932C283.833 178.532 284.377 177.964 284.777 177.228C285.177 176.476 285.377 175.604 285.377 174.612Z" fill="#5C6169"/>
</svg>
