<svg width="110" height="88" viewBox="0 0 110 88" fill="none" xmlns="http://www.w3.org/2000/svg">
<rect x="0.543457" width="109.043" height="88" rx="12" fill="#C7FFE5"/>
<path d="M48.0627 26.4407C47.3027 26.5036 46.629 26.5568 45.9562 26.6173C45.3162 26.6746 44.7929 26.4802 44.4705 25.8981C44.1273 25.278 44.0257 24.608 44.4041 23.9872C44.5897 23.717 44.8654 23.523 45.181 23.4405C46.0722 23.23 46.9811 23.0946 47.8859 22.947C48.1755 22.8995 48.33 22.8003 48.3172 22.4689C48.3028 22.1085 48.3492 21.7432 48.3652 21.3844C48.3916 20.8063 48.6724 20.3983 49.1844 20.1524C49.6831 19.9152 50.251 19.8713 50.7797 20.029C51.3702 20.1903 51.7398 20.5741 51.8462 21.2433L52.9735 20.3032C52.7334 19.6307 52.4934 18.9526 52.2406 18.2818C52.011 17.677 52.167 17.1868 52.6198 16.7579C53.4319 15.9911 54.7 15.7903 55.6696 16.2829C55.6992 16.2475 55.7497 16.2128 55.7601 16.1693C55.9425 15.3686 56.5233 15.0759 57.2521 15.0146C58.0378 14.9493 58.7722 15.0864 59.2979 15.758C59.6179 16.1725 59.6179 16.6546 59.5003 17.14C59.3123 17.9205 59.1163 18.6986 58.9179 19.4783C58.8659 19.6823 58.8819 19.817 59.1019 19.929C60.1979 20.4862 60.9484 21.353 61.3292 22.5358C61.3485 22.575 61.3728 22.6116 61.4012 22.6447C61.9173 22.5318 62.4285 22.3883 62.9501 22.3141C64.1958 22.1359 64.7798 22.6761 64.723 23.9436C64.6878 24.7281 64.387 25.4554 63.2117 25.4619C62.4965 25.4619 61.782 25.6578 61.0676 25.7659C61.0676 25.8126 61.0676 25.8602 61.0676 25.907C61.3692 26.1214 61.6612 26.3512 61.9773 26.5423C62.0709 26.5996 62.2341 26.5681 62.3589 26.5423C63.1261 26.3851 63.891 26.2117 64.659 26.0585C64.8151 26.0322 64.9751 26.0415 65.1271 26.086C66.1671 26.369 66.7664 28.1646 66.0631 28.9886C65.8679 29.2184 65.5167 29.3426 65.2143 29.4442C64.7878 29.5869 64.3406 29.6627 63.919 29.7667C63.919 30.1126 63.9078 30.4174 63.9254 30.7206C63.9308 30.7704 63.9465 30.8185 63.9712 30.8619C63.996 30.9054 64.0294 30.9432 64.0694 30.973C65.0295 31.572 65.5319 32.5049 65.9247 33.5176C66.7392 35.614 66.9736 37.7975 66.8976 40.0277C66.836 41.8201 66.5776 43.5755 65.8447 45.23C65.4695 46.0742 64.9647 46.8232 64.195 47.3586C63.2237 48.0375 62.1333 48.2327 61.0996 47.6747C59.1891 46.6426 57.1185 46.1274 55.064 45.5364C53.9311 45.2139 52.8014 44.872 51.7838 44.152C51.7646 44.2737 51.7518 44.3229 51.7494 44.3729C51.6926 45.6493 51.1413 46.2677 49.8845 46.4322C49.6069 46.4673 49.3263 46.4689 49.0484 46.437C48.0163 46.3233 47.4795 45.6759 47.5507 44.643C47.6403 43.3328 47.7291 42.0225 47.8387 40.7139C47.8694 40.4226 47.7953 40.1299 47.6299 39.889C46.6578 38.3982 45.9186 36.8049 45.6058 35.0343C45.4162 33.9619 45.4458 32.8928 45.7714 31.8534C45.889 31.4745 45.7554 31.2834 45.4594 31.1705C45.1994 31.0728 44.9266 31.0141 44.6497 30.9963C43.7473 30.9399 43.228 30.4497 43.2192 29.6087C43.2096 28.7331 43.8217 28.0558 44.6881 28.0243C45.6906 27.988 46.6442 28.1856 47.5683 28.775C47.7347 27.9816 47.8947 27.2341 48.0627 26.4407ZM50.8149 34.2304L49.4764 35.1335C49.1004 35.3867 48.7396 35.356 48.5292 35.0528C48.3188 34.7497 48.3964 34.3723 48.7748 34.1288C49.614 33.5886 50.4477 33.0339 51.3182 32.5477C52.3838 31.9526 53.1719 31.1286 53.6471 30.0006C53.9959 29.1717 53.9951 29.1709 53.2615 28.6637L53.2287 28.6403C51.8398 27.6728 50.8773 27.6816 49.5116 28.6855C49.426 28.7484 49.3404 28.8121 49.2572 28.8798C47.3827 30.4118 46.3514 32.3421 46.8323 34.7956C47.5427 38.424 49.6172 41.1654 52.6206 43.2247C53.7207 43.9786 55.0208 44.2229 56.2649 44.5882C58.0362 45.1082 59.8243 45.5614 61.4508 46.4975C62.2381 46.9506 63.1253 46.7499 63.799 46.1C64.359 45.559 64.7062 44.8801 64.9583 44.1544C65.6327 42.212 65.7767 40.2035 65.6535 38.1668C65.5607 36.6227 65.2871 35.1093 64.6662 33.6789C63.991 32.1235 62.2213 31.0794 60.5196 31.2334C60.742 32.6476 61.0276 34.0555 60.8236 35.502C60.8209 35.5816 60.8373 35.6607 60.8716 35.7326C61.4068 37.121 61.9597 38.4982 62.9693 39.6286C63.2285 39.9197 63.2093 40.3035 62.9541 40.5268C62.6989 40.7502 62.3261 40.7332 62.0653 40.4462C61.8021 40.1626 61.5626 39.8576 61.3492 39.5343C61.0084 38.9997 60.7092 38.4401 60.3451 37.8185C60.1275 39.527 59.8931 41.1533 60.3035 42.7901C60.3995 43.1755 60.2235 43.4811 59.8787 43.5755C59.5339 43.6698 59.2227 43.4948 59.1299 43.107C59.0198 42.6799 58.9434 42.2448 58.9011 41.8056C58.7411 39.7802 59.0691 37.7999 59.4883 35.8293C59.5875 35.3617 59.6339 34.8835 59.7051 34.4094L59.5275 34.3368C59.1003 34.8601 58.665 35.3778 58.2474 35.9091C57.9802 36.2478 57.6514 36.351 57.3538 36.1559C57.0337 35.9454 56.9537 35.5681 57.2402 35.2141C57.741 34.5916 58.2178 33.9192 58.8306 33.4265C59.3963 32.9718 59.5659 32.5533 59.3907 31.8559C59.1923 31.0496 59.2459 31.0359 58.4522 30.906C58.3998 30.8968 58.348 30.8844 58.297 30.8689L54.984 29.8885C55.036 29.8345 55.0088 29.8498 55.0016 29.8724C54.5512 31.3496 53.5848 32.6124 52.2814 33.4265C52.235 33.4587 52.196 33.5006 52.167 33.5492C52.138 33.5979 52.1197 33.6523 52.1134 33.7087C52.1174 34.4505 51.9766 35.2068 52.3958 35.9043C52.5678 36.1889 52.4702 36.4905 52.1894 36.6792C51.9086 36.8678 51.599 36.8404 51.4078 36.5655C51.2159 36.2952 51.0754 35.9915 50.9933 35.6697C50.8957 35.227 50.8789 34.7674 50.8149 34.2304ZM60.1659 23.0688C60.0683 22.5003 59.7817 21.9822 59.3531 21.5997C58.4106 20.737 57.2625 20.4273 56.0329 20.5047C54.2127 20.62 52.9503 21.6876 51.9446 23.1252C51.8869 23.2145 51.861 23.3208 51.871 23.4268C51.9998 24.475 52.1342 25.5232 52.2806 26.5665C52.2896 26.6241 52.3104 26.6791 52.3417 26.7281C52.3729 26.7771 52.414 26.819 52.4622 26.8511C52.827 27.0326 53.2063 27.1833 53.6695 27.3841C54.1375 26.6012 54.6128 25.8312 55.0624 25.0458C55.4376 24.3895 55.9513 23.9509 56.7153 23.8638C56.8917 23.854 57.0685 23.854 57.2449 23.8638C57.1105 23.2284 56.6609 23.0446 56.1825 22.8962C55.704 22.7479 55.516 22.4737 55.6224 22.0899C55.72 21.7416 56.0577 21.5932 56.5025 21.7118C57.5282 21.9851 58.2562 22.5713 58.4714 23.6993L60.1659 23.0688ZM63.4301 23.4985C63.2557 23.5203 63.0909 23.5139 62.9445 23.563C61.3444 24.0936 59.7443 24.6225 58.157 25.1756C57.837 25.2869 57.561 25.3272 57.2418 25.1829C56.8105 24.9886 56.4657 25.1095 56.2153 25.5127C56.0817 25.728 55.9897 25.9691 55.8569 26.1843C55.4664 26.8165 55.064 27.4414 54.6568 28.0816C55.5893 28.734 56.6357 29.2032 57.741 29.4644C57.7546 29.2281 57.761 29.0306 57.7778 28.8338C57.9234 27.1688 58.6154 25.832 60.0883 24.9805C60.9828 24.4629 61.9669 24.2621 62.9885 24.2145C63.5326 24.192 63.591 24.1 63.4301 23.4985ZM62.6677 30.2795C62.6485 30.1183 62.6397 29.9328 62.6037 29.7546C62.3077 28.2928 61.3076 27.4397 60.0683 26.8028C60.0132 26.7872 59.9551 26.7857 59.8992 26.7984C59.8434 26.811 59.7915 26.8375 59.7483 26.8753C59.1083 27.7107 58.9347 28.6718 58.9987 29.6974L62.6677 30.2795ZM50.9917 26.6109C50.9181 26.1561 50.7941 25.6489 50.7605 25.1369C50.6805 23.9638 50.6549 22.7874 50.5965 21.6126C50.5901 21.482 50.5557 21.2957 50.4685 21.2377C50.3845 21.1825 50.2877 21.1505 50.1876 21.1446C50.0875 21.1388 49.9877 21.1593 49.8979 21.2043C49.8081 21.2492 49.7315 21.317 49.6757 21.4009C49.6199 21.4848 49.5868 21.582 49.5796 21.6827C49.5636 21.869 49.5652 22.0569 49.5532 22.2472C49.4732 23.5372 49.3988 24.8346 49.3076 26.1271C49.278 26.5391 49.2028 26.9479 49.1476 27.347L50.9917 26.6109ZM49.0244 41.7855C48.9348 42.8087 48.8444 43.7778 48.7732 44.7494C48.7644 44.872 48.822 45.0534 48.9124 45.1195C49.2244 45.3469 50.2941 45.2542 50.3837 44.922C50.5325 44.3745 50.6621 43.673 50.4413 43.2102C50.1757 42.6506 49.5356 42.2733 49.0244 41.7855ZM57.637 19.3928C57.6626 19.3582 57.6858 19.3396 57.6914 19.3122C57.889 18.522 58.0738 17.7286 58.2866 16.9433C58.3746 16.6208 58.3514 16.3999 57.9962 16.2918C57.5026 16.141 57.0361 16.2483 56.9233 16.5619C56.7857 16.9377 56.6833 17.3287 56.5233 17.6907C56.2929 18.206 56.4881 18.6849 56.6833 19.1139C56.7633 19.2808 57.1857 19.2864 57.453 19.3614C57.5134 19.3764 57.5749 19.3875 57.637 19.3928ZM55.3728 19.2961C55.3809 19.2653 55.3844 19.2335 55.3832 19.2018C55.28 18.7744 55.1712 18.3495 55.0704 17.9213C54.8912 17.1634 54.7248 17.0715 53.9887 17.3569C53.8285 17.4193 53.6772 17.5031 53.5391 17.6061C53.4679 17.6593 53.3839 17.7948 53.4055 17.8585C53.6119 18.4688 53.8399 19.0679 54.0623 19.6799L55.3728 19.2961ZM48.1915 24.1678L45.7538 24.5709C45.5722 24.6008 45.3538 24.6008 45.4074 24.8862C45.4522 25.1337 45.465 25.4135 45.8386 25.3772C46.525 25.3111 47.2123 25.2611 47.8971 25.1797C48.0027 25.1668 48.1612 25.0337 48.178 24.9378C48.2196 24.6911 48.1915 24.4339 48.1915 24.1678ZM63.5526 28.5855C63.9958 28.475 64.4022 28.3565 64.8158 28.2759C65.0303 28.234 65.1871 28.1783 65.1159 27.9292C65.0447 27.68 65.0647 27.2785 64.6958 27.3123C64.1438 27.364 63.6022 27.522 63.0317 27.6349L63.5526 28.5855ZM44.4481 29.6337L46.4618 30.1981L46.7531 29.7417C46.1306 29.3458 45.4634 29.2709 44.7881 29.258C44.5393 29.2442 44.4081 29.3991 44.4529 29.6321L44.4481 29.6337Z" fill="#002A50"/>
<path d="M23.2667 69.14C22.5854 69.14 21.96 69.0187 21.3907 68.776C20.8214 68.5333 20.3267 68.188 19.9067 67.74C19.4867 67.2827 19.16 66.746 18.9267 66.13C18.7027 65.514 18.5907 64.8373 18.5907 64.1C18.5907 63.4 18.712 62.7513 18.9547 62.154C19.2067 61.5473 19.552 61.0153 19.9907 60.558C20.4294 60.1007 20.938 59.746 21.5167 59.494C22.0954 59.242 22.7207 59.116 23.3927 59.116C23.8687 59.116 24.3307 59.1907 24.7787 59.34C25.236 59.48 25.6467 59.6807 26.0107 59.942C26.384 60.194 26.6874 60.4833 26.9207 60.81L25.9127 61.86C25.642 61.5893 25.3667 61.3653 25.0867 61.188C24.816 61.0013 24.536 60.8613 24.2467 60.768C23.9667 60.6747 23.682 60.628 23.3927 60.628C22.9354 60.628 22.506 60.7167 22.1047 60.894C21.7127 61.062 21.3674 61.3 21.0687 61.608C20.7794 61.916 20.5507 62.2847 20.3827 62.714C20.2147 63.134 20.1307 63.596 20.1307 64.1C20.1307 64.632 20.21 65.1173 20.3687 65.556C20.5367 65.9853 20.77 66.354 21.0687 66.662C21.3674 66.97 21.722 67.208 22.1327 67.376C22.5527 67.5347 23.0147 67.614 23.5187 67.614C23.8267 67.614 24.13 67.572 24.4287 67.488C24.7274 67.404 25.0074 67.2827 25.2687 67.124C25.53 66.9653 25.768 66.7787 25.9827 66.564L26.7387 67.796C26.524 68.048 26.23 68.2767 25.8567 68.482C25.4927 68.6873 25.082 68.8507 24.6247 68.972C24.1767 69.084 23.724 69.14 23.2667 69.14ZM31.2567 69.14C30.65 69.14 30.0947 68.972 29.5907 68.636C29.096 68.3 28.6993 67.8427 28.4007 67.264C28.102 66.6853 27.9527 66.032 27.9527 65.304C27.9527 64.5667 28.102 63.9133 28.4007 63.344C28.7087 62.7653 29.1193 62.3127 29.6327 61.986C30.1553 61.6593 30.7387 61.496 31.3827 61.496C31.7653 61.496 32.1153 61.552 32.4327 61.664C32.75 61.776 33.0253 61.9347 33.2587 62.14C33.5013 62.336 33.6973 62.5647 33.8467 62.826C34.0053 63.0873 34.1033 63.3673 34.1407 63.666L33.8187 63.554V61.65H35.2747V69H33.8187V67.25L34.1547 67.152C34.0987 67.404 33.982 67.6513 33.8047 67.894C33.6367 68.1273 33.4173 68.3373 33.1467 68.524C32.8853 68.7107 32.5913 68.86 32.2647 68.972C31.9473 69.084 31.6113 69.14 31.2567 69.14ZM31.6347 67.81C32.0733 67.81 32.4607 67.7027 32.7967 67.488C33.1327 67.2733 33.394 66.9793 33.5807 66.606C33.7767 66.2233 33.8747 65.7893 33.8747 65.304C33.8747 64.828 33.7767 64.4033 33.5807 64.03C33.394 63.6567 33.1327 63.3627 32.7967 63.148C32.4607 62.9333 32.0733 62.826 31.6347 62.826C31.2053 62.826 30.8227 62.9333 30.4867 63.148C30.16 63.3627 29.8987 63.6567 29.7027 64.03C29.516 64.4033 29.4227 64.828 29.4227 65.304C29.4227 65.7893 29.516 66.2233 29.7027 66.606C29.8987 66.9793 30.16 67.2733 30.4867 67.488C30.8227 67.7027 31.2053 67.81 31.6347 67.81ZM37.288 69V61.65H38.744V63.96L38.604 63.4C38.7067 63.0453 38.8794 62.7233 39.122 62.434C39.374 62.1447 39.6587 61.916 39.976 61.748C40.3027 61.58 40.6387 61.496 40.984 61.496C41.1427 61.496 41.292 61.51 41.432 61.538C41.5814 61.566 41.698 61.5987 41.782 61.636L41.404 63.204C41.292 63.1573 41.166 63.12 41.026 63.092C40.8954 63.0547 40.7647 63.036 40.634 63.036C40.382 63.036 40.1394 63.0873 39.906 63.19C39.682 63.2833 39.4814 63.4187 39.304 63.596C39.136 63.764 39.0007 63.9647 38.898 64.198C38.7954 64.422 38.744 64.6693 38.744 64.94V69H37.288ZM45.6861 69.14C45.0141 69.14 44.4121 68.9767 43.8801 68.65C43.3574 68.314 42.9421 67.8613 42.6341 67.292C42.3261 66.7133 42.1721 66.0553 42.1721 65.318C42.1721 64.5807 42.3214 63.9273 42.6201 63.358C42.9281 62.7793 43.3434 62.3267 43.8661 62C44.3887 61.664 44.9814 61.496 45.6441 61.496C46.0081 61.496 46.3581 61.5567 46.6941 61.678C47.0394 61.79 47.3474 61.9487 47.6181 62.154C47.8887 62.35 48.0987 62.5693 48.2481 62.812C48.4067 63.0453 48.4861 63.2833 48.4861 63.526L48.0661 63.554V58.64H49.5081V69H48.0661V67.25H48.3461C48.3461 67.474 48.2714 67.698 48.1221 67.922C47.9727 68.1367 47.7721 68.3373 47.5201 68.524C47.2774 68.7107 46.9927 68.86 46.6661 68.972C46.3487 69.084 46.0221 69.14 45.6861 69.14ZM45.8821 67.894C46.3207 67.894 46.7081 67.782 47.0441 67.558C47.3801 67.334 47.6414 67.0307 47.8281 66.648C48.0241 66.256 48.1221 65.8127 48.1221 65.318C48.1221 64.8233 48.0241 64.3847 47.8281 64.002C47.6414 63.61 47.3801 63.302 47.0441 63.078C46.7081 62.854 46.3207 62.742 45.8821 62.742C45.4434 62.742 45.0561 62.854 44.7201 63.078C44.3841 63.302 44.1181 63.61 43.9221 64.002C43.7354 64.3847 43.6421 64.8233 43.6421 65.318C43.6421 65.8127 43.7354 66.256 43.9221 66.648C44.1181 67.0307 44.3841 67.334 44.7201 67.558C45.0561 67.782 45.4434 67.894 45.8821 67.894ZM51.7311 69V61.65H53.1731V69H51.7311ZM52.4311 60.026C52.1231 60.026 51.8851 59.9467 51.7171 59.788C51.5491 59.6293 51.4651 59.4053 51.4651 59.116C51.4651 58.8453 51.5491 58.626 51.7171 58.458C51.8944 58.29 52.1324 58.206 52.4311 58.206C52.7391 58.206 52.9771 58.2853 53.1451 58.444C53.3131 58.6027 53.3971 58.8267 53.3971 59.116C53.3971 59.3867 53.3084 59.606 53.1311 59.774C52.9631 59.942 52.7298 60.026 52.4311 60.026ZM58.6936 69.14C57.9749 69.14 57.3309 68.9767 56.7616 68.65C56.2016 68.314 55.7583 67.8613 55.4316 67.292C55.1049 66.7133 54.9416 66.0553 54.9416 65.318C54.9416 64.5807 55.1049 63.9273 55.4316 63.358C55.7583 62.7793 56.2016 62.3267 56.7616 62C57.3309 61.664 57.9749 61.496 58.6936 61.496C59.4029 61.496 60.0376 61.664 60.5976 62C61.1669 62.3267 61.6149 62.7793 61.9416 63.358C62.2683 63.9273 62.4316 64.5807 62.4316 65.318C62.4316 66.0553 62.2683 66.7133 61.9416 67.292C61.6149 67.8613 61.1669 68.314 60.5976 68.65C60.0376 68.9767 59.4029 69.14 58.6936 69.14ZM58.6936 67.824C59.1323 67.824 59.5243 67.7167 59.8696 67.502C60.2149 67.278 60.4856 66.9793 60.6816 66.606C60.8776 66.2233 60.9709 65.794 60.9616 65.318C60.9709 64.8327 60.8776 64.4033 60.6816 64.03C60.4856 63.6473 60.2149 63.3487 59.8696 63.134C59.5243 62.9193 59.1323 62.812 58.6936 62.812C58.2549 62.812 57.8583 62.924 57.5036 63.148C57.1583 63.3627 56.8876 63.6613 56.6916 64.044C56.4956 64.4173 56.4023 64.842 56.4116 65.318C56.4023 65.794 56.4956 66.2233 56.6916 66.606C56.8876 66.9793 57.1583 67.278 57.5036 67.502C57.8583 67.7167 58.2549 67.824 58.6936 67.824ZM64.0309 69V58.64H65.4729V69H64.0309ZM70.6838 69.14C69.9652 69.14 69.3212 68.9767 68.7518 68.65C68.1918 68.314 67.7485 67.8613 67.4218 67.292C67.0952 66.7133 66.9318 66.0553 66.9318 65.318C66.9318 64.5807 67.0952 63.9273 67.4218 63.358C67.7485 62.7793 68.1918 62.3267 68.7518 62C69.3212 61.664 69.9652 61.496 70.6838 61.496C71.3932 61.496 72.0278 61.664 72.5878 62C73.1572 62.3267 73.6052 62.7793 73.9318 63.358C74.2585 63.9273 74.4218 64.5807 74.4218 65.318C74.4218 66.0553 74.2585 66.7133 73.9318 67.292C73.6052 67.8613 73.1572 68.314 72.5878 68.65C72.0278 68.9767 71.3932 69.14 70.6838 69.14ZM70.6838 67.824C71.1225 67.824 71.5145 67.7167 71.8598 67.502C72.2052 67.278 72.4758 66.9793 72.6718 66.606C72.8678 66.2233 72.9612 65.794 72.9518 65.318C72.9612 64.8327 72.8678 64.4033 72.6718 64.03C72.4758 63.6473 72.2052 63.3487 71.8598 63.134C71.5145 62.9193 71.1225 62.812 70.6838 62.812C70.2452 62.812 69.8485 62.924 69.4938 63.148C69.1485 63.3627 68.8778 63.6613 68.6818 64.044C68.4858 64.4173 68.3925 64.842 68.4018 65.318C68.3925 65.794 68.4858 66.2233 68.6818 66.606C68.8778 66.9793 69.1485 67.278 69.4938 67.502C69.8485 67.7167 70.2452 67.824 70.6838 67.824ZM79.2831 72.22C78.7604 72.22 78.2378 72.136 77.7151 71.968C77.2018 71.8093 76.7864 71.5993 76.4691 71.338L77.0011 70.218C77.1878 70.358 77.4071 70.4793 77.6591 70.582C77.9111 70.694 78.1771 70.778 78.4571 70.834C78.7371 70.8993 79.0124 70.932 79.2831 70.932C79.7964 70.932 80.2258 70.848 80.5711 70.68C80.9164 70.512 81.1778 70.2647 81.3551 69.938C81.5324 69.6113 81.6211 69.2053 81.6211 68.72V67.306L81.7751 67.404C81.7284 67.6933 81.5744 67.9733 81.3131 68.244C81.0611 68.5053 80.7438 68.72 80.3611 68.888C79.9784 69.056 79.5864 69.14 79.1851 69.14C78.4851 69.14 77.8598 68.9767 77.3091 68.65C76.7678 68.314 76.3384 67.8613 76.0211 67.292C75.7038 66.7133 75.5451 66.0553 75.5451 65.318C75.5451 64.5807 75.6991 63.9273 76.0071 63.358C76.3244 62.7793 76.7538 62.3267 77.2951 62C77.8458 61.664 78.4618 61.496 79.1431 61.496C79.4231 61.496 79.6938 61.5333 79.9551 61.608C80.2164 61.6733 80.4591 61.7713 80.6831 61.902C80.9071 62.0233 81.1078 62.1587 81.2851 62.308C81.4624 62.4573 81.6071 62.616 81.7191 62.784C81.8311 62.952 81.9011 63.1107 81.9291 63.26L81.6211 63.372V61.65H83.0631V68.552C83.0631 69.14 82.9744 69.658 82.7971 70.106C82.6291 70.5633 82.3818 70.946 82.0551 71.254C81.7284 71.5713 81.3318 71.8093 80.8651 71.968C80.3984 72.136 79.8711 72.22 79.2831 72.22ZM79.3391 67.81C79.7964 67.81 80.2024 67.7027 80.5571 67.488C80.9118 67.2733 81.1871 66.9793 81.3831 66.606C81.5791 66.2327 81.6771 65.8033 81.6771 65.318C81.6771 64.8327 81.5744 64.4033 81.3691 64.03C81.1731 63.6473 80.8978 63.3487 80.5431 63.134C80.1978 62.9193 79.7964 62.812 79.3391 62.812C78.8911 62.812 78.4898 62.924 78.1351 63.148C77.7898 63.3627 77.5144 63.6613 77.3091 64.044C77.1131 64.4173 77.0151 64.842 77.0151 65.318C77.0151 65.794 77.1131 66.2233 77.3091 66.606C77.5144 66.9793 77.7898 67.2733 78.1351 67.488C78.4898 67.7027 78.8911 67.81 79.3391 67.81ZM86.3169 72.22L87.8009 68.79L87.8149 69.938L84.1469 61.65H85.8269L88.1229 67.054C88.1696 67.1473 88.2256 67.292 88.2909 67.488C88.3562 67.6747 88.4122 67.8613 88.4589 68.048L88.0949 68.132C88.1696 67.936 88.2396 67.74 88.3049 67.544C88.3796 67.348 88.4496 67.152 88.5149 66.956L90.4329 61.65H92.1409L89.1169 69L87.8709 72.22H86.3169Z" fill="#002A50"/>
</svg>
