<svg width="110" height="88" viewBox="0 0 110 88" fill="none" xmlns="http://www.w3.org/2000/svg">
<rect x="0.32666" width="109.043" height="88" rx="12" fill="#F0DAFC"/>
<path d="M62.5182 27.8238C62.4727 26.3094 61.7619 25.1055 60.4083 24.245C59.9263 23.9385 59.7742 23.5802 59.913 23.082L59.9541 22.9353L60.1462 22.8934C60.1851 22.8829 60.2248 22.8752 60.265 22.8704C61.7009 22.7127 62.526 21.8721 62.5293 20.5744V20.3438C62.5293 19.3175 62.5293 18.2564 62.5293 17.2142C62.5215 15.9164 61.5165 15.001 60.0862 15C54.043 15 47.8209 15 41.5911 15C40.1586 15 39.148 15.9094 39.148 17.2092C39.1414 18.2005 39.148 19.1858 39.148 19.9335C39.148 20.0333 39.148 20.1281 39.148 20.226C39.1347 20.5016 39.147 20.7777 39.1847 21.0515C39.3657 22.0947 40.1497 22.7007 41.58 22.9033L41.8632 22.9443L41.8099 23.1968C41.7992 23.2629 41.7974 23.33 41.8043 23.3965C41.8132 23.5961 41.8276 23.9066 41.439 24.1402C39.9232 25.0506 39.1536 26.3494 39.1514 27.9995C39.1447 32.6844 39.1447 37.7187 39.1514 43.3909C39.1514 45.9954 41.3435 47.97 44.2441 47.983C45.0814 47.983 45.9331 47.983 46.7571 47.983H49.1146C50.1141 47.983 51.1579 47.983 52.1785 47.978C52.4366 47.979 52.686 47.8942 52.8788 47.7401C53.0717 47.5859 53.1944 47.3731 53.2235 47.1425C53.2525 46.912 53.1858 46.6799 53.0362 46.4909C52.8866 46.3018 52.6646 46.1691 52.4128 46.1182C52.2688 46.0949 52.1225 46.0858 51.9764 46.0912H49.1935C47.5555 46.0912 45.862 46.0912 44.1963 46.0912C43.7956 46.0894 43.3995 46.0154 43.0312 45.8736C42.6628 45.7318 42.3299 45.5251 42.052 45.2657C41.7922 45.0239 41.5895 44.7375 41.4559 44.4235C41.3223 44.1096 41.2607 43.7747 41.2746 43.4388L41.2846 43.1982H44.3062C46.4443 43.1982 48.5827 43.1982 50.7215 43.1982C51.2568 43.1982 51.5977 43.0126 51.7953 42.6152C51.866 42.4789 51.8969 42.3287 51.8852 42.1788C51.8736 42.0288 51.8197 41.8839 51.7287 41.7577C51.6206 41.6149 51.4745 41.4987 51.3036 41.4197C51.1327 41.3407 50.9425 41.3014 50.7504 41.3055C48.6479 41.3015 46.5461 41.3015 44.4451 41.3055H41.2746V28.871H60.4227V29.1206C60.4227 29.3612 60.4227 29.5988 60.4227 29.8353C60.4227 30.3884 60.4227 30.9105 60.4227 31.4446C60.4294 32.0126 60.8669 32.4309 61.4588 32.4428C61.5949 32.4457 61.7302 32.4242 61.857 32.3796C61.9837 32.3351 62.0994 32.2683 62.1973 32.1833C62.3035 32.0862 62.3871 31.9711 62.4432 31.8445C62.4993 31.718 62.5266 31.5827 62.5237 31.4466C62.5237 31.205 62.5237 30.9634 62.5293 30.7218C62.5393 29.7695 62.5482 28.7852 62.5182 27.8238ZM41.2746 20.9587V16.9177H60.4027V20.9587H41.2746ZM41.208 26.9883L41.6811 26.562C41.7777 26.4752 41.8665 26.3923 41.9531 26.3124C42.1399 26.1325 42.3367 25.9613 42.5428 25.7993C42.7074 25.6849 42.8891 25.5919 43.0825 25.5228L43.1869 25.4809C43.6388 25.2932 43.8532 24.9997 43.8532 24.5585C43.8587 24.244 43.8532 23.9316 43.8532 23.6021C43.8532 23.4544 43.8532 23.3026 43.8532 23.1509V22.9013H57.762V23.1509C57.762 23.2827 57.762 23.4125 57.762 23.5422C57.762 23.8237 57.7686 24.1152 57.7553 24.4017C57.7309 24.9718 57.9774 25.3192 58.5504 25.5278C59.1284 25.739 59.6091 26.1211 59.913 26.6109L60.1606 26.9883H41.208Z" fill="#002A50"/>
<path d="M70.085 36.7114C69.3198 35.1491 67.8829 34.2327 66.0383 34.1299C64.5114 34.1299 63.3121 34.5082 62.4715 35.2509L62.2149 35.4785C60.2794 37.1896 58.2794 38.9585 56.3649 40.7424C54.6114 42.3766 54.6747 45.053 56.5059 46.7081C58.3371 48.3632 61.2943 48.4361 63.1089 46.8798C65.5786 44.7635 67.5342 43.0025 69.2632 41.3374C70.6357 40.0157 70.92 38.4164 70.085 36.7114ZM63.6997 43.6524C63.5053 43.8311 63.311 44.0138 63.1144 44.1984C62.6702 44.6137 62.2127 45.044 61.7308 45.4483C61.2184 45.8776 60.5402 46.1109 59.8399 46.0986C59.1396 46.0864 58.472 45.8296 57.9786 45.3827C57.4852 44.9357 57.2046 44.3337 57.1963 43.7041C57.188 43.0744 57.4526 42.4666 57.934 42.0092C58.386 41.58 58.8646 41.1687 59.3277 40.7724C59.5331 40.5957 59.7374 40.42 59.9373 40.2443L60.135 40.0716L63.8896 43.4767L63.6997 43.6524ZM67.7574 40.0326C67.6608 40.1325 67.5553 40.2323 67.4564 40.3192L66.0717 41.549L65.4875 42.0691L61.6297 38.6121L61.8396 38.4364C62.0806 38.2368 62.3227 38.0181 62.5581 37.8095C63.1039 37.3032 63.6876 36.8309 64.3049 36.3959C65.3154 35.7151 66.859 35.9247 67.7551 36.8621C68.1769 37.3032 68.4089 37.8654 68.4093 38.447C68.4098 39.0286 68.1785 39.5911 67.7574 40.0326Z" fill="#002A50"/>
<path d="M54.5433 35.0812C54.5433 35.6193 54.0647 36.0156 53.4117 36.0226C53.1408 36.0226 52.8709 36.0226 52.5833 36.0226H51.8848V36.6216C51.8848 36.8711 51.8848 37.1137 51.8848 37.3563C51.8848 37.9752 51.4484 38.4085 50.8365 38.4095C50.2224 38.4095 49.7905 37.9802 49.7849 37.3643C49.7849 37.1297 49.7849 36.8941 49.7849 36.6415V36.0196H49.0775C48.7821 36.0196 48.5034 36.0196 48.2258 36.0196C47.5939 36.0096 47.1308 35.6203 47.1253 35.0842C47.1197 34.5482 47.5873 34.1379 48.2358 34.1299C48.5156 34.1299 48.791 34.1299 49.0875 34.1299H49.7838V33.8803C49.7838 33.7505 49.7838 33.6248 49.7838 33.502C49.7838 33.2374 49.7838 32.9879 49.7838 32.7373C49.7927 32.1573 50.228 31.739 50.8343 31.739H50.8465C51.4384 31.739 51.8748 32.1603 51.8859 32.7283C51.8915 32.9789 51.8859 33.2274 51.8859 33.495C51.8859 33.6198 51.8859 33.7475 51.8859 33.8803V34.1299H52.5767C52.8654 34.1299 53.1452 34.1299 53.424 34.1299C54.0736 34.1399 54.5456 34.5382 54.5433 35.0812Z" fill="#002A50"/>
<path d="M25.7253 69V59.2H27.2093L30.7793 65.01L30.0653 64.996L33.6773 59.2H35.0773V69H33.5653V64.982C33.5653 64.142 33.5839 63.386 33.6213 62.714C33.6679 62.042 33.7426 61.3747 33.8453 60.712L34.0413 61.23L30.8353 66.186H29.9113L26.8033 61.286L26.9573 60.712C27.0599 61.3373 27.1299 61.9813 27.1673 62.644C27.2139 63.2973 27.2373 64.0767 27.2373 64.982V69H25.7253ZM40.8909 69.14C40.1349 69.14 39.4629 68.9813 38.8749 68.664C38.2962 68.3373 37.8389 67.894 37.5029 67.334C37.1762 66.774 37.0129 66.13 37.0129 65.402C37.0129 64.8233 37.1062 64.296 37.2929 63.82C37.4795 63.344 37.7362 62.9333 38.0629 62.588C38.3989 62.2333 38.7955 61.9627 39.2529 61.776C39.7195 61.58 40.2235 61.482 40.7649 61.482C41.2409 61.482 41.6842 61.5753 42.0949 61.762C42.5055 61.9393 42.8602 62.1867 43.1589 62.504C43.4669 62.8213 43.7002 63.1993 43.8589 63.638C44.0269 64.0673 44.1062 64.5387 44.0969 65.052L44.0829 65.668H38.0769L37.7549 64.52H42.8369L42.6269 64.758V64.422C42.5989 64.114 42.4962 63.8387 42.3189 63.596C42.1415 63.3533 41.9175 63.162 41.6469 63.022C41.3762 62.882 41.0822 62.812 40.7649 62.812C40.2609 62.812 39.8362 62.91 39.4909 63.106C39.1455 63.2927 38.8842 63.5727 38.7069 63.946C38.5295 64.31 38.4409 64.7627 38.4409 65.304C38.4409 65.8173 38.5482 66.2653 38.7629 66.648C38.9775 67.0213 39.2809 67.3107 39.6729 67.516C40.0649 67.7213 40.5175 67.824 41.0309 67.824C41.3949 67.824 41.7309 67.7633 42.0389 67.642C42.3562 67.5207 42.6969 67.3013 43.0609 66.984L43.7889 68.006C43.5649 68.23 43.2895 68.426 42.9629 68.594C42.6455 68.762 42.3049 68.8973 41.9409 69C41.5862 69.0933 41.2362 69.14 40.8909 69.14ZM48.73 69.14C48.058 69.14 47.456 68.9767 46.924 68.65C46.4013 68.314 45.986 67.8613 45.678 67.292C45.37 66.7133 45.216 66.0553 45.216 65.318C45.216 64.5807 45.3653 63.9273 45.664 63.358C45.972 62.7793 46.3873 62.3267 46.91 62C47.4327 61.664 48.0253 61.496 48.688 61.496C49.052 61.496 49.402 61.5567 49.738 61.678C50.0833 61.79 50.3913 61.9487 50.662 62.154C50.9327 62.35 51.1427 62.5693 51.292 62.812C51.4507 63.0453 51.53 63.2833 51.53 63.526L51.11 63.554V58.64H52.552V69H51.11V67.25H51.39C51.39 67.474 51.3153 67.698 51.166 67.922C51.0167 68.1367 50.816 68.3373 50.564 68.524C50.3213 68.7107 50.0367 68.86 49.71 68.972C49.3927 69.084 49.066 69.14 48.73 69.14ZM48.926 67.894C49.3647 67.894 49.752 67.782 50.088 67.558C50.424 67.334 50.6853 67.0307 50.872 66.648C51.068 66.256 51.166 65.8127 51.166 65.318C51.166 64.8233 51.068 64.3847 50.872 64.002C50.6853 63.61 50.424 63.302 50.088 63.078C49.752 62.854 49.3647 62.742 48.926 62.742C48.4873 62.742 48.1 62.854 47.764 63.078C47.428 63.302 47.162 63.61 46.966 64.002C46.7793 64.3847 46.686 64.8233 46.686 65.318C46.686 65.8127 46.7793 66.256 46.966 66.648C47.162 67.0307 47.428 67.334 47.764 67.558C48.1 67.782 48.4873 67.894 48.926 67.894ZM54.7751 69V61.65H56.2171V69H54.7751ZM55.4751 60.026C55.1671 60.026 54.9291 59.9467 54.7611 59.788C54.5931 59.6293 54.5091 59.4053 54.5091 59.116C54.5091 58.8453 54.5931 58.626 54.7611 58.458C54.9384 58.29 55.1764 58.206 55.4751 58.206C55.7831 58.206 56.0211 58.2853 56.1891 58.444C56.3571 58.6027 56.4411 58.8267 56.4411 59.116C56.4411 59.3867 56.3524 59.606 56.1751 59.774C56.0071 59.942 55.7737 60.026 55.4751 60.026ZM61.5555 69.14C60.8742 69.14 60.2629 68.972 59.7215 68.636C59.1895 68.3 58.7649 67.8427 58.4475 67.264C58.1395 66.6853 57.9855 66.0367 57.9855 65.318C57.9855 64.5993 58.1395 63.9507 58.4475 63.372C58.7649 62.7933 59.1895 62.336 59.7215 62C60.2629 61.664 60.8742 61.496 61.5555 61.496C62.2089 61.496 62.8015 61.6313 63.3335 61.902C63.8749 62.1633 64.2855 62.5227 64.5655 62.98L63.7675 63.96C63.6182 63.7453 63.4269 63.5493 63.1935 63.372C62.9602 63.1947 62.7129 63.0547 62.4515 62.952C62.1902 62.8493 61.9382 62.798 61.6955 62.798C61.2475 62.798 60.8462 62.91 60.4915 63.134C60.1462 63.3487 59.8709 63.6473 59.6655 64.03C59.4602 64.4127 59.3575 64.842 59.3575 65.318C59.3575 65.794 59.4649 66.2233 59.6795 66.606C59.8942 66.9793 60.1789 67.278 60.5335 67.502C60.8882 67.726 61.2802 67.838 61.7095 67.838C61.9615 67.838 62.2042 67.796 62.4375 67.712C62.6802 67.628 62.9135 67.502 63.1375 67.334C63.3615 67.166 63.5715 66.9607 63.7675 66.718L64.5655 67.698C64.2669 68.118 63.8375 68.4633 63.2775 68.734C62.7269 69.0047 62.1529 69.14 61.5555 69.14ZM66.1637 69V61.65H67.6057V69H66.1637ZM66.8637 60.026C66.5557 60.026 66.3177 59.9467 66.1497 59.788C65.9817 59.6293 65.8977 59.4053 65.8977 59.116C65.8977 58.8453 65.9817 58.626 66.1497 58.458C66.3271 58.29 66.5651 58.206 66.8637 58.206C67.1717 58.206 67.4097 58.2853 67.5777 58.444C67.7457 58.6027 67.8297 58.8267 67.8297 59.116C67.8297 59.3867 67.7411 59.606 67.5637 59.774C67.3957 59.942 67.1624 60.026 66.8637 60.026ZM69.8222 69V61.65H71.2642V63.162L71.0122 63.33C71.1055 63.0033 71.2875 62.7047 71.5582 62.434C71.8289 62.154 72.1509 61.93 72.5242 61.762C72.8975 61.5847 73.2802 61.496 73.6722 61.496C74.2322 61.496 74.6989 61.608 75.0722 61.832C75.4455 62.0467 75.7255 62.378 75.9122 62.826C76.0989 63.274 76.1922 63.8387 76.1922 64.52V69H74.7502V64.618C74.7502 64.198 74.6942 63.8527 74.5822 63.582C74.4702 63.302 74.2975 63.1013 74.0642 62.98C73.8309 62.8493 73.5415 62.7933 73.1962 62.812C72.9162 62.812 72.6595 62.8587 72.4262 62.952C72.1929 63.036 71.9875 63.1573 71.8102 63.316C71.6422 63.4747 71.5069 63.6613 71.4042 63.876C71.3109 64.0813 71.2642 64.3053 71.2642 64.548V69H70.5502C70.4289 69 70.3075 69 70.1862 69C70.0649 69 69.9435 69 69.8222 69ZM81.5784 69.14C80.8224 69.14 80.1504 68.9813 79.5624 68.664C78.9837 68.3373 78.5264 67.894 78.1904 67.334C77.8637 66.774 77.7004 66.13 77.7004 65.402C77.7004 64.8233 77.7937 64.296 77.9804 63.82C78.167 63.344 78.4237 62.9333 78.7504 62.588C79.0864 62.2333 79.483 61.9627 79.9404 61.776C80.407 61.58 80.911 61.482 81.4524 61.482C81.9284 61.482 82.3717 61.5753 82.7824 61.762C83.193 61.9393 83.5477 62.1867 83.8464 62.504C84.1544 62.8213 84.3877 63.1993 84.5464 63.638C84.7144 64.0673 84.7937 64.5387 84.7844 65.052L84.7704 65.668H78.7644L78.4424 64.52H83.5244L83.3144 64.758V64.422C83.2864 64.114 83.1837 63.8387 83.0064 63.596C82.829 63.3533 82.605 63.162 82.3344 63.022C82.0637 62.882 81.7697 62.812 81.4524 62.812C80.9484 62.812 80.5237 62.91 80.1784 63.106C79.833 63.2927 79.5717 63.5727 79.3944 63.946C79.217 64.31 79.1284 64.7627 79.1284 65.304C79.1284 65.8173 79.2357 66.2653 79.4504 66.648C79.665 67.0213 79.9684 67.3107 80.3604 67.516C80.7524 67.7213 81.205 67.824 81.7184 67.824C82.0824 67.824 82.4184 67.7633 82.7264 67.642C83.0437 67.5207 83.3844 67.3013 83.7484 66.984L84.4764 68.006C84.2524 68.23 83.977 68.426 83.6504 68.594C83.333 68.762 82.9924 68.8973 82.6284 69C82.2737 69.0933 81.9237 69.14 81.5784 69.14Z" fill="#002A50"/>
</svg>
