<svg width="110" height="88" viewBox="0 0 110 88" fill="none" xmlns="http://www.w3.org/2000/svg">
<rect x="0.58667" width="109.043" height="88" rx="12" fill="#FED1DE"/>
<path d="M43.4705 42.36C42.289 42.0719 41.2773 41.5677 40.4362 40.74C40.3224 40.6325 40.2118 40.5121 40.1064 40.3928C39.8524 40.1079 38.2093 38.8813 37.8605 38.7147C35.6188 37.6462 34.4879 35.7735 34.1971 33.3397C33.9845 31.683 34.1441 29.9986 34.6639 28.4141C35.0252 27.2846 35.696 26.2841 36.5968 25.5309C36.7552 25.3755 36.8652 25.1758 36.913 24.9569C37.9838 20.8332 40.3846 17.9823 44.5012 16.8729C45.4444 16.6192 46.4773 16.6837 47.4701 16.6654C47.8495 16.6579 48.1667 16.6321 48.4966 16.4074C50.2503 15.211 52.2327 14.9411 54.2815 15.0099C55.6917 15.0594 57.1102 15.2249 58.3391 15.9645C59.0105 16.3698 59.5732 16.4021 60.3184 16.2763C63.4158 15.7581 66.1845 16.6095 68.6064 18.6273C69.382 19.2723 69.909 20.1129 70.2621 21.0718C70.3263 21.2481 70.4728 21.4578 70.632 21.5233C73.7368 22.8209 75.3177 25.3245 75.9269 28.5549C76.2926 30.4899 76.105 32.3959 75.4421 34.2524C74.8814 35.8262 73.7916 36.8851 72.3688 37.6204C70.261 38.7072 67.993 38.9792 65.6744 38.9383C64.8534 38.9243 64.0345 38.7932 63.2135 38.7373C63.0482 38.7289 62.8852 38.7799 62.7529 38.8813C60.6114 40.7088 58.1283 41.328 55.3934 41.098C55.2568 41.0806 55.1181 41.0994 54.9908 41.1528C52.8756 42.1923 50.8805 43.4167 49.3471 45.2743C48.8275 45.9054 48.4534 46.6718 48.0634 47.4028C47.8632 47.7791 47.6113 47.9887 47.2066 47.9909C45.9082 47.9984 44.6097 48.007 43.3124 47.9909C42.5926 47.9801 42.2701 47.4942 42.5072 46.7933C43.0069 45.3619 43.3305 43.8727 43.4705 42.36ZM55.6569 26.7726C54.7084 25.7137 54.3922 24.5763 54.702 23.4057C54.8791 22.7467 55.5726 22.4661 55.9804 22.9337C56.1554 23.1337 56.2376 23.5218 56.1912 23.7937C56.0005 25.0289 56.4779 25.7287 57.692 25.8792C57.8311 25.8964 57.9713 25.8975 58.1136 25.9115C59.5311 26.0609 60.9349 26.2566 62.2491 26.8768C63.7246 27.5734 64.6974 28.6968 65.081 30.3222C65.6143 32.5797 65.3887 34.7566 64.3359 36.8302C64.2705 36.9603 64.2147 37.0958 64.0903 37.3677C64.8818 37.3677 65.5479 37.3839 66.2119 37.3677C68.0088 37.3151 69.7783 37.1011 71.4351 36.3185C72.7493 35.6972 73.7147 34.7619 74.1341 33.2892C74.835 30.8167 74.6453 28.4431 73.5018 26.1587C72.8621 24.8838 71.8998 23.9227 70.5856 23.2455C70.5477 23.4659 70.516 23.6368 70.4886 23.8088C70.3232 24.9117 69.8605 25.946 69.1523 26.7962C68.8498 27.1606 68.4051 27.209 68.0741 26.9564C67.7116 26.679 67.6589 26.2383 67.9413 25.8169C68.0004 25.7287 68.072 25.6492 68.1353 25.5632C68.7923 24.6855 69.0876 23.5809 68.9583 22.4844C68.829 21.388 68.2853 20.3863 67.4428 19.6926C66.5147 18.9254 65.4368 18.3691 64.2811 18.0608C61.7728 17.3556 59.4541 17.5168 57.536 19.5819C57.4669 19.6576 57.3837 19.7184 57.2912 19.7608C57.1987 19.8032 57.0989 19.8262 56.9975 19.8286C56.8962 19.831 56.7954 19.8127 56.7011 19.7748C56.6068 19.7368 56.5208 19.68 56.4484 19.6077C56.1322 19.3013 56.108 18.8799 56.4168 18.5005C56.7561 18.0823 57.1218 17.6856 57.458 17.3018C55.3639 16.2397 51.6236 16.3429 49.5537 17.5674C48.6852 18.0812 48.0634 18.7939 47.7947 19.8066C47.6419 20.3795 47.2519 20.644 46.8103 20.5193C46.3445 20.3881 46.1379 19.9313 46.3118 19.3368C46.4246 18.9563 46.5827 18.5843 46.7239 18.2027C43.2966 18.0124 39.1241 21.3062 38.7268 24.5054C38.8691 24.4903 39.0061 24.4807 39.141 24.4602C40.8122 24.1928 42.5229 24.3782 44.1018 24.9977C44.6645 25.2127 44.8922 25.6008 44.7425 26.0469C44.5813 26.5307 44.1776 26.6651 43.5716 26.5006C42.8315 26.2837 42.0804 26.1082 41.3215 25.9749C38.4907 25.5342 36.5199 26.8564 35.9529 29.7073C35.7231 30.8618 35.7358 32.0852 35.7811 33.2709C35.818 34.2384 36.2079 35.1468 36.8108 35.9251C37.3112 36.5863 37.9856 37.0889 38.7552 37.3742C38.8353 36.4776 38.8807 35.623 38.9987 34.7802C39.0661 34.304 39.4529 34.0761 39.8882 34.1664C40.3393 34.2599 40.529 34.5717 40.5005 35.0264C40.4879 35.2414 40.4405 35.4564 40.4204 35.6639C40.2792 37.1764 40.412 38.6061 41.6272 39.694C42.312 40.3173 43.1638 40.7175 44.0733 40.8432C44.8838 40.9593 45.0545 41.1592 45.0218 42.0053C45.0188 42.4343 44.9882 42.8628 44.9301 43.2877C44.7583 44.3208 44.5539 45.3485 44.3568 46.4052C44.7267 46.4052 45.1156 46.3676 45.494 46.4128C46.3276 46.5138 46.9863 46.3708 47.2793 45.4302C47.3657 45.155 47.6008 44.9217 47.7841 44.6831C49.0604 43.0254 50.6824 41.7881 52.4467 40.7271L52.8756 40.4691L50.1533 37.7913C48.9614 39.2845 47.5186 39.8338 45.9693 39.3371C44.4474 38.8534 43.3556 37.386 43.246 35.6821C43.2028 35.0189 43.4673 34.6168 43.9711 34.5803C44.4748 34.5437 44.7605 34.8716 44.8016 35.5628C44.8564 36.4658 45.2537 37.1689 46.0199 37.6322C46.8029 38.1052 47.6798 38.0052 48.4133 37.3817C49.1469 36.7582 49.3914 35.9735 49.1142 35.1167C49.0267 34.8458 48.9582 34.5684 48.8792 34.2943C48.2626 32.1271 45.9988 30.8973 43.9258 31.6251C43.4125 31.8057 42.9203 32.0357 42.7717 32.6775C42.6474 33.2096 42.2532 33.4408 41.7926 33.3225C41.3626 33.2086 41.1434 32.7732 41.2657 32.2475C41.5197 31.1897 42.2553 30.5899 43.1891 30.205C46.1348 28.9967 49.463 30.7361 50.3957 33.8686C50.7257 34.976 51.1805 36.0405 51.7511 37.0409C52.5373 38.4169 53.782 39.2834 55.3491 39.478C56.2183 39.5803 57.0972 39.5593 57.9608 39.4156C61.9572 38.7609 64.2084 35.6531 63.7425 31.5574C63.5381 29.7664 62.6391 28.5667 60.9402 28.0669C60.2024 27.8519 59.4331 27.7519 58.6827 27.581C58.064 27.4401 57.4991 27.5982 56.9553 27.8691C56.3693 28.1604 56.265 28.4797 56.5158 29.086C56.7361 29.6159 56.636 30.0244 56.2355 30.2383C55.8139 30.4662 55.3871 30.2932 55.111 29.7761C54.5829 28.7871 54.7495 27.8465 55.6569 26.7747V26.7726Z" fill="#002A50"/>
<path d="M47.9144 25.8527C47.1377 25.6152 46.4073 25.4475 45.7202 25.1669C45.1247 24.9207 44.7832 24.3864 44.6473 23.7296C44.5545 23.2684 44.7674 22.8825 45.1837 22.7707C45.6253 22.6535 45.9805 22.8245 46.108 23.2512C46.2492 23.7232 46.5623 23.9081 46.9786 23.9844C48.2811 24.226 49.6247 24.0623 50.8348 23.5146C51.8624 23.0588 52.1701 22.0601 52.2534 21.0002C52.2671 20.6257 52.2554 20.2507 52.2186 19.8779C52.1902 19.3823 52.4568 19.0082 52.8931 18.9491C53.2947 18.8943 53.6519 19.1824 53.75 19.6382C54.3338 22.3611 52.9237 24.6907 50.272 25.3765C49.5807 25.5571 49.0737 26.66 49.4774 27.2921C49.7156 27.6641 50.1382 27.9543 50.5366 28.1661C51.0214 28.423 51.2669 28.738 51.131 29.1981C50.995 29.6582 50.5966 29.8496 50.0834 29.712C48.4414 29.268 47.5002 27.6834 47.8786 26.0075C47.8986 25.9215 47.9229 25.8377 47.9144 25.8527Z" fill="#002A50"/>
<path d="M55.9555 36.005C53.4156 35.9739 52.192 34.0615 52.2131 31.776C52.2133 31.6722 52.234 31.5696 52.2738 31.4741C52.3137 31.3787 52.3721 31.2924 52.4453 31.2204C52.5185 31.1484 52.6052 31.0921 52.7002 31.055C52.7952 31.0178 52.8966 31.0006 52.9982 31.0042C53.4198 31.0106 53.7138 31.3181 53.756 31.8007C53.756 31.8534 53.756 31.9082 53.756 31.9609C53.8835 33.9959 55.1904 34.8806 57.0906 34.213C57.5418 34.061 57.9571 33.8151 58.3103 33.4909C58.6635 33.1667 58.9469 32.7713 59.1426 32.3296C59.4166 31.7459 59.8107 31.546 60.2544 31.7545C60.6981 31.9631 60.8098 32.4253 60.558 32.9972C60.155 33.8964 59.5066 34.6583 58.6905 35.1916C57.8743 35.725 56.9248 36.0074 55.9555 36.005Z" fill="#002A50"/>
<path d="M65.1542 24.4187C65.1037 24.7348 65.0878 25.0637 64.993 25.3626C64.8655 25.7679 64.5482 25.97 64.133 25.8893C63.7178 25.8087 63.5006 25.5281 63.5006 25.0885C63.5016 25.0162 63.509 24.9443 63.5228 24.8735C63.8801 22.8879 61.8776 21.785 60.5349 22.2408C59.872 22.4665 59.2555 22.8718 58.6663 23.2696C58.1541 23.6168 57.7294 23.6791 57.4143 23.305C57.0992 22.9309 57.1603 22.4827 57.644 22.0559C59.0141 20.8465 60.5507 20.1983 62.3867 20.7659C64.0508 21.2776 65.1195 22.7267 65.1542 24.4187Z" fill="#002A50"/>
<path d="M69.9302 31.9254C67.4451 31.9254 65.9559 30.7096 65.6935 28.7713C65.6491 28.4179 65.6673 28.0593 65.7472 27.7125C65.8442 27.2889 66.1762 27.1158 66.5904 27.175C66.9888 27.2341 67.2059 27.4921 67.2227 27.9038C67.2364 28.1704 67.1953 28.4413 67.2396 28.7047C67.3956 29.6141 68.1365 30.2226 69.1567 30.3075C70.257 30.4 71.1918 30.0452 71.9369 29.2089C72.2288 28.8799 72.5576 28.7402 72.9634 28.9433C73.4503 29.1874 73.5209 29.7808 73.1131 30.2538C72.1645 31.3621 70.9504 31.906 69.9302 31.9254Z" fill="#002A50"/>
<g filter="url(#filter0_d_24_249)">
<path d="M21.0087 69V59.2H22.3667L28.3587 67.222L28.1347 67.348C28.0974 67.1147 28.0647 66.8627 28.0367 66.592C28.0087 66.312 27.9807 66.018 27.9527 65.71C27.9341 65.3927 27.9154 65.0613 27.8967 64.716C27.8874 64.3613 27.8781 63.9927 27.8687 63.61C27.8594 63.2273 27.8547 62.8307 27.8547 62.42V59.2H29.3667V69H27.9807L22.0867 61.272L22.2407 61.076C22.2874 61.6453 22.3247 62.1307 22.3527 62.532C22.3901 62.924 22.4181 63.26 22.4367 63.54C22.4647 63.8107 22.4834 64.0347 22.4927 64.212C22.5021 64.38 22.5067 64.52 22.5067 64.632C22.5161 64.744 22.5207 64.842 22.5207 64.926V69H21.0087ZM35.1763 69.14C34.4203 69.14 33.7483 68.9813 33.1603 68.664C32.5816 68.3373 32.1243 67.894 31.7883 67.334C31.4616 66.774 31.2983 66.13 31.2983 65.402C31.2983 64.8233 31.3916 64.296 31.5783 63.82C31.7649 63.344 32.0216 62.9333 32.3483 62.588C32.6843 62.2333 33.0809 61.9627 33.5383 61.776C34.0049 61.58 34.5089 61.482 35.0503 61.482C35.5263 61.482 35.9696 61.5753 36.3803 61.762C36.7909 61.9393 37.1456 62.1867 37.4443 62.504C37.7523 62.8213 37.9856 63.1993 38.1443 63.638C38.3123 64.0673 38.3916 64.5387 38.3823 65.052L38.3683 65.668H32.3623L32.0403 64.52H37.1223L36.9123 64.758V64.422C36.8843 64.114 36.7816 63.8387 36.6043 63.596C36.4269 63.3533 36.2029 63.162 35.9323 63.022C35.6616 62.882 35.3676 62.812 35.0503 62.812C34.5463 62.812 34.1216 62.91 33.7763 63.106C33.4309 63.2927 33.1696 63.5727 32.9923 63.946C32.8149 64.31 32.7263 64.7627 32.7263 65.304C32.7263 65.8173 32.8336 66.2653 33.0483 66.648C33.2629 67.0213 33.5663 67.3107 33.9583 67.516C34.3503 67.7213 34.8029 67.824 35.3163 67.824C35.6803 67.824 36.0163 67.7633 36.3243 67.642C36.6416 67.5207 36.9823 67.3013 37.3463 66.984L38.0743 68.006C37.8503 68.23 37.5749 68.426 37.2483 68.594C36.9309 68.762 36.5903 68.8973 36.2263 69C35.8716 69.0933 35.5216 69.14 35.1763 69.14ZM42.5254 69.14C42.0027 69.14 41.5454 69.0187 41.1534 68.776C40.7707 68.5333 40.4721 68.1927 40.2574 67.754C40.0521 67.3153 39.9494 66.7927 39.9494 66.186V61.65H41.3914V65.794C41.3914 66.2233 41.4567 66.5967 41.5874 66.914C41.7274 67.222 41.9234 67.46 42.1754 67.628C42.4367 67.796 42.7494 67.88 43.1134 67.88C43.3841 67.88 43.6314 67.838 43.8554 67.754C44.0794 67.6607 44.2707 67.5347 44.4294 67.376C44.5974 67.2173 44.7281 67.026 44.8214 66.802C44.9147 66.578 44.9614 66.3353 44.9614 66.074V61.65H46.4034V69H44.9614V67.46L45.2134 67.292C45.1014 67.6373 44.9101 67.95 44.6394 68.23C44.3781 68.51 44.0654 68.734 43.7014 68.902C43.3374 69.0607 42.9454 69.14 42.5254 69.14ZM48.426 69V61.65H49.882V63.96L49.742 63.4C49.8446 63.0453 50.0173 62.7233 50.26 62.434C50.512 62.1447 50.7966 61.916 51.114 61.748C51.4406 61.58 51.7766 61.496 52.122 61.496C52.2806 61.496 52.43 61.51 52.57 61.538C52.7193 61.566 52.836 61.5987 52.92 61.636L52.542 63.204C52.43 63.1573 52.304 63.12 52.164 63.092C52.0333 63.0547 51.9026 63.036 51.772 63.036C51.52 63.036 51.2773 63.0873 51.044 63.19C50.82 63.2833 50.6193 63.4187 50.442 63.596C50.274 63.764 50.1386 63.9647 50.036 64.198C49.9333 64.422 49.882 64.6693 49.882 64.94V69H48.426ZM57.062 69.14C56.3433 69.14 55.6993 68.9767 55.13 68.65C54.57 68.314 54.1267 67.8613 53.8 67.292C53.4733 66.7133 53.31 66.0553 53.31 65.318C53.31 64.5807 53.4733 63.9273 53.8 63.358C54.1267 62.7793 54.57 62.3267 55.13 62C55.6993 61.664 56.3433 61.496 57.062 61.496C57.7713 61.496 58.406 61.664 58.966 62C59.5353 62.3267 59.9833 62.7793 60.31 63.358C60.6367 63.9273 60.8 64.5807 60.8 65.318C60.8 66.0553 60.6367 66.7133 60.31 67.292C59.9833 67.8613 59.5353 68.314 58.966 68.65C58.406 68.9767 57.7713 69.14 57.062 69.14ZM57.062 67.824C57.5007 67.824 57.8927 67.7167 58.238 67.502C58.5833 67.278 58.854 66.9793 59.05 66.606C59.246 66.2233 59.3393 65.794 59.33 65.318C59.3393 64.8327 59.246 64.4033 59.05 64.03C58.854 63.6473 58.5833 63.3487 58.238 63.134C57.8927 62.9193 57.5007 62.812 57.062 62.812C56.6233 62.812 56.2267 62.924 55.872 63.148C55.5267 63.3627 55.256 63.6613 55.06 64.044C54.864 64.4173 54.7707 64.842 54.78 65.318C54.7707 65.794 54.864 66.2233 55.06 66.606C55.256 66.9793 55.5267 67.278 55.872 67.502C56.2267 67.7167 56.6233 67.824 57.062 67.824ZM62.3993 69V58.64H63.8413V69H62.3993ZM69.0522 69.14C68.3336 69.14 67.6896 68.9767 67.1202 68.65C66.5602 68.314 66.1169 67.8613 65.7902 67.292C65.4636 66.7133 65.3002 66.0553 65.3002 65.318C65.3002 64.5807 65.4636 63.9273 65.7902 63.358C66.1169 62.7793 66.5602 62.3267 67.1202 62C67.6896 61.664 68.3336 61.496 69.0522 61.496C69.7616 61.496 70.3962 61.664 70.9562 62C71.5256 62.3267 71.9736 62.7793 72.3002 63.358C72.6269 63.9273 72.7902 64.5807 72.7902 65.318C72.7902 66.0553 72.6269 66.7133 72.3002 67.292C71.9736 67.8613 71.5256 68.314 70.9562 68.65C70.3962 68.9767 69.7616 69.14 69.0522 69.14ZM69.0522 67.824C69.4909 67.824 69.8829 67.7167 70.2282 67.502C70.5736 67.278 70.8442 66.9793 71.0402 66.606C71.2362 66.2233 71.3296 65.794 71.3202 65.318C71.3296 64.8327 71.2362 64.4033 71.0402 64.03C70.8442 63.6473 70.5736 63.3487 70.2282 63.134C69.8829 62.9193 69.4909 62.812 69.0522 62.812C68.6136 62.812 68.2169 62.924 67.8622 63.148C67.5169 63.3627 67.2462 63.6613 67.0502 64.044C66.8542 64.4173 66.7609 64.842 66.7702 65.318C66.7609 65.794 66.8542 66.2233 67.0502 66.606C67.2462 66.9793 67.5169 67.278 67.8622 67.502C68.2169 67.7167 68.6136 67.824 69.0522 67.824ZM77.6515 72.22C77.1288 72.22 76.6062 72.136 76.0835 71.968C75.5702 71.8093 75.1548 71.5993 74.8375 71.338L75.3695 70.218C75.5562 70.358 75.7755 70.4793 76.0275 70.582C76.2795 70.694 76.5455 70.778 76.8255 70.834C77.1055 70.8993 77.3808 70.932 77.6515 70.932C78.1648 70.932 78.5942 70.848 78.9395 70.68C79.2848 70.512 79.5462 70.2647 79.7235 69.938C79.9008 69.6113 79.9895 69.2053 79.9895 68.72V67.306L80.1435 67.404C80.0968 67.6933 79.9428 67.9733 79.6815 68.244C79.4295 68.5053 79.1122 68.72 78.7295 68.888C78.3468 69.056 77.9548 69.14 77.5535 69.14C76.8535 69.14 76.2282 68.9767 75.6775 68.65C75.1362 68.314 74.7068 67.8613 74.3895 67.292C74.0722 66.7133 73.9135 66.0553 73.9135 65.318C73.9135 64.5807 74.0675 63.9273 74.3755 63.358C74.6928 62.7793 75.1222 62.3267 75.6635 62C76.2142 61.664 76.8302 61.496 77.5115 61.496C77.7915 61.496 78.0622 61.5333 78.3235 61.608C78.5848 61.6733 78.8275 61.7713 79.0515 61.902C79.2755 62.0233 79.4762 62.1587 79.6535 62.308C79.8308 62.4573 79.9755 62.616 80.0875 62.784C80.1995 62.952 80.2695 63.1107 80.2975 63.26L79.9895 63.372V61.65H81.4315V68.552C81.4315 69.14 81.3428 69.658 81.1655 70.106C80.9975 70.5633 80.7502 70.946 80.4235 71.254C80.0968 71.5713 79.7002 71.8093 79.2335 71.968C78.7668 72.136 78.2395 72.22 77.6515 72.22ZM77.7075 67.81C78.1648 67.81 78.5708 67.7027 78.9255 67.488C79.2802 67.2733 79.5555 66.9793 79.7515 66.606C79.9475 66.2327 80.0455 65.8033 80.0455 65.318C80.0455 64.8327 79.9428 64.4033 79.7375 64.03C79.5415 63.6473 79.2662 63.3487 78.9115 63.134C78.5662 62.9193 78.1648 62.812 77.7075 62.812C77.2595 62.812 76.8582 62.924 76.5035 63.148C76.1582 63.3627 75.8828 63.6613 75.6775 64.044C75.4815 64.4173 75.3835 64.842 75.3835 65.318C75.3835 65.794 75.4815 66.2233 75.6775 66.606C75.8828 66.9793 76.1582 67.2733 76.5035 67.488C76.8582 67.7027 77.2595 67.81 77.7075 67.81ZM84.6853 72.22L86.1693 68.79L86.1833 69.938L82.5153 61.65H84.1953L86.4913 67.054C86.538 67.1473 86.594 67.292 86.6593 67.488C86.7246 67.6747 86.7806 67.8613 86.8273 68.048L86.4633 68.132C86.538 67.936 86.608 67.74 86.6733 67.544C86.748 67.348 86.818 67.152 86.8833 66.956L88.8013 61.65H90.5093L87.4853 69L86.2393 72.22H84.6853Z" fill="#002A50"/>
</g>
<defs>
<filter id="filter0_d_24_249" x="17.0088" y="58.6399" width="77.5005" height="21.5801" filterUnits="userSpaceOnUse" color-interpolation-filters="sRGB">
<feFlood flood-opacity="0" result="BackgroundImageFix"/>
<feColorMatrix in="SourceAlpha" type="matrix" values="0 0 0 0 0 0 0 0 0 0 0 0 0 0 0 0 0 0 127 0" result="hardAlpha"/>
<feOffset dy="4"/>
<feGaussianBlur stdDeviation="2"/>
<feComposite in2="hardAlpha" operator="out"/>
<feColorMatrix type="matrix" values="0 0 0 0 0 0 0 0 0 0 0 0 0 0 0 0 0 0 0.25 0"/>
<feBlend mode="normal" in2="BackgroundImageFix" result="effect1_dropShadow_24_249"/>
<feBlend mode="normal" in="SourceGraphic" in2="effect1_dropShadow_24_249" result="shape"/>
</filter>
</defs>
</svg>
