<svg width="110" height="88" viewBox="0 0 110 88" fill="none" xmlns="http://www.w3.org/2000/svg">
<rect x="0.5" width="109.043" height="88" rx="12" fill="#F0DAFC"/>
<path d="M75.5388 36.9672C73.3041 32.3292 71.0695 27.6069 68.9473 23.0392L68.4272 21.9148C67.6121 20.3407 66.8672 18.7666 66.1364 17.1925L65.7147 16.3071L65.2509 15.3935H65.0963C61.9476 16.809 58.5275 17.5189 55.0755 17.4736C51.636 17.3778 48.2552 16.559 45.153 15.0703L45.0546 15L44.619 15.7871C44.366 16.3352 44.0989 16.8833 43.846 17.4174L42.0892 21.0996C39.6156 26.2717 37.0576 31.6264 34.5278 36.8969C34.3896 37.1128 34.3283 37.369 34.3538 37.624C34.3793 37.8791 34.4901 38.1181 34.6684 38.3023C37.8441 42.3292 42.1511 45.3148 47.0363 46.8756C49.4186 47.6273 51.9028 48.0066 54.4009 47.9999C57.322 47.963 60.2212 47.4893 63.0022 46.5945C67.8425 45.1658 72.1448 42.322 75.3561 38.4288C75.5373 38.2359 75.6526 37.9904 75.6854 37.7277C75.7183 37.4651 75.6669 37.1988 75.5388 36.9672ZM45.7714 17.5579C45.8123 17.512 45.8455 17.4598 45.8698 17.4033C51.7719 19.895 58.4082 20.0108 64.3936 17.7266L66.4737 22.1256C68.7786 26.9744 71.1679 31.9638 73.5009 36.939C73.618 37.1055 73.6698 37.3091 73.6465 37.5113C73.6232 37.7134 73.5263 37.8999 73.3744 38.0353C69.9154 41.8341 65.3466 44.4456 60.3178 45.4982C58.3298 45.9499 56.2989 46.1855 54.2603 46.2009C51.8376 46.2012 49.4309 45.8072 47.1347 45.0344C43.0457 43.649 39.4114 41.1759 36.622 37.8807C36.4989 37.7723 36.4186 37.6236 36.3954 37.4613C36.3722 37.299 36.4077 37.1337 36.4955 36.9953L40.7118 28.1972L43.5368 22.2521L45.6168 17.8531C45.6738 17.7576 45.7254 17.6591 45.7714 17.5579Z" fill="#002A50"/>
<path d="M46.6588 30.994C46.1381 32.1525 45.9241 33.4255 46.0373 34.6906C46.1505 35.9557 46.5872 37.1704 47.3053 38.218C48.8006 40.4 50.8737 42.1227 53.2925 43.1933C54.6217 43.7762 56.0574 44.0772 57.5088 44.0772C58.9603 44.0772 60.396 43.7762 61.7252 43.1933C62.5065 42.9029 63.1603 42.3462 63.5716 41.6213C63.9829 40.8964 64.1254 40.0496 63.9739 39.2299C63.9036 38.7769 63.7809 38.3336 63.6085 37.9088C63.6085 37.7683 63.5101 37.6418 63.4679 37.5153C65.3934 37.2904 66.6021 36.0115 67.1362 33.6082C67.232 33.3221 67.2513 33.0158 67.1921 32.72C67.133 32.4241 66.9974 32.1488 66.7989 31.9216C66.5684 31.7338 66.293 31.6091 65.9998 31.5598C65.7066 31.5105 65.4056 31.5384 65.1264 31.6405C63.2127 32.1064 61.1925 31.7983 59.5046 30.7832C59.2797 30.6708 59.1954 30.5583 59.2375 30.2351C59.3393 29.6757 59.2225 29.0985 58.9113 28.6226C58.6002 28.1467 58.1183 27.8083 57.5651 27.6772C57.1477 27.5864 56.7253 27.5207 56.3002 27.4804V27.129C56.3214 26.7405 56.3214 26.3511 56.3002 25.9625C56.2556 25.3979 56.1616 24.8382 56.0191 24.29C55.8473 23.6206 55.5372 22.9946 55.1087 22.4524C54.6803 21.9102 54.143 21.4637 53.5314 21.1418C51.9945 20.3627 50.2136 20.2164 48.5702 20.7343C47.6743 21.0523 46.872 21.5891 46.2363 22.296C45.6006 23.0029 45.1516 23.8574 44.9301 24.7819C44.7086 25.7223 44.7333 26.7039 45.0016 27.632C45.2699 28.5601 45.7729 29.4034 46.462 30.0805C46.6011 30.1822 46.698 30.3314 46.7343 30.4998C46.7705 30.6682 46.7437 30.8441 46.6588 30.994ZM54.1358 29.1248C53.8966 29.5395 53.5555 29.8863 53.1447 30.1323C52.734 30.3783 52.2672 30.5152 51.7887 30.5302H51.6341C51.5551 30.5117 51.4732 30.5096 51.3934 30.5241C51.3136 30.5386 51.2376 30.5694 51.1703 30.6146C51.1703 30.6146 50.58 31.1205 50.6784 31.4297C50.7432 31.5968 50.8453 31.7469 50.9768 31.8686C51.1083 31.9904 51.2658 32.0806 51.4373 32.1324C52.3041 32.1934 53.1693 31.993 53.9209 31.557C54.6726 31.121 55.2762 30.4696 55.6537 29.687C55.8504 29.2794 56.1596 28.9702 57.0591 29.3497C57.4526 29.5183 57.6634 29.7572 57.4667 30.46C57.1842 31.5717 56.6613 32.608 55.9347 33.4957C55.7528 33.7151 55.5216 33.8884 55.2601 34.0017C55.0063 34.1227 54.7255 34.1759 54.445 34.1563C53.9109 34.1563 53.3768 34.1563 52.8568 34.1563H52.4071C52.2921 34.1416 52.1753 34.1524 52.0651 34.1881C51.9548 34.2237 51.8538 34.2833 51.7692 34.3625C51.6846 34.4417 51.6186 34.5386 51.5758 34.6463C51.533 34.754 51.5145 34.8698 51.5216 34.9855C51.5216 35.2806 51.6481 35.7725 52.4211 35.7725H54.8947L55.0634 36.2785C55.2461 36.8126 55.4147 37.3326 55.6115 37.8526C55.7001 38.0521 55.8186 38.2369 55.9629 38.4007C56.0183 38.4961 56.0943 38.578 56.1852 38.6404C56.2762 38.7029 56.3798 38.7443 56.4888 38.7618C56.5977 38.7793 56.7092 38.7724 56.8151 38.7415C56.921 38.7107 57.0188 38.6567 57.1013 38.5834C57.4526 38.3024 57.4948 37.9229 57.2418 37.4169C57.0302 37.064 56.8514 36.6923 56.7077 36.3066C56.5565 36.0201 56.5088 35.6902 56.5729 35.3726C56.6369 35.0551 56.8087 34.7694 57.0591 34.5639C57.5411 34.0785 57.9484 33.5244 58.2678 32.9195C58.4083 32.6946 58.5489 32.4557 58.7035 32.2308C60.7812 33.4338 63.2421 33.7911 65.5761 33.2287C65.5718 33.5856 65.4948 33.938 65.3498 34.2642C65.2048 34.5904 64.9949 34.8836 64.7328 35.126C64.4451 35.4221 64.0958 35.6511 63.7095 35.7968C63.3233 35.9426 62.9097 36.0015 62.4982 35.9693H62.0484C61.7988 35.9181 61.5443 35.8945 61.2895 35.899C60.9888 35.9296 60.7116 36.0757 60.5165 36.3066C60.39 36.5737 60.6711 37.0515 60.8398 37.2483C61.0179 37.4365 61.2106 37.6103 61.416 37.7683C61.6771 37.9747 61.9088 38.2159 62.1047 38.4851C62.2901 38.7442 62.4163 39.0409 62.4746 39.3541C62.5329 39.6674 62.5218 39.9896 62.442 40.2981C62.3617 40.5757 62.2221 40.8326 62.0329 41.051C61.8436 41.2694 61.6091 41.4441 61.3457 41.563C60.2543 42.0888 59.0641 42.3782 57.8531 42.4121C56.6421 42.446 55.4376 42.2237 54.3185 41.7598C52.0434 40.8454 50.0882 39.2811 48.6967 37.2623C48.0712 36.3582 47.7119 35.2967 47.6597 34.1985C47.6075 33.1004 47.8645 32.0096 48.4015 31.0502C48.8091 30.1086 48.7951 30.0383 48.0502 29.3497C47.2797 28.7812 46.7374 27.9564 46.521 27.0237C46.3045 26.0909 46.4282 25.1116 46.8696 24.2619C47.2188 23.5922 47.746 23.0318 48.3932 22.6425C49.0404 22.2532 49.7826 22.05 50.5378 22.0554C50.7203 22.0414 50.9035 22.0414 51.086 22.0554C51.8129 22.1379 52.5067 22.4045 53.1019 22.83C53.697 23.2554 54.1738 23.8257 54.4871 24.4868C54.8245 25.2268 54.9693 26.04 54.9078 26.851C54.8464 27.6619 54.5808 28.4441 54.1358 29.1248Z" fill="#002A50"/>
<path d="M44.8961 69.14C44.2055 69.14 43.5661 69.014 42.9781 68.762C42.3995 68.51 41.8908 68.16 41.4521 67.712C41.0228 67.2547 40.6868 66.7227 40.4441 66.116C40.2108 65.5 40.0941 64.828 40.0941 64.1C40.0941 63.372 40.2108 62.7047 40.4441 62.098C40.6868 61.482 41.0228 60.95 41.4521 60.502C41.8908 60.0447 42.3995 59.69 42.9781 59.438C43.5661 59.186 44.2055 59.06 44.8961 59.06C45.5868 59.06 46.2215 59.186 46.8001 59.438C47.3881 59.69 47.8968 60.0447 48.3261 60.502C48.7648 60.9593 49.1008 61.496 49.3341 62.112C49.5768 62.7187 49.6981 63.3813 49.6981 64.1C49.6981 64.8187 49.5768 65.486 49.3341 66.102C49.1008 66.7087 48.7648 67.2407 48.3261 67.698C47.8968 68.1553 47.3881 68.51 46.8001 68.762C46.2215 69.014 45.5868 69.14 44.8961 69.14ZM44.8961 67.67C45.3721 67.67 45.8061 67.5813 46.1981 67.404C46.5995 67.2267 46.9448 66.9793 47.2341 66.662C47.5235 66.3353 47.7475 65.9573 47.9061 65.528C48.0741 65.0893 48.1581 64.6133 48.1581 64.1C48.1581 63.5867 48.0741 63.1153 47.9061 62.686C47.7475 62.2473 47.5235 61.8693 47.2341 61.552C46.9448 61.2253 46.5995 60.9733 46.1981 60.796C45.8061 60.6187 45.3721 60.53 44.8961 60.53C44.4201 60.53 43.9815 60.6187 43.5801 60.796C43.1881 60.9733 42.8428 61.2207 42.5441 61.538C42.2548 61.8553 42.0308 62.2333 41.8721 62.672C41.7135 63.1013 41.6341 63.5773 41.6341 64.1C41.6341 64.6133 41.7135 65.0893 41.8721 65.528C42.0308 65.9667 42.2548 66.3447 42.5441 66.662C42.8428 66.9793 43.1881 67.2267 43.5801 67.404C43.9815 67.5813 44.4201 67.67 44.8961 67.67ZM51.7453 69V59.2H55.8333C56.4586 59.2 56.986 59.2933 57.4153 59.48C57.8446 59.6667 58.1666 59.9467 58.3813 60.32C58.6053 60.684 58.7173 61.132 58.7173 61.664C58.7173 62.196 58.568 62.6487 58.2693 63.022C57.98 63.3953 57.574 63.652 57.0513 63.792V63.512C57.49 63.6053 57.8726 63.7733 58.1993 64.016C58.526 64.2493 58.778 64.5433 58.9553 64.898C59.142 65.2527 59.2353 65.6587 59.2353 66.116C59.2353 66.5827 59.1606 66.998 59.0113 67.362C58.8713 67.7167 58.6566 68.0153 58.3673 68.258C58.0873 68.5007 57.7466 68.6873 57.3453 68.818C56.944 68.9393 56.4866 69 55.9733 69H51.7453ZM53.2573 67.544H55.8893C56.272 67.544 56.594 67.488 56.8553 67.376C57.126 67.264 57.3313 67.1007 57.4713 66.886C57.6206 66.662 57.6953 66.396 57.6953 66.088C57.6953 65.7987 57.616 65.5513 57.4573 65.346C57.308 65.1407 57.0933 64.9867 56.8133 64.884C56.5333 64.772 56.202 64.716 55.8193 64.716H53.2573V67.544ZM53.2573 63.26H55.7493C56.0293 63.26 56.2766 63.204 56.4913 63.092C56.7153 62.98 56.888 62.826 57.0093 62.63C57.14 62.434 57.2053 62.21 57.2053 61.958C57.2053 61.538 57.0653 61.216 56.7853 60.992C56.5053 60.768 56.104 60.656 55.5813 60.656H53.2573V63.26ZM65.6566 69.14C64.9473 69.14 64.2846 69.014 63.6686 68.762C63.0526 68.5007 62.5113 68.1413 62.0446 67.684C61.5779 67.2267 61.2139 66.6947 60.9526 66.088C60.7006 65.472 60.5746 64.8093 60.5746 64.1C60.5746 63.4 60.7006 62.7467 60.9526 62.14C61.2139 61.5333 61.5733 61.006 62.0306 60.558C62.4973 60.1007 63.0386 59.746 63.6546 59.494C64.2706 59.242 64.9333 59.116 65.6426 59.116C66.1373 59.116 66.6179 59.186 67.0846 59.326C67.5606 59.466 67.9899 59.662 68.3726 59.914C68.7553 60.166 69.0679 60.4553 69.3106 60.782L68.3306 61.804C68.0506 61.5333 67.7613 61.3093 67.4626 61.132C67.1733 60.9547 66.8746 60.8193 66.5666 60.726C66.2586 60.6327 65.9506 60.586 65.6426 60.586C65.1386 60.586 64.6719 60.6747 64.2426 60.852C63.8226 61.0293 63.4493 61.2767 63.1226 61.594C62.8053 61.9113 62.5579 62.2847 62.3806 62.714C62.2033 63.134 62.1146 63.596 62.1146 64.1C62.1146 64.5853 62.2079 65.0473 62.3946 65.486C62.5813 65.9153 62.8379 66.2933 63.1646 66.62C63.5006 66.9467 63.8833 67.2033 64.3126 67.39C64.7513 67.5767 65.2133 67.67 65.6986 67.67C66.0626 67.67 66.4079 67.6187 66.7346 67.516C67.0613 67.404 67.3506 67.25 67.6026 67.054C67.8546 66.858 68.0506 66.634 68.1906 66.382C68.3306 66.1207 68.4006 65.8453 68.4006 65.556V65.276L68.6106 65.472H65.6146V63.974H69.9546C69.9733 64.0767 69.9873 64.1793 69.9966 64.282C70.0059 64.3753 70.0106 64.4687 70.0106 64.562C70.0199 64.646 70.0246 64.73 70.0246 64.814C70.0246 65.458 69.9126 66.046 69.6886 66.578C69.4646 67.1007 69.1519 67.5533 68.7506 67.936C68.3586 68.3187 67.8966 68.6173 67.3646 68.832C66.8419 69.0373 66.2726 69.14 65.6566 69.14Z" fill="#002A50"/>
</svg>
