<svg width="110" height="88" viewBox="0 0 110 88" fill="none" xmlns="http://www.w3.org/2000/svg">
<rect x="0.41333" width="109.043" height="88" rx="12" fill="#FFE3DE"/>
<path d="M67.7719 19.1409C67.2243 19.0245 66.6634 18.9353 66.1352 18.8545C66.0276 18.8375 66.0082 18.8214 65.9756 18.7211C65.7934 18.1593 65.4336 17.6665 64.9465 17.3114C64.6088 17.0616 64.1926 17.0854 63.9342 17.3675C63.8713 17.4346 63.8232 17.5133 63.7928 17.599C63.7625 17.6846 63.7506 17.7752 63.7578 17.8654C63.767 17.9646 63.797 18.0609 63.8459 18.1485C63.8949 18.2362 63.9618 18.3133 64.0427 18.3753C64.5435 18.7764 64.7569 19.2989 64.697 19.9745C64.5709 21.3808 64.3442 22.5237 63.9836 23.5664C63.7896 24.1264 63.4298 24.485 62.913 24.632C62.6196 24.7104 62.3148 24.7414 62.0109 24.7237C58.694 24.576 55.4112 24.0121 52.2455 23.0463C51.324 22.7634 50.8963 22.1762 50.9369 21.2508C50.9973 20.0393 51.2096 18.8392 51.5692 17.6768C51.72 17.1763 52.0101 16.799 52.4069 16.5857C52.8037 16.3724 53.2887 16.3308 53.802 16.4795C55.6477 17.0109 57.5309 17.4127 59.4369 17.6819C60.3187 17.8 61.1794 17.8833 62.1379 17.9725C62.2348 17.9838 62.3331 17.9764 62.427 17.9505C62.5209 17.9247 62.6085 17.881 62.6846 17.8221C62.756 17.7637 62.8145 17.6923 62.8569 17.6119C62.8993 17.5315 62.9247 17.4438 62.9316 17.3539C62.9651 16.9859 62.6882 16.6741 62.2737 16.6078C62.229 16.6015 62.1839 16.5978 62.1388 16.5968C62.115 16.5968 62.0912 16.5968 62.0674 16.5968C61.8125 16.5679 61.5577 16.5407 61.3019 16.5118C60.7252 16.4489 60.1291 16.3852 59.5462 16.3061C57.5691 16.0368 55.6662 15.5584 54.07 15.1267C52.8619 14.7995 51.7694 15.1088 50.9113 16.0215C50.7411 16.2025 50.6389 16.2356 50.3867 16.1914L50.0427 16.1277C49.5136 16.0274 48.9616 15.9246 48.4131 15.9458C47.6944 15.9679 47.0109 16.2506 46.4993 16.7374C45.9877 17.2243 45.6857 17.8794 45.6539 18.5716C45.5851 20.0535 46.6071 21.2729 48.1406 21.538L49.4889 21.7717L49.832 22.8645C48.5789 24.1816 48.3249 25.3356 48.8796 27.1829L48.7279 27.3528C48.5084 27.5993 48.3011 27.833 48.0895 28.0556C48.066 28.0689 48.0392 28.076 48.0119 28.076C47.4458 28.0386 46.8902 27.991 46.4696 27.9494C44.9026 27.8041 43.4396 28.9181 43.2747 30.3839C43.2265 30.7672 43.2576 31.1559 43.3663 31.5276C43.475 31.8992 43.659 32.2464 43.9078 32.549C44.1465 32.8331 44.4413 33.0687 44.775 33.2422C45.1088 33.4158 45.4749 33.5239 45.8523 33.5603C46.0851 33.584 46.3214 33.6036 46.5489 33.6231C46.7958 33.6435 47.0507 33.6648 47.2994 33.692C47.3275 33.6958 47.355 33.703 47.3814 33.7132C47.5285 34.3569 47.8794 34.9407 48.3858 35.3838C47.8152 36.5905 47.8355 37.7877 48.4449 38.9485L48.3214 39.1066C48.155 39.3047 48.0005 39.5118 47.8584 39.7269C47.7888 39.8373 47.75 39.8526 47.6345 39.8501H47.4696C46.9555 39.8433 46.4237 39.8348 45.8981 39.8671C45.1825 39.9162 44.5111 40.2193 44.014 40.7178C43.5168 41.2163 43.2292 41.8748 43.2068 42.5659C43.1671 44.0538 44.265 45.2944 45.7526 45.455C46.2354 45.4973 46.7204 45.5118 47.205 45.4983H47.4943C47.6168 45.4983 47.6204 45.4983 47.6539 45.6046C47.8817 46.3108 48.3819 46.906 49.0516 47.2675C49.7182 47.6423 50.0489 47.2786 50.16 47.1044C50.2096 47.0322 50.2435 46.9511 50.2598 46.866C50.276 46.7808 50.2741 46.6934 50.2544 46.609C50.2032 46.4093 50.0471 46.2334 49.7897 46.0864C49.5537 45.9581 49.3527 45.7778 49.2031 45.5603C49.0535 45.3427 48.9596 45.094 48.929 44.8347C48.7526 43.6969 48.7412 42.48 48.8875 41.1137C48.9422 40.6038 49.1583 40.1891 49.511 39.9155C49.8796 39.6291 50.3761 39.5102 50.9457 39.5705C51.8664 39.6699 52.8355 39.7405 53.8258 39.7897C55.9966 39.8834 58.1716 39.8058 60.3293 39.5578C61.2728 39.4507 62.0771 40.0676 62.1996 40.9947C62.3695 42.2709 62.3641 43.5632 62.1838 44.8381C62.0709 45.6224 61.51 46.1756 60.7182 46.2827C58.5039 46.5815 56.2658 46.6839 54.0321 46.5886C53.5912 46.569 53.1503 46.5384 52.7173 46.5087C52.4645 46.4906 52.2114 46.4739 51.9581 46.4586C51.503 46.4314 51.1724 46.6769 51.1336 47.0712C51.0948 47.4655 51.347 47.7604 51.7755 47.8199C51.9272 47.8411 52.0806 47.8521 52.2279 47.8623L52.3805 47.8734L53.5198 47.9635L53.9907 48H57.1617L57.2393 47.9822C57.2788 47.9721 57.3188 47.9645 57.3593 47.9592C57.7243 47.9286 58.0903 47.9006 58.4554 47.8742C59.1988 47.8165 59.9668 47.757 60.7208 47.678C62.0771 47.5369 63.0268 46.8138 63.4659 45.5876C63.4731 45.561 63.4853 45.5359 63.5021 45.5136C63.5271 45.5058 63.5536 45.5035 63.5797 45.5068C63.9968 45.5153 64.4889 45.5221 64.9809 45.5068C66.6564 45.4525 67.9104 44.2322 67.9086 42.6763C67.9086 41.1001 66.6282 39.8892 64.9368 39.8603L64.6987 39.8552C64.3737 39.8409 64.048 39.8449 63.7234 39.8671C63.398 39.8951 63.2525 39.8212 63.1485 39.5756C63.0991 39.4734 63.0317 39.3802 62.9492 39.3003C62.9089 39.2597 62.8726 39.2156 62.8407 39.1686C62.8249 39.1412 62.8155 39.1107 62.8134 39.0794C63.0437 38.5668 63.1605 38.0136 63.1562 37.4551C63.152 36.8966 63.0268 36.3451 62.7887 35.8359C62.7863 35.8212 62.7863 35.8063 62.7887 35.7917C62.9051 35.5843 63.0303 35.3821 63.1617 35.168C63.1864 35.1297 63.2102 35.0898 63.234 35.0507C63.3725 35.0609 63.5118 35.0728 63.6511 35.0847C64.0691 35.1204 64.5003 35.1561 64.9333 35.1637C66.4165 35.1875 67.7313 34.065 67.8566 32.6595C67.9915 31.13 66.9527 29.8078 65.4403 29.5783C65.0391 29.518 64.6299 29.4849 64.2349 29.4526C64.0329 29.4356 63.8248 29.4186 63.6176 29.3982C63.5459 29.3607 63.4895 29.3008 63.458 29.2282C63.409 29.1521 63.3878 29.0624 63.398 28.9733C64.2349 27.9749 64.5259 26.8218 64.2622 25.548C64.2591 25.532 64.2591 25.5156 64.2622 25.4996C64.5109 25.2234 64.7684 24.9498 65.0409 24.66L65.234 24.4544L65.5365 24.5045C65.8892 24.5614 66.2666 24.6243 66.6485 24.6838C67.3999 24.8048 68.1707 24.6385 68.7968 24.2201C69.4229 23.8018 69.8548 23.1645 70.0006 22.444C70.1465 21.7234 69.9947 20.9764 69.5776 20.362C69.1605 19.7477 68.5111 19.3144 67.7675 19.1545L67.7719 19.1409ZM68.5894 22.2195C68.4983 22.5773 68.2701 22.8885 67.9506 23.0908C67.6311 23.293 67.244 23.3712 66.8672 23.3098C66.5391 23.2562 66.2128 23.1993 65.8839 23.1398L65.6555 23.0999L66.1458 20.2447L66.4218 20.2906C66.7878 20.3501 67.1661 20.4113 67.5294 20.5005C67.9045 20.5962 68.2257 20.8299 68.4239 21.1513C68.6221 21.4728 68.6815 21.8563 68.5894 22.2195ZM65.003 33.7701H64.988C64.6176 33.7701 64.2375 33.7353 63.8698 33.7047L63.5841 33.6809L63.8072 30.7748C63.928 30.7884 64.0488 30.7994 64.167 30.8113C64.6047 30.8417 65.0392 30.9065 65.4659 31.0051C66.1264 31.175 66.5435 31.8786 66.4156 32.6C66.3589 32.9233 66.1866 33.2172 65.9286 33.4309C65.6706 33.6446 65.3431 33.7646 65.003 33.7701ZM47.5674 29.4279L47.2694 32.2984C47.1195 32.2856 46.9678 32.2788 46.8196 32.272C46.3576 32.2516 45.9202 32.2321 45.5101 32.052C44.8876 31.7783 44.5498 31.0722 44.7235 30.4085C44.8052 30.1018 44.9886 29.8293 45.2458 29.6323C45.5031 29.4353 45.8201 29.3248 46.1486 29.3175H46.1997C46.5639 29.3311 46.9361 29.3667 47.2958 29.4024L47.5674 29.4279ZM50.0851 17.5315L49.5269 20.3824L49.2262 20.3314C48.8339 20.2746 48.4458 20.1943 48.0639 20.0909C47.3584 19.8844 46.9396 19.1341 47.1239 18.4178C47.2958 17.7473 47.877 17.3037 48.5472 17.3037C48.6153 17.3037 48.6834 17.3082 48.7509 17.3173C49.1133 17.3658 49.4784 17.4278 49.8311 17.4873L50.0851 17.5315ZM49.6441 36.056L50.3381 36.1826C50.9448 36.2947 51.5727 36.4095 52.19 36.5089C54.8495 36.9264 57.5463 37.0807 60.2384 36.9694C60.5058 36.9591 60.7716 36.9241 61.0321 36.8649C61.2117 36.8218 61.3884 36.7681 61.5612 36.7043L61.592 36.6941C61.7739 37.2257 61.7642 37.8008 61.5647 38.3265C60.7076 38.0656 59.8654 38.1744 59.048 38.2789C58.6952 38.3239 58.3372 38.3707 57.9898 38.3851C55.5321 38.4862 53.5074 38.4446 51.6177 38.2534L51.3902 38.2288C51.1106 38.1929 50.8291 38.1725 50.5471 38.1676C50.2718 38.1641 49.9974 38.2005 49.7332 38.2755C49.7233 38.271 49.7138 38.2656 49.705 38.2593C49.518 37.9218 49.4152 37.547 49.4047 37.1646C49.3941 36.7821 49.4761 36.4026 49.6441 36.056ZM60.2517 27.4735C60.1265 27.4735 59.9986 27.4735 59.869 27.4786C57.1873 27.5398 54.3796 27.2857 51.287 26.7011C51.0116 26.66 50.7321 26.6515 50.4545 26.6756L50.2297 26.6858C49.7835 25.8199 50.0339 24.5886 50.7914 23.9122C51.7464 24.4552 52.8082 24.6965 53.8364 24.9319C54.0471 24.9795 54.2588 25.0279 54.4695 25.0789C56.8575 25.6432 59.296 25.9864 61.7517 26.1037C61.9818 26.1156 62.2067 26.1258 62.4316 26.1182C62.5815 26.1139 62.7287 26.0969 62.8848 26.0799H62.8954C62.9434 26.4142 62.9219 26.7544 62.8321 27.0806C62.7424 27.4068 62.5861 27.7125 62.3725 27.98C61.7375 27.5449 61.0312 27.4667 60.2552 27.4667L60.2517 27.4735ZM51.0807 28.0539C54.1766 28.658 57.3326 28.9287 60.4906 28.8612C60.8475 28.8596 61.1995 28.9406 61.5171 29.0974C62.0259 29.3523 62.3107 29.7984 62.3293 30.3924C62.3861 31.6669 62.2708 32.9432 61.9862 34.1891C61.7816 35.0592 61.2226 35.5249 60.3231 35.5742C59.8072 35.603 59.2764 35.5954 58.7623 35.5886C58.5268 35.5886 58.2922 35.5826 58.0568 35.5826C55.4071 35.5798 52.7659 35.2948 50.1812 34.7329C49.3302 34.5468 48.8293 34.0055 48.7703 33.2076C48.6765 31.8738 48.7954 30.5341 49.123 29.235C49.2199 28.8273 49.4807 28.4732 49.8482 28.2505C50.2157 28.0278 50.6599 27.9546 51.0833 28.0471L51.0807 28.0539ZM47.3999 41.2386V44.1464C47.2676 44.1464 47.1353 44.1396 47.0084 44.137C46.5691 44.1408 46.1304 44.1078 45.6971 44.0385C45.0216 43.9085 44.5586 43.2363 44.6389 42.5089C44.6774 42.1746 44.8369 41.8641 45.0895 41.6319C45.3421 41.3997 45.6715 41.2607 46.0198 41.2394C46.2191 41.2284 46.4211 41.2258 46.6239 41.2258C46.7897 41.2258 46.9555 41.2258 47.1186 41.2258L47.3999 41.2386ZM63.7137 44.0895V41.2649C63.8354 41.2649 63.9571 41.259 64.0762 41.2547C64.4998 41.2283 64.925 41.2376 65.3469 41.2828C65.9853 41.3677 66.503 42.0237 66.4765 42.7078C66.4492 43.4114 65.9236 43.9968 65.2552 44.0674C64.8582 44.1015 64.4592 44.1086 64.0612 44.0886C63.9456 44.0878 63.8301 44.0844 63.7129 44.0827L63.7137 44.0895Z" fill="#002A50"/>
<path d="M41.7554 20.4623L42.1902 20.8804C42.9062 21.5698 43.6229 22.2584 44.3401 22.9461C44.4204 23.0292 44.5117 23.1017 44.6117 23.1619C44.7173 23.2207 44.8371 23.2518 44.9591 23.252C45.0789 23.2531 45.1969 23.2238 45.3013 23.167C45.4182 23.0995 45.5145 23.0035 45.5804 22.8886C45.6464 22.7737 45.6797 22.644 45.6769 22.5127V22.46L45.6514 22.4133C45.6452 22.4023 45.6399 22.387 45.6328 22.37C45.5946 22.2648 45.5346 22.1683 45.4565 22.0861C44.4512 21.1064 43.542 20.232 42.6796 19.4128C42.6146 19.3454 42.536 19.2915 42.4486 19.2545C42.3612 19.2174 42.2669 19.198 42.1714 19.1973C42.0759 19.1967 41.9813 19.2149 41.8934 19.2508C41.8055 19.2867 41.7261 19.3395 41.6602 19.406C41.3877 19.6712 41.3904 20.0714 41.6673 20.379C41.6964 20.4062 41.7263 20.4342 41.7554 20.4623Z" fill="#002A50"/>
<path d="M44.2784 25.3177C44.2828 25.2286 44.2684 25.1395 44.2361 25.0558C44.2039 24.9721 44.1544 24.8956 44.0906 24.8308C44.012 24.7577 43.919 24.7004 43.8171 24.6625C43.7151 24.6246 43.6063 24.6067 43.4971 24.6099C42.5271 24.6048 41.5571 24.6048 40.5871 24.6099C40.1365 24.6099 39.8261 24.881 39.8164 25.2795C39.8112 25.3686 39.8249 25.4578 39.8565 25.5416C39.8882 25.6254 39.9373 25.7022 40.0007 25.7672C40.0789 25.8399 40.1716 25.8967 40.2731 25.9342C40.3746 25.9717 40.4829 25.9892 40.5915 25.9856C40.9319 25.9856 41.2767 25.9856 41.6109 25.9856H42.9142C43.1091 25.9856 43.3049 25.9856 43.4989 25.9856C43.9557 25.9797 44.267 25.712 44.2784 25.3177Z" fill="#002A50"/>
<path d="M18.8192 69.14C18.1285 69.14 17.4892 69.014 16.9012 68.762C16.3225 68.51 15.8139 68.16 15.3752 67.712C14.9459 67.2547 14.6099 66.7227 14.3672 66.116C14.1339 65.5 14.0172 64.828 14.0172 64.1C14.0172 63.372 14.1339 62.7047 14.3672 62.098C14.6099 61.482 14.9459 60.95 15.3752 60.502C15.8139 60.0447 16.3225 59.69 16.9012 59.438C17.4892 59.186 18.1285 59.06 18.8192 59.06C19.5099 59.06 20.1445 59.186 20.7232 59.438C21.3112 59.69 21.8199 60.0447 22.2492 60.502C22.6879 60.9593 23.0239 61.496 23.2572 62.112C23.4999 62.7187 23.6212 63.3813 23.6212 64.1C23.6212 64.8187 23.4999 65.486 23.2572 66.102C23.0239 66.7087 22.6879 67.2407 22.2492 67.698C21.8199 68.1553 21.3112 68.51 20.7232 68.762C20.1445 69.014 19.5099 69.14 18.8192 69.14ZM18.8192 67.67C19.2952 67.67 19.7292 67.5813 20.1212 67.404C20.5225 67.2267 20.8679 66.9793 21.1572 66.662C21.4465 66.3353 21.6705 65.9573 21.8292 65.528C21.9972 65.0893 22.0812 64.6133 22.0812 64.1C22.0812 63.5867 21.9972 63.1153 21.8292 62.686C21.6705 62.2473 21.4465 61.8693 21.1572 61.552C20.8679 61.2253 20.5225 60.9733 20.1212 60.796C19.7292 60.6187 19.2952 60.53 18.8192 60.53C18.3432 60.53 17.9045 60.6187 17.5032 60.796C17.1112 60.9733 16.7659 61.2207 16.4672 61.538C16.1779 61.8553 15.9539 62.2333 15.7952 62.672C15.6365 63.1013 15.5572 63.5773 15.5572 64.1C15.5572 64.6133 15.6365 65.0893 15.7952 65.528C15.9539 65.9667 16.1779 66.3447 16.4672 66.662C16.7659 66.9793 17.1112 67.2267 17.5032 67.404C17.9045 67.5813 18.3432 67.67 18.8192 67.67ZM25.3044 69V61.65H26.7604V63.96L26.6204 63.4C26.7231 63.0453 26.8957 62.7233 27.1384 62.434C27.3904 62.1447 27.6751 61.916 27.9924 61.748C28.3191 61.58 28.6551 61.496 29.0004 61.496C29.1591 61.496 29.3084 61.51 29.4484 61.538C29.5977 61.566 29.7144 61.5987 29.7984 61.636L29.4204 63.204C29.3084 63.1573 29.1824 63.12 29.0424 63.092C28.9117 63.0547 28.7811 63.036 28.6504 63.036C28.3984 63.036 28.1557 63.0873 27.9224 63.19C27.6984 63.2833 27.4977 63.4187 27.3204 63.596C27.1524 63.764 27.0171 63.9647 26.9144 64.198C26.8117 64.422 26.7604 64.6693 26.7604 64.94V69H25.3044ZM32.1343 69V59.774H33.5763V69H32.1343ZM30.6083 63.05V61.65H35.2843V63.05H30.6083ZM36.5974 69V58.64H38.0394V63.162L37.7874 63.33C37.8807 63.0033 38.0627 62.7047 38.3334 62.434C38.604 62.154 38.926 61.93 39.2994 61.762C39.6727 61.5847 40.0554 61.496 40.4474 61.496C41.0074 61.496 41.474 61.608 41.8474 61.832C42.2207 62.0467 42.5007 62.378 42.6874 62.826C42.874 63.274 42.9674 63.8387 42.9674 64.52V69H41.5254V64.618C41.5254 64.198 41.4694 63.8527 41.3574 63.582C41.2454 63.302 41.0727 63.1013 40.8394 62.98C40.606 62.8493 40.3167 62.7933 39.9714 62.812C39.6914 62.812 39.4347 62.8587 39.2014 62.952C38.968 63.036 38.7627 63.1573 38.5854 63.316C38.4174 63.4747 38.282 63.6613 38.1794 63.876C38.086 64.0813 38.0394 64.3053 38.0394 64.548V69H37.3254C37.204 69 37.0827 69 36.9614 69C36.84 69 36.7187 69 36.5974 69ZM48.2275 69.14C47.5089 69.14 46.8649 68.9767 46.2955 68.65C45.7355 68.314 45.2922 67.8613 44.9655 67.292C44.6389 66.7133 44.4755 66.0553 44.4755 65.318C44.4755 64.5807 44.6389 63.9273 44.9655 63.358C45.2922 62.7793 45.7355 62.3267 46.2955 62C46.8649 61.664 47.5089 61.496 48.2275 61.496C48.9369 61.496 49.5715 61.664 50.1315 62C50.7009 62.3267 51.1489 62.7793 51.4755 63.358C51.8022 63.9273 51.9655 64.5807 51.9655 65.318C51.9655 66.0553 51.8022 66.7133 51.4755 67.292C51.1489 67.8613 50.7009 68.314 50.1315 68.65C49.5715 68.9767 48.9369 69.14 48.2275 69.14ZM48.2275 67.824C48.6662 67.824 49.0582 67.7167 49.4035 67.502C49.7489 67.278 50.0195 66.9793 50.2155 66.606C50.4115 66.2233 50.5049 65.794 50.4955 65.318C50.5049 64.8327 50.4115 64.4033 50.2155 64.03C50.0195 63.6473 49.7489 63.3487 49.4035 63.134C49.0582 62.9193 48.6662 62.812 48.2275 62.812C47.7889 62.812 47.3922 62.924 47.0375 63.148C46.6922 63.3627 46.4215 63.6613 46.2255 64.044C46.0295 64.4173 45.9362 64.842 45.9455 65.318C45.9362 65.794 46.0295 66.2233 46.2255 66.606C46.4215 66.9793 46.6922 67.278 47.0375 67.502C47.3922 67.7167 47.7889 67.824 48.2275 67.824ZM53.5368 72.08V61.65H54.9928V63.33L54.7688 63.204C54.8248 62.924 54.9835 62.658 55.2448 62.406C55.5061 62.1447 55.8235 61.9347 56.1968 61.776C56.5795 61.608 56.9715 61.524 57.3728 61.524C58.0355 61.524 58.6235 61.6873 59.1368 62.014C59.6501 62.3407 60.0561 62.7887 60.3548 63.358C60.6535 63.9273 60.8028 64.5807 60.8028 65.318C60.8028 66.046 60.6535 66.6993 60.3548 67.278C60.0655 67.8473 59.6641 68.3 59.1508 68.636C58.6375 68.9627 58.0588 69.126 57.4148 69.126C56.9855 69.126 56.5701 69.042 56.1688 68.874C55.7675 68.6967 55.4268 68.4727 55.1468 68.202C54.8668 67.9313 54.6941 67.6513 54.6288 67.362L54.9928 67.166V72.08H53.5368ZM57.1768 67.796C57.6061 67.796 57.9888 67.6887 58.3248 67.474C58.6608 67.2593 58.9268 66.9653 59.1228 66.592C59.3188 66.2187 59.4168 65.794 59.4168 65.318C59.4168 64.842 59.3188 64.422 59.1228 64.058C58.9361 63.6847 58.6748 63.3907 58.3388 63.176C58.0028 62.9613 57.6155 62.854 57.1768 62.854C56.7381 62.854 56.3508 62.9613 56.0148 63.176C55.6788 63.3813 55.4128 63.6707 55.2168 64.044C55.0208 64.4173 54.9228 64.842 54.9228 65.318C54.9228 65.794 55.0208 66.2187 55.2168 66.592C55.4128 66.9653 55.6788 67.2593 56.0148 67.474C56.3508 67.6887 56.7381 67.796 57.1768 67.796ZM65.7988 69.14C65.0428 69.14 64.3708 68.9813 63.7828 68.664C63.2042 68.3373 62.7468 67.894 62.4108 67.334C62.0842 66.774 61.9208 66.13 61.9208 65.402C61.9208 64.8233 62.0142 64.296 62.2008 63.82C62.3875 63.344 62.6442 62.9333 62.9708 62.588C63.3068 62.2333 63.7035 61.9627 64.1608 61.776C64.6275 61.58 65.1315 61.482 65.6728 61.482C66.1488 61.482 66.5922 61.5753 67.0028 61.762C67.4135 61.9393 67.7682 62.1867 68.0668 62.504C68.3748 62.8213 68.6082 63.1993 68.7668 63.638C68.9348 64.0673 69.0142 64.5387 69.0048 65.052L68.9908 65.668H62.9848L62.6628 64.52H67.7448L67.5348 64.758V64.422C67.5068 64.114 67.4042 63.8387 67.2268 63.596C67.0495 63.3533 66.8255 63.162 66.5548 63.022C66.2842 62.882 65.9902 62.812 65.6728 62.812C65.1688 62.812 64.7442 62.91 64.3988 63.106C64.0535 63.2927 63.7922 63.5727 63.6148 63.946C63.4375 64.31 63.3488 64.7627 63.3488 65.304C63.3488 65.8173 63.4562 66.2653 63.6708 66.648C63.8855 67.0213 64.1888 67.3107 64.5808 67.516C64.9728 67.7213 65.4255 67.824 65.9388 67.824C66.3028 67.824 66.6388 67.7633 66.9468 67.642C67.2642 67.5207 67.6048 67.3013 67.9688 66.984L68.6968 68.006C68.4728 68.23 68.1975 68.426 67.8708 68.594C67.5535 68.762 67.2128 68.8973 66.8488 69C66.4942 69.0933 66.1442 69.14 65.7988 69.14ZM73.638 69.14C72.966 69.14 72.364 68.9767 71.832 68.65C71.3093 68.314 70.894 67.8613 70.586 67.292C70.278 66.7133 70.124 66.0553 70.124 65.318C70.124 64.5807 70.2733 63.9273 70.572 63.358C70.88 62.7793 71.2953 62.3267 71.818 62C72.3406 61.664 72.9333 61.496 73.596 61.496C73.96 61.496 74.31 61.5567 74.646 61.678C74.9913 61.79 75.2993 61.9487 75.57 62.154C75.8406 62.35 76.0506 62.5693 76.2 62.812C76.3586 63.0453 76.438 63.2833 76.438 63.526L76.018 63.554V58.64H77.46V69H76.018V67.25H76.298C76.298 67.474 76.2233 67.698 76.074 67.922C75.9246 68.1367 75.724 68.3373 75.472 68.524C75.2293 68.7107 74.9446 68.86 74.618 68.972C74.3006 69.084 73.974 69.14 73.638 69.14ZM73.834 67.894C74.2726 67.894 74.66 67.782 74.996 67.558C75.332 67.334 75.5933 67.0307 75.78 66.648C75.976 66.256 76.074 65.8127 76.074 65.318C76.074 64.8233 75.976 64.3847 75.78 64.002C75.5933 63.61 75.332 63.302 74.996 63.078C74.66 62.854 74.2726 62.742 73.834 62.742C73.3953 62.742 73.008 62.854 72.672 63.078C72.336 63.302 72.07 63.61 71.874 64.002C71.6873 64.3847 71.594 64.8233 71.594 65.318C71.594 65.8127 71.6873 66.256 71.874 66.648C72.07 67.0307 72.336 67.334 72.672 67.558C73.008 67.782 73.3953 67.894 73.834 67.894ZM79.683 69V61.65H81.125V69H79.683ZM80.383 60.026C80.075 60.026 79.837 59.9467 79.669 59.788C79.501 59.6293 79.417 59.4053 79.417 59.116C79.417 58.8453 79.501 58.626 79.669 58.458C79.8463 58.29 80.0843 58.206 80.383 58.206C80.691 58.206 80.929 58.2853 81.097 58.444C81.265 58.6027 81.349 58.8267 81.349 59.116C81.349 59.3867 81.2603 59.606 81.083 59.774C80.915 59.942 80.6817 60.026 80.383 60.026ZM86.4635 69.14C85.7822 69.14 85.1708 68.972 84.6295 68.636C84.0975 68.3 83.6728 67.8427 83.3555 67.264C83.0475 66.6853 82.8935 66.0367 82.8935 65.318C82.8935 64.5993 83.0475 63.9507 83.3555 63.372C83.6728 62.7933 84.0975 62.336 84.6295 62C85.1708 61.664 85.7822 61.496 86.4635 61.496C87.1168 61.496 87.7095 61.6313 88.2415 61.902C88.7828 62.1633 89.1935 62.5227 89.4735 62.98L88.6755 63.96C88.5262 63.7453 88.3348 63.5493 88.1015 63.372C87.8682 63.1947 87.6208 63.0547 87.3595 62.952C87.0982 62.8493 86.8462 62.798 86.6035 62.798C86.1555 62.798 85.7542 62.91 85.3995 63.134C85.0542 63.3487 84.7788 63.6473 84.5735 64.03C84.3682 64.4127 84.2655 64.842 84.2655 65.318C84.2655 65.794 84.3728 66.2233 84.5875 66.606C84.8022 66.9793 85.0868 67.278 85.4415 67.502C85.7962 67.726 86.1882 67.838 86.6175 67.838C86.8695 67.838 87.1122 67.796 87.3455 67.712C87.5882 67.628 87.8215 67.502 88.0455 67.334C88.2695 67.166 88.4795 66.9607 88.6755 66.718L89.4735 67.698C89.1748 68.118 88.7455 68.4633 88.1855 68.734C87.6348 69.0047 87.0608 69.14 86.4635 69.14ZM93.2837 69.14C92.6677 69.14 92.1124 69.0327 91.6177 68.818C91.123 68.6033 90.7124 68.286 90.3857 67.866L91.3657 67.026C91.6457 67.3527 91.949 67.5907 92.2757 67.74C92.6117 67.88 92.9897 67.95 93.4097 67.95C93.5777 67.95 93.7317 67.9313 93.8717 67.894C94.021 67.8473 94.147 67.782 94.2497 67.698C94.3617 67.614 94.4457 67.516 94.5017 67.404C94.5577 67.2827 94.5857 67.152 94.5857 67.012C94.5857 66.7693 94.497 66.5733 94.3197 66.424C94.2264 66.3587 94.077 66.2887 93.8717 66.214C93.6757 66.13 93.419 66.046 93.1017 65.962C92.5604 65.822 92.117 65.6633 91.7717 65.486C91.4264 65.3087 91.1604 65.108 90.9737 64.884C90.8337 64.7067 90.731 64.5153 90.6657 64.31C90.6004 64.0953 90.5677 63.862 90.5677 63.61C90.5677 63.302 90.633 63.022 90.7637 62.77C90.9037 62.5087 91.0904 62.2847 91.3237 62.098C91.5664 61.902 91.8464 61.7527 92.1637 61.65C92.4904 61.5473 92.8357 61.496 93.1997 61.496C93.545 61.496 93.8857 61.5427 94.2217 61.636C94.567 61.7293 94.8844 61.8647 95.1737 62.042C95.463 62.2193 95.7057 62.4293 95.9017 62.672L95.0757 63.582C94.8984 63.4047 94.7024 63.2507 94.4877 63.12C94.2824 62.98 94.0724 62.8727 93.8577 62.798C93.643 62.7233 93.447 62.686 93.2697 62.686C93.0737 62.686 92.8964 62.7047 92.7377 62.742C92.579 62.7793 92.4437 62.8353 92.3317 62.91C92.229 62.9847 92.1497 63.078 92.0937 63.19C92.0377 63.302 92.0097 63.428 92.0097 63.568C92.019 63.6893 92.047 63.806 92.0937 63.918C92.1497 64.0207 92.2244 64.1093 92.3177 64.184C92.4204 64.2587 92.5744 64.338 92.7797 64.422C92.985 64.506 93.2464 64.5853 93.5637 64.66C94.0304 64.7813 94.413 64.9167 94.7117 65.066C95.0197 65.206 95.2624 65.3693 95.4397 65.556C95.6264 65.7333 95.757 65.9387 95.8317 66.172C95.9064 66.4053 95.9437 66.6667 95.9437 66.956C95.9437 67.376 95.8224 67.754 95.5797 68.09C95.3464 68.4167 95.029 68.6733 94.6277 68.86C94.2264 69.0467 93.7784 69.14 93.2837 69.14Z" fill="#002A50"/>
</svg>
