<svg width="110" height="88" viewBox="0 0 110 88" fill="none" xmlns="http://www.w3.org/2000/svg">
<rect x="0.456665" width="109.043" height="88" rx="12" fill="#FED1DE"/>
<path d="M71.3974 24.9076C71.3427 24.5525 71.2863 24.1853 71.2126 23.8303C70.2663 19.2982 66.4091 15.7145 61.832 15.1161C61.6585 15.0927 61.479 15.0641 61.3116 15.0364L61.0817 15H59.4138C59.2403 15.0286 59.072 15.0546 58.9003 15.0805C58.529 15.1368 58.1457 15.1949 57.7727 15.2771C55.6923 15.738 53.7892 16.7884 52.2918 18.3023L49.6584 20.9324C47.0711 23.5124 44.3952 26.1807 41.7818 28.823C39.093 31.5459 37.9654 35.2318 38.7001 38.9428C39.4347 42.6539 41.8868 45.6487 45.4239 47.1469C46.4498 47.5772 47.5362 47.8462 48.6445 47.9446C48.7095 47.9521 48.7736 47.9654 48.8362 47.9844L48.8952 48H50.5579L51.0193 47.9264C51.3542 47.8744 51.7002 47.8207 52.0368 47.7532C54.167 47.3202 55.9998 46.351 57.4839 44.8805C60.4806 41.9117 64.4228 37.9893 68.3763 33.9795C70.1388 32.1902 71.164 29.9385 71.4225 27.2884C71.4296 27.2295 71.4427 27.1715 71.4616 27.1152C71.4668 27.0996 71.4711 27.0831 71.4763 27.0676V25.403C71.4485 25.2385 71.4234 25.073 71.3974 24.9076ZM46.8456 45.8851C43.4203 44.6328 41.2736 42.3239 40.4643 39.0251C39.6932 35.8796 40.4366 32.9454 42.6718 30.3031L42.8322 30.1126L47.0823 45.9708L46.8456 45.8851ZM53.1271 45.7448C52.9033 45.795 52.683 45.8479 52.4644 45.8998C51.944 46.0228 51.4591 46.1397 50.9534 46.2185C50.605 46.2648 50.2537 46.2871 49.9022 46.2852C49.7122 46.2852 49.5153 46.2913 49.3245 46.3034H49.2742C48.9585 46.3034 48.8605 46.106 48.8032 45.8903C47.7771 42.0398 46.7276 38.127 45.7128 34.3432L44.8957 31.2982C44.7006 30.5725 44.4985 29.8259 44.3102 29.0811C44.2773 28.9495 44.2851 28.7096 44.4074 28.5857C45.2826 27.6946 46.182 26.7991 47.052 25.9322L47.5256 25.461C47.552 25.4369 47.5838 25.4194 47.6184 25.4099L47.6652 25.3926L47.8014 25.338L53.2563 45.7154L53.1271 45.7448ZM60.4303 39.5092C59.5473 40.6516 55.6268 44.3678 54.9112 44.7411L54.7673 44.8164L52.7445 37.2627L60.5509 39.3551L60.4303 39.5092ZM69.7754 26.0612C69.7754 26.121 69.7754 26.1807 69.7754 26.2396C69.7476 28.8828 68.8057 31.1614 66.9738 33.0104C66.1159 33.8764 65.239 34.7538 64.3907 35.6016C63.6766 36.3147 62.9636 37.0289 62.2518 37.7442C62.2022 37.8026 62.141 37.85 62.072 37.8832C62.0029 37.9165 61.9277 37.9349 61.8511 37.9374C61.7924 37.9365 61.7341 37.928 61.6776 37.9122C58.1882 36.9674 55.2955 36.1914 52.5702 35.47C52.465 35.4503 52.3682 35.3995 52.2924 35.3241C52.2166 35.2487 52.1653 35.1523 52.1452 35.0473C51.8682 34.0081 51.5909 32.9703 51.3134 31.9339C50.6316 29.3834 49.9256 26.7462 49.2395 24.1507C49.2201 24.0553 49.2228 23.9568 49.2475 23.8627C49.2721 23.7686 49.3181 23.6813 49.3818 23.6077C49.7478 23.237 50.1124 22.8652 50.4755 22.4922C51.5163 21.4261 52.5936 20.3271 53.7099 19.2982C55.0977 18.0199 56.6243 17.1937 58.235 16.843C59.8457 16.4922 61.5787 16.6195 63.3473 17.2275C66.8497 18.433 68.9765 20.968 69.667 24.7621C69.7225 25.067 69.7537 25.3779 69.771 25.6455C69.7806 25.7884 69.778 25.9287 69.7754 26.0638V26.0612Z" fill="#002A50"/>
<path d="M65.4299 21.0468C64.7511 20.3642 63.9433 19.823 63.0533 19.4544C62.1634 19.0859 61.2091 18.8974 60.2457 18.8999C59.2809 18.9004 58.3258 19.0909 57.4348 19.4604C56.5438 19.8298 55.7346 20.3711 55.0533 21.0531C54.372 21.7351 53.8321 22.5445 53.4644 23.4351C53.0966 24.3256 52.9084 25.2798 52.9103 26.2431C52.9103 30.2772 56.1942 33.5664 60.2266 33.5742H60.2422C61.6944 33.5711 63.1132 33.1387 64.3196 32.3314C65.526 31.5242 66.466 30.3783 67.0209 29.0384C67.5759 27.6984 67.7211 26.2243 67.4381 24.8021C67.1551 23.3799 66.4566 22.0732 65.4308 21.0468H65.4299ZM58.1267 29.4527C58.1279 29.5962 58.1006 29.7386 58.0463 29.8714C57.9921 30.0043 57.9119 30.1251 57.8104 30.2268C57.709 30.3285 57.5883 30.4091 57.4554 30.4638C57.3226 30.5185 57.1801 30.5463 57.0364 30.5457H57.0294C56.8855 30.547 56.7428 30.5198 56.6095 30.4656C56.4762 30.4114 56.355 30.3313 56.253 30.2299C56.151 30.1286 56.0701 30.008 56.0152 29.8751C55.9603 29.7423 55.9324 29.5999 55.9331 29.4562C55.9282 29.3098 55.9527 29.164 56.0052 29.0273C56.0577 28.8906 56.1371 28.7658 56.2387 28.6603C56.3404 28.5547 56.4621 28.4706 56.5969 28.4129C56.7316 28.3551 56.8766 28.3249 57.0232 28.324C57.1698 28.3232 57.3151 28.3516 57.4505 28.4078C57.586 28.464 57.7087 28.5466 57.8116 28.651C57.9145 28.7553 57.9953 28.8791 58.0495 29.0152C58.1036 29.1513 58.1298 29.2968 58.1267 29.4432V29.4527ZM65.0275 29.2396C64.523 30.0447 63.8233 30.7097 62.993 31.173C62.1628 31.6362 61.2288 31.8828 60.2777 31.8898C59.8553 31.8912 59.4348 31.8328 59.0287 31.7166L58.8553 31.6663L58.9567 31.5182C60.0609 29.9134 60.0756 28.5529 59.0001 27.4755C57.9246 26.3981 56.5602 26.4077 54.9608 27.5197L54.8133 27.6219L54.7621 27.4487C54.2235 25.6377 54.9079 22.9192 57.2376 21.4478C58.3224 20.7682 59.6062 20.4765 60.8786 20.6206C62.1511 20.7646 63.3369 21.3358 64.2418 22.2406C65.1467 23.1455 65.7171 24.3303 65.8595 25.601C66.0019 26.8718 65.7079 28.1532 65.0257 29.2353L65.0275 29.2396Z" fill="#002A50"/>
<path d="M59.9375 24.1716V24.1793C59.9374 24.2895 59.9154 24.3986 59.8726 24.5001C59.8299 24.6017 59.7673 24.6937 59.6886 24.7709C59.6092 24.848 59.5154 24.9088 59.4124 24.9495C59.3094 24.9902 59.1993 25.0101 59.0886 25.0081C58.9778 25.0061 58.8686 24.9822 58.7672 24.9377C58.6657 24.8933 58.5741 24.8292 58.4977 24.7492C58.4202 24.672 58.3589 24.5802 58.3174 24.479C58.2758 24.3779 58.2549 24.2696 58.2557 24.1603C58.2631 23.9397 58.3546 23.7303 58.5114 23.5748C58.6683 23.4194 58.8787 23.3295 59.0996 23.3237H59.11C59.3317 23.3285 59.5427 23.42 59.6975 23.5786C59.8523 23.7372 59.9385 23.9501 59.9375 24.1716Z" fill="#002A50"/>
<path d="M63.1582 27.3967C63.1511 27.6228 63.0548 27.837 62.8902 27.9925C62.7331 28.1462 62.522 28.2323 62.3021 28.2324C62.0787 28.2263 61.8667 28.1327 61.7119 27.9718C61.5571 27.8108 61.4719 27.5956 61.4747 27.3724C61.4753 27.2631 61.4976 27.155 61.5403 27.0544C61.583 26.9537 61.6453 26.8626 61.7236 26.7861C61.8815 26.6324 62.0938 26.5471 62.3143 26.5488H62.3256C62.4374 26.5506 62.5478 26.5745 62.6504 26.6191C62.753 26.6637 62.8457 26.7281 62.9232 26.8086C62.9994 26.8862 63.0595 26.9782 63.0998 27.0791C63.1402 27.1801 63.16 27.288 63.1582 27.3967Z" fill="#002A50"/>
<path d="M18.0828 69V59.2H22.0728C22.6048 59.2 23.0855 59.3353 23.5148 59.606C23.9535 59.8673 24.3035 60.2267 24.5648 60.684C24.8261 61.1413 24.9568 61.65 24.9568 62.21C24.9568 62.77 24.8261 63.2787 24.5648 63.736C24.3035 64.1933 23.9535 64.562 23.5148 64.842C23.0855 65.1127 22.6048 65.248 22.0728 65.248H19.5948V69H18.0828ZM19.5948 63.792H22.0448C22.2968 63.792 22.5255 63.722 22.7308 63.582C22.9361 63.4327 23.0995 63.2413 23.2208 63.008C23.3515 62.7653 23.4168 62.4993 23.4168 62.21C23.4168 61.9207 23.3515 61.6593 23.2208 61.426C23.0995 61.1927 22.9361 61.006 22.7308 60.866C22.5255 60.726 22.2968 60.656 22.0448 60.656H19.5948V63.792ZM29.2831 69.14C28.6765 69.14 28.1211 68.972 27.6171 68.636C27.1225 68.3 26.7258 67.8427 26.4271 67.264C26.1285 66.6853 25.9791 66.032 25.9791 65.304C25.9791 64.5667 26.1285 63.9133 26.4271 63.344C26.7351 62.7653 27.1458 62.3127 27.6591 61.986C28.1818 61.6593 28.7651 61.496 29.4091 61.496C29.7918 61.496 30.1418 61.552 30.4591 61.664C30.7765 61.776 31.0518 61.9347 31.2851 62.14C31.5278 62.336 31.7238 62.5647 31.8731 62.826C32.0318 63.0873 32.1298 63.3673 32.1671 63.666L31.8451 63.554V61.65H33.3011V69H31.8451V67.25L32.1811 67.152C32.1251 67.404 32.0085 67.6513 31.8311 67.894C31.6631 68.1273 31.4438 68.3373 31.1731 68.524C30.9118 68.7107 30.6178 68.86 30.2911 68.972C29.9738 69.084 29.6378 69.14 29.2831 69.14ZM29.6611 67.81C30.0998 67.81 30.4871 67.7027 30.8231 67.488C31.1591 67.2733 31.4205 66.9793 31.6071 66.606C31.8031 66.2233 31.9011 65.7893 31.9011 65.304C31.9011 64.828 31.8031 64.4033 31.6071 64.03C31.4205 63.6567 31.1591 63.3627 30.8231 63.148C30.4871 62.9333 30.0998 62.826 29.6611 62.826C29.2318 62.826 28.8491 62.9333 28.5131 63.148C28.1865 63.3627 27.9251 63.6567 27.7291 64.03C27.5425 64.4033 27.4491 64.828 27.4491 65.304C27.4491 65.7893 27.5425 66.2233 27.7291 66.606C27.9251 66.9793 28.1865 67.2733 28.5131 67.488C28.8491 67.7027 29.2318 67.81 29.6611 67.81ZM38.7445 69.14C37.9885 69.14 37.3165 68.9813 36.7285 68.664C36.1499 68.3373 35.6925 67.894 35.3565 67.334C35.0299 66.774 34.8665 66.13 34.8665 65.402C34.8665 64.8233 34.9599 64.296 35.1465 63.82C35.3332 63.344 35.5899 62.9333 35.9165 62.588C36.2525 62.2333 36.6492 61.9627 37.1065 61.776C37.5732 61.58 38.0772 61.482 38.6185 61.482C39.0945 61.482 39.5379 61.5753 39.9485 61.762C40.3592 61.9393 40.7139 62.1867 41.0125 62.504C41.3205 62.8213 41.5539 63.1993 41.7125 63.638C41.8805 64.0673 41.9599 64.5387 41.9505 65.052L41.9365 65.668H35.9305L35.6085 64.52H40.6905L40.4805 64.758V64.422C40.4525 64.114 40.3499 63.8387 40.1725 63.596C39.9952 63.3533 39.7712 63.162 39.5005 63.022C39.2299 62.882 38.9359 62.812 38.6185 62.812C38.1145 62.812 37.6899 62.91 37.3445 63.106C36.9992 63.2927 36.7379 63.5727 36.5605 63.946C36.3832 64.31 36.2945 64.7627 36.2945 65.304C36.2945 65.8173 36.4019 66.2653 36.6165 66.648C36.8312 67.0213 37.1345 67.3107 37.5265 67.516C37.9185 67.7213 38.3712 67.824 38.8845 67.824C39.2485 67.824 39.5845 67.7633 39.8925 67.642C40.2099 67.5207 40.5505 67.3013 40.9145 66.984L41.6425 68.006C41.4185 68.23 41.1432 68.426 40.8165 68.594C40.4992 68.762 40.1585 68.8973 39.7945 69C39.4399 69.0933 39.0899 69.14 38.7445 69.14ZM46.5836 69.14C45.9116 69.14 45.3096 68.9767 44.7776 68.65C44.255 68.314 43.8396 67.8613 43.5316 67.292C43.2236 66.7133 43.0696 66.0553 43.0696 65.318C43.0696 64.5807 43.219 63.9273 43.5176 63.358C43.8256 62.7793 44.241 62.3267 44.7636 62C45.2863 61.664 45.879 61.496 46.5416 61.496C46.9056 61.496 47.2556 61.5567 47.5916 61.678C47.937 61.79 48.245 61.9487 48.5156 62.154C48.7863 62.35 48.9963 62.5693 49.1456 62.812C49.3043 63.0453 49.3836 63.2833 49.3836 63.526L48.9636 63.554V58.64H50.4056V69H48.9636V67.25H49.2436C49.2436 67.474 49.169 67.698 49.0196 67.922C48.8703 68.1367 48.6696 68.3373 48.4176 68.524C48.175 68.7107 47.8903 68.86 47.5636 68.972C47.2463 69.084 46.9196 69.14 46.5836 69.14ZM46.7796 67.894C47.2183 67.894 47.6056 67.782 47.9416 67.558C48.2776 67.334 48.539 67.0307 48.7256 66.648C48.9216 66.256 49.0196 65.8127 49.0196 65.318C49.0196 64.8233 48.9216 64.3847 48.7256 64.002C48.539 63.61 48.2776 63.302 47.9416 63.078C47.6056 62.854 47.2183 62.742 46.7796 62.742C46.341 62.742 45.9536 62.854 45.6176 63.078C45.2816 63.302 45.0156 63.61 44.8196 64.002C44.633 64.3847 44.5396 64.8233 44.5396 65.318C44.5396 65.8127 44.633 66.256 44.8196 66.648C45.0156 67.0307 45.2816 67.334 45.6176 67.558C45.9536 67.782 46.341 67.894 46.7796 67.894ZM52.6287 69V61.65H54.0707V69H52.6287ZM53.3287 60.026C53.0207 60.026 52.7827 59.9467 52.6147 59.788C52.4467 59.6293 52.3627 59.4053 52.3627 59.116C52.3627 58.8453 52.4467 58.626 52.6147 58.458C52.792 58.29 53.03 58.206 53.3287 58.206C53.6367 58.206 53.8747 58.2853 54.0427 58.444C54.2107 58.6027 54.2947 58.8267 54.2947 59.116C54.2947 59.3867 54.206 59.606 54.0287 59.774C53.8607 59.942 53.6274 60.026 53.3287 60.026ZM59.1152 69.14C58.5085 69.14 57.9532 68.972 57.4492 68.636C56.9545 68.3 56.5578 67.8427 56.2592 67.264C55.9605 66.6853 55.8112 66.032 55.8112 65.304C55.8112 64.5667 55.9605 63.9133 56.2592 63.344C56.5672 62.7653 56.9778 62.3127 57.4912 61.986C58.0138 61.6593 58.5972 61.496 59.2412 61.496C59.6238 61.496 59.9738 61.552 60.2912 61.664C60.6085 61.776 60.8838 61.9347 61.1172 62.14C61.3598 62.336 61.5558 62.5647 61.7052 62.826C61.8638 63.0873 61.9618 63.3673 61.9992 63.666L61.6772 63.554V61.65H63.1332V69H61.6772V67.25L62.0132 67.152C61.9572 67.404 61.8405 67.6513 61.6632 67.894C61.4952 68.1273 61.2758 68.3373 61.0052 68.524C60.7438 68.7107 60.4498 68.86 60.1232 68.972C59.8058 69.084 59.4698 69.14 59.1152 69.14ZM59.4932 67.81C59.9318 67.81 60.3192 67.7027 60.6552 67.488C60.9912 67.2733 61.2525 66.9793 61.4392 66.606C61.6352 66.2233 61.7332 65.7893 61.7332 65.304C61.7332 64.828 61.6352 64.4033 61.4392 64.03C61.2525 63.6567 60.9912 63.3627 60.6552 63.148C60.3192 62.9333 59.9318 62.826 59.4932 62.826C59.0638 62.826 58.6812 62.9333 58.3452 63.148C58.0185 63.3627 57.7572 63.6567 57.5612 64.03C57.3745 64.4033 57.2812 64.828 57.2812 65.304C57.2812 65.7893 57.3745 66.2233 57.5612 66.606C57.7572 66.9793 58.0185 67.2733 58.3452 67.488C58.6812 67.7027 59.0638 67.81 59.4932 67.81ZM66.0565 69V59.774H67.4985V69H66.0565ZM64.5305 63.05V61.65H69.2066V63.05H64.5305ZM70.5196 69V61.65H71.9756V63.96L71.8356 63.4C71.9383 63.0453 72.1109 62.7233 72.3536 62.434C72.6056 62.1447 72.8903 61.916 73.2076 61.748C73.5343 61.58 73.8703 61.496 74.2156 61.496C74.3743 61.496 74.5236 61.51 74.6636 61.538C74.8129 61.566 74.9296 61.5987 75.0136 61.636L74.6356 63.204C74.5236 63.1573 74.3976 63.12 74.2576 63.092C74.1269 63.0547 73.9963 63.036 73.8656 63.036C73.6136 63.036 73.3709 63.0873 73.1376 63.19C72.9136 63.2833 72.7129 63.4187 72.5356 63.596C72.3676 63.764 72.2323 63.9647 72.1296 64.198C72.0269 64.422 71.9756 64.6693 71.9756 64.94V69H70.5196ZM76.4041 69V61.65H77.8461V69H76.4041ZM77.1041 60.026C76.7961 60.026 76.5581 59.9467 76.3901 59.788C76.2221 59.6293 76.1381 59.4053 76.1381 59.116C76.1381 58.8453 76.2221 58.626 76.3901 58.458C76.5674 58.29 76.8054 58.206 77.1041 58.206C77.4121 58.206 77.6501 58.2853 77.8181 58.444C77.9861 58.6027 78.0701 58.8267 78.0701 59.116C78.0701 59.3867 77.9814 59.606 77.8041 59.774C77.6361 59.942 77.4027 60.026 77.1041 60.026ZM83.1846 69.14C82.5032 69.14 81.8919 68.972 81.3506 68.636C80.8186 68.3 80.3939 67.8427 80.0766 67.264C79.7686 66.6853 79.6146 66.0367 79.6146 65.318C79.6146 64.5993 79.7686 63.9507 80.0766 63.372C80.3939 62.7933 80.8186 62.336 81.3506 62C81.8919 61.664 82.5032 61.496 83.1846 61.496C83.8379 61.496 84.4306 61.6313 84.9626 61.902C85.5039 62.1633 85.9146 62.5227 86.1946 62.98L85.3966 63.96C85.2472 63.7453 85.0559 63.5493 84.8226 63.372C84.5892 63.1947 84.3419 63.0547 84.0806 62.952C83.8192 62.8493 83.5672 62.798 83.3246 62.798C82.8766 62.798 82.4752 62.91 82.1206 63.134C81.7752 63.3487 81.4999 63.6473 81.2946 64.03C81.0892 64.4127 80.9866 64.842 80.9866 65.318C80.9866 65.794 81.0939 66.2233 81.3086 66.606C81.5232 66.9793 81.8079 67.278 82.1626 67.502C82.5172 67.726 82.9092 67.838 83.3386 67.838C83.5906 67.838 83.8332 67.796 84.0666 67.712C84.3092 67.628 84.5426 67.502 84.7666 67.334C84.9906 67.166 85.2006 66.9607 85.3966 66.718L86.1946 67.698C85.8959 68.118 85.4666 68.4633 84.9066 68.734C84.3559 69.0047 83.7819 69.14 83.1846 69.14ZM90.0048 69.14C89.3888 69.14 88.8334 69.0327 88.3388 68.818C87.8441 68.6033 87.4334 68.286 87.1068 67.866L88.0868 67.026C88.3668 67.3527 88.6701 67.5907 88.9968 67.74C89.3328 67.88 89.7108 67.95 90.1308 67.95C90.2988 67.95 90.4528 67.9313 90.5928 67.894C90.7421 67.8473 90.8681 67.782 90.9708 67.698C91.0828 67.614 91.1668 67.516 91.2228 67.404C91.2788 67.2827 91.3068 67.152 91.3068 67.012C91.3068 66.7693 91.2181 66.5733 91.0408 66.424C90.9474 66.3587 90.7981 66.2887 90.5928 66.214C90.3968 66.13 90.1401 66.046 89.8228 65.962C89.2814 65.822 88.8381 65.6633 88.4928 65.486C88.1474 65.3087 87.8814 65.108 87.6948 64.884C87.5548 64.7067 87.4521 64.5153 87.3868 64.31C87.3214 64.0953 87.2888 63.862 87.2888 63.61C87.2888 63.302 87.3541 63.022 87.4848 62.77C87.6248 62.5087 87.8114 62.2847 88.0448 62.098C88.2874 61.902 88.5674 61.7527 88.8848 61.65C89.2114 61.5473 89.5568 61.496 89.9208 61.496C90.2661 61.496 90.6068 61.5427 90.9428 61.636C91.2881 61.7293 91.6054 61.8647 91.8948 62.042C92.1841 62.2193 92.4268 62.4293 92.6228 62.672L91.7968 63.582C91.6194 63.4047 91.4234 63.2507 91.2088 63.12C91.0034 62.98 90.7934 62.8727 90.5788 62.798C90.3641 62.7233 90.1681 62.686 89.9908 62.686C89.7948 62.686 89.6174 62.7047 89.4588 62.742C89.3001 62.7793 89.1648 62.8353 89.0528 62.91C88.9501 62.9847 88.8708 63.078 88.8148 63.19C88.7588 63.302 88.7308 63.428 88.7308 63.568C88.7401 63.6893 88.7681 63.806 88.8148 63.918C88.8708 64.0207 88.9454 64.1093 89.0388 64.184C89.1414 64.2587 89.2954 64.338 89.5008 64.422C89.7061 64.506 89.9674 64.5853 90.2848 64.66C90.7514 64.7813 91.1341 64.9167 91.4328 65.066C91.7408 65.206 91.9834 65.3693 92.1608 65.556C92.3474 65.7333 92.4781 65.9387 92.5528 66.172C92.6274 66.4053 92.6648 66.6667 92.6648 66.956C92.6648 67.376 92.5434 67.754 92.3008 68.09C92.0674 68.4167 91.7501 68.6733 91.3488 68.86C90.9474 69.0467 90.4994 69.14 90.0048 69.14Z" fill="#002A50"/>
</svg>
