<svg width="110" height="88" viewBox="0 0 110 88" fill="none" xmlns="http://www.w3.org/2000/svg">
<rect x="0.630127" width="109.043" height="88" rx="12" fill="#FFE3DE"/>
<path d="M34.0142 41.3266C34.2036 40.1522 34.4156 38.9791 34.5796 37.8009C35.0446 34.3996 35.7316 31.0534 37.548 27.9956C38.8824 25.7546 40.5815 23.7725 42.8616 22.2699C43.6543 21.7441 44.5361 21.3387 45.4724 21.0699C47.9291 20.3879 49.7865 21.4687 50.1823 23.7764C50.3335 24.6619 50.3662 25.5607 50.2799 26.4533C50.1597 27.6585 50.1541 28.8187 50.5527 29.9944C50.7548 30.5918 50.7379 31.2547 50.7817 31.8906C50.8198 32.429 50.4891 32.7521 49.9138 32.788C49.3384 32.8239 49.125 32.4252 49.0317 31.9688C48.8352 31.0111 48.5652 30.0611 48.4564 29.0957C48.3588 28.2315 48.4437 27.3521 48.438 26.4802C48.438 25.6713 48.4847 24.8533 48.3801 24.0546C48.1949 22.6443 47.2747 22.0776 45.806 22.5802C44.8208 22.9162 43.9066 23.4032 43.1033 24.02C40.1263 26.3264 38.1332 29.2752 37.3204 32.7367C36.5925 35.8368 36.1896 39.0048 35.7655 42.1561C35.6482 43.0317 35.8914 43.9779 36.1387 44.8484C36.2364 45.2301 36.4755 45.5699 36.8161 45.8109C37.1568 46.052 37.5783 46.1797 38.0103 46.1728C40.3101 46.2087 42.6114 46.2087 44.866 45.6882C45.1148 45.6305 45.3593 45.56 45.6081 45.4946C47.5658 45.0176 48.6359 43.9304 48.6684 42.0138C48.684 40.8432 48.8706 39.674 48.9723 38.5047C49.0345 37.7829 49.3469 37.4317 49.9138 37.4701C50.4467 37.506 50.7718 37.8919 50.7166 38.5471C50.5753 40.206 50.4608 41.8689 50.2163 43.5163C50.0028 44.9523 49.0402 45.9523 47.6026 46.5574C45.8526 47.301 43.9896 47.6138 42.0827 47.7113C40.9123 47.7715 39.7362 47.7728 38.5644 47.7664C36.0044 47.7523 34.6799 46.7407 34.1739 44.4394C34.1329 44.2535 34.0721 44.0715 34.0212 43.8881L34.0142 41.3266Z" fill="#002A50"/>
<path d="M74.4417 41.9381C74.3088 38.197 74.0176 34.47 72.6041 30.9123C71.4436 28.0033 69.5918 25.5033 66.9061 23.5866C66.1201 23.0263 65.1321 22.6276 64.168 22.3648C63.0895 22.0712 62.4265 22.4635 62.2046 23.4789C62.0099 24.3989 61.9439 25.3375 62.0081 26.2725C62.0859 27.493 62.1961 28.6828 61.7452 29.8802C61.5148 30.4931 61.4865 31.1738 61.4074 31.8277C61.3452 32.3405 61.1543 32.7021 60.5324 32.7251C59.9882 32.7431 59.6107 32.3969 59.6475 31.7867C59.6927 31.0469 59.8751 30.3136 59.9585 29.5751C60.0527 28.7341 60.1243 27.8917 60.1733 27.0481C60.2454 25.8161 60.1337 24.5571 60.3839 23.3584C60.8009 21.3609 62.4421 20.4929 64.6246 20.907C66.0721 21.1801 67.2708 21.8814 68.3648 22.7391C72.2691 25.7981 74.625 29.6443 75.4326 34.2777C75.95 37.2572 76.3556 40.2406 76.2807 43.2624C76.2719 43.6462 76.236 44.029 76.1733 44.4086C75.8354 46.4099 74.829 47.4086 72.621 47.7484C69.7544 48.1881 66.9061 48.1022 64.1751 47.083C62.264 46.3689 60.7147 45.2432 60.3472 43.2945C60.0263 41.6624 59.9599 39.988 59.8383 38.3278C59.7987 37.8342 60.0942 37.4508 60.6864 37.4008C61.1897 37.3598 61.5713 37.7688 61.6152 38.3316C61.7113 39.5893 61.8427 40.8445 61.8979 42.1034C61.9601 43.4983 62.6965 44.4817 63.9913 45.1548C65.2167 45.7996 66.5984 46.1607 68.0143 46.2061C69.4637 46.2583 70.9155 46.2154 72.3581 46.0779C73.7717 45.9343 74.3442 45.2855 74.4346 43.9855C74.4813 43.3073 74.4417 42.6214 74.4417 41.9381Z" fill="#002A50"/>
<path d="M65.7165 35.7432C66.214 34.5778 66.6918 33.5162 67.1145 32.438C67.3331 31.899 67.4871 31.3402 67.5739 30.7713C67.7294 29.6059 67.3929 28.57 66.3879 27.7687C65.9638 27.4264 65.7956 27.0379 66.2211 26.6084C66.6847 26.1405 67.1116 26.402 67.4933 26.7251C69.2744 28.2367 69.4369 30.1085 68.8178 32.0918C68.4488 33.2765 67.9258 34.4201 67.4664 35.5816C67.2926 36.0239 67.4664 36.3021 67.8424 36.6252C68.4163 37.1163 68.8927 37.7047 69.3804 38.274C69.8681 38.8432 70.2978 39.4586 70.7939 40.024C71.1289 40.4086 71.2802 40.774 70.8717 41.1573C70.4278 41.5753 69.9642 41.4599 69.5995 41.0599C69.0934 40.5022 68.634 39.906 68.152 39.3342C67.7421 38.8432 67.3788 38.3086 66.9024 37.8765C66.5787 37.5842 66.0981 37.4355 65.6133 37.2868C65.7292 38.5842 65.5073 39.8637 66.2211 41.0163C66.5038 41.4753 66.5787 41.9137 65.9822 42.2202C65.4875 42.4766 65.0182 42.3343 64.7807 41.7137C64.4808 40.869 64.2382 40.0084 64.0541 39.1368C63.9509 38.7035 64.0089 38.2393 63.8873 37.8099C63.746 37.3163 63.4251 37.0047 62.7706 36.9124C59.6029 36.4739 56.9751 34.0201 56.3206 30.8867C56.1263 29.9868 56.0316 29.0716 56.0379 28.1546C56.0958 24.12 56.2103 20.0853 56.3036 16.0506C56.3028 15.9649 56.3085 15.8792 56.3206 15.7942C56.4054 15.3583 56.6189 14.9827 57.1574 15.0006C57.7228 15.0198 57.9532 15.3852 57.9547 15.8788C57.9547 16.9468 57.973 18.0148 57.9547 19.084C57.9151 22.2661 57.8486 25.4482 57.8274 28.6303C57.7913 30.1105 58.2129 31.5704 59.0445 32.8444C60.3464 34.8124 62.3239 35.6162 64.7552 35.6919C65.0592 35.7009 65.3631 35.7329 65.6684 35.7509C65.7179 35.7547 65.7631 35.7329 65.7165 35.7432Z" fill="#002A50"/>
<path d="M44.985 37.3265C44.0846 37.3496 43.5079 37.8649 43.0259 38.4803C42.6018 39.0175 42.2654 39.6111 41.8356 40.147C41.5041 40.5582 41.125 40.936 40.7048 41.274C40.3486 41.5586 39.9514 41.4432 39.6475 41.1355C39.3436 40.8278 39.3393 40.5381 39.6079 40.2098C40.3288 39.3175 41.0356 38.4124 41.7763 37.5329C42.0593 37.1677 42.3988 36.8413 42.7841 36.5636C43.2082 36.2842 43.2916 35.9726 43.1347 35.5765C42.8167 34.7752 42.4873 33.9777 42.1452 33.1867C41.5614 31.861 41.1557 30.5161 41.5162 29.0751C41.7449 28.0839 42.3627 27.2019 43.2549 26.593C43.6605 26.3174 44.0549 26.3225 44.3857 26.652C44.7165 26.9815 44.6557 27.3982 44.2825 27.67C42.6696 28.8482 42.7643 30.3623 43.2789 31.9264C43.6662 33.1085 44.1383 34.2675 44.602 35.4265C44.6471 35.5025 44.7111 35.5679 44.7888 35.6178C44.8666 35.6676 44.956 35.7004 45.0501 35.7136C48.8228 35.9444 51.8351 33.9841 52.4655 30.5931C52.8246 28.6559 52.7341 26.6379 52.7143 24.6571C52.6875 21.7532 52.5405 18.8506 52.45 15.9467C52.4359 15.4749 52.5913 15.0749 53.2091 15.0634C53.8042 15.0519 54.0134 15.3865 54.0261 15.8916C54.1321 19.884 54.2565 23.8763 54.3526 27.87C54.3964 29.7033 54.1505 31.4944 53.137 33.1264C51.8648 35.1777 50.0922 36.6239 47.4121 36.9457C46.752 37.0252 46.3618 37.5983 46.376 38.4842C46.3958 39.6586 46.2106 40.7816 45.5533 41.8176C45.2169 42.3445 44.7249 42.5086 44.291 42.165C44.0888 42.0047 43.9164 41.6355 43.9758 41.4163C44.1581 40.7393 44.52 40.1022 44.6967 39.4252C44.8592 38.7624 44.8847 38.0778 44.985 37.3265Z" fill="#002A50"/>
<path d="M12.2953 69V59.2H16.2853C16.8173 59.2 17.298 59.3353 17.7273 59.606C18.166 59.8673 18.516 60.2267 18.7773 60.684C19.0387 61.1413 19.1693 61.65 19.1693 62.21C19.1693 62.77 19.0387 63.2787 18.7773 63.736C18.516 64.1933 18.166 64.562 17.7273 64.842C17.298 65.1127 16.8173 65.248 16.2853 65.248H13.8073V69H12.2953ZM13.8073 63.792H16.2573C16.5093 63.792 16.738 63.722 16.9433 63.582C17.1487 63.4327 17.312 63.2413 17.4333 63.008C17.564 62.7653 17.6293 62.4993 17.6293 62.21C17.6293 61.9207 17.564 61.6593 17.4333 61.426C17.312 61.1927 17.1487 61.006 16.9433 60.866C16.738 60.726 16.5093 60.656 16.2573 60.656H13.8073V63.792ZM23.312 69.14C22.7894 69.14 22.332 69.0187 21.94 68.776C21.5574 68.5333 21.2587 68.1927 21.044 67.754C20.8387 67.3153 20.736 66.7927 20.736 66.186V61.65H22.178V65.794C22.178 66.2233 22.2434 66.5967 22.374 66.914C22.514 67.222 22.71 67.46 22.962 67.628C23.2234 67.796 23.536 67.88 23.9 67.88C24.1707 67.88 24.418 67.838 24.642 67.754C24.866 67.6607 25.0574 67.5347 25.216 67.376C25.384 67.2173 25.5147 67.026 25.608 66.802C25.7014 66.578 25.748 66.3353 25.748 66.074V61.65H27.19V69H25.748V67.46L26 67.292C25.888 67.6373 25.6967 67.95 25.426 68.23C25.1647 68.51 24.852 68.734 24.488 68.902C24.124 69.0607 23.732 69.14 23.312 69.14ZM29.2406 69V58.64H30.6826V69H29.2406ZM32.6983 69V61.65H34.1543V63.218L33.8883 63.386C33.9629 63.1433 34.0796 62.91 34.2383 62.686C34.4063 62.462 34.6069 62.266 34.8403 62.098C35.0829 61.9207 35.3396 61.7807 35.6103 61.678C35.8903 61.5753 36.1749 61.524 36.4643 61.524C36.8843 61.524 37.2529 61.594 37.5703 61.734C37.8876 61.874 38.1489 62.084 38.3543 62.364C38.5596 62.644 38.7089 62.994 38.8023 63.414L38.5783 63.358L38.6763 63.12C38.7789 62.9053 38.9189 62.7047 39.0963 62.518C39.2829 62.322 39.4929 62.1493 39.7263 62C39.9596 61.8507 40.2069 61.734 40.4683 61.65C40.7296 61.566 40.9863 61.524 41.2383 61.524C41.7889 61.524 42.2416 61.636 42.5963 61.86C42.9603 62.084 43.2309 62.4247 43.4083 62.882C43.5949 63.3393 43.6883 63.9087 43.6883 64.59V69H42.2323V64.674C42.2323 64.254 42.1763 63.9133 42.0643 63.652C41.9616 63.3813 41.8029 63.1807 41.5883 63.05C41.3736 62.9193 41.0983 62.854 40.7623 62.854C40.5009 62.854 40.2536 62.9007 40.0203 62.994C39.7963 63.078 39.6003 63.1993 39.4323 63.358C39.2643 63.5167 39.1336 63.7033 39.0403 63.918C38.9469 64.1233 38.9003 64.352 38.9003 64.604V69H37.4443V64.646C37.4443 64.2633 37.3883 63.9413 37.2763 63.68C37.1643 63.4093 37.0009 63.204 36.7863 63.064C36.5716 62.924 36.3103 62.854 36.0023 62.854C35.7409 62.854 35.4983 62.9007 35.2743 62.994C35.0503 63.078 34.8543 63.1993 34.6863 63.358C34.5183 63.5073 34.3876 63.6893 34.2943 63.904C34.2009 64.1093 34.1543 64.3333 34.1543 64.576V69H32.6983ZM48.9228 69.14C48.2042 69.14 47.5602 68.9767 46.9908 68.65C46.4308 68.314 45.9875 67.8613 45.6608 67.292C45.3342 66.7133 45.1708 66.0553 45.1708 65.318C45.1708 64.5807 45.3342 63.9273 45.6608 63.358C45.9875 62.7793 46.4308 62.3267 46.9908 62C47.5602 61.664 48.2042 61.496 48.9228 61.496C49.6322 61.496 50.2668 61.664 50.8268 62C51.3962 62.3267 51.8442 62.7793 52.1708 63.358C52.4975 63.9273 52.6608 64.5807 52.6608 65.318C52.6608 66.0553 52.4975 66.7133 52.1708 67.292C51.8442 67.8613 51.3962 68.314 50.8268 68.65C50.2668 68.9767 49.6322 69.14 48.9228 69.14ZM48.9228 67.824C49.3615 67.824 49.7535 67.7167 50.0988 67.502C50.4442 67.278 50.7148 66.9793 50.9108 66.606C51.1068 66.2233 51.2002 65.794 51.1908 65.318C51.2002 64.8327 51.1068 64.4033 50.9108 64.03C50.7148 63.6473 50.4442 63.3487 50.0988 63.134C49.7535 62.9193 49.3615 62.812 48.9228 62.812C48.4842 62.812 48.0875 62.924 47.7328 63.148C47.3875 63.3627 47.1168 63.6613 46.9208 64.044C46.7248 64.4173 46.6315 64.842 46.6408 65.318C46.6315 65.794 46.7248 66.2233 46.9208 66.606C47.1168 66.9793 47.3875 67.278 47.7328 67.502C48.0875 67.7167 48.4842 67.824 48.9228 67.824ZM54.2321 69V61.65H55.6741V63.162L55.4221 63.33C55.5155 63.0033 55.6975 62.7047 55.9681 62.434C56.2388 62.154 56.5608 61.93 56.9341 61.762C57.3075 61.5847 57.6901 61.496 58.0821 61.496C58.6421 61.496 59.1088 61.608 59.4821 61.832C59.8555 62.0467 60.1355 62.378 60.3221 62.826C60.5088 63.274 60.6021 63.8387 60.6021 64.52V69H59.1601V64.618C59.1601 64.198 59.1041 63.8527 58.9921 63.582C58.8801 63.302 58.7075 63.1013 58.4741 62.98C58.2408 62.8493 57.9515 62.7933 57.6061 62.812C57.3261 62.812 57.0695 62.8587 56.8361 62.952C56.6028 63.036 56.3975 63.1573 56.2201 63.316C56.0521 63.4747 55.9168 63.6613 55.8141 63.876C55.7208 64.0813 55.6741 64.3053 55.6741 64.548V69H54.9601C54.8388 69 54.7175 69 54.5961 69C54.4748 69 54.3535 69 54.2321 69ZM65.8623 69.14C65.1436 69.14 64.4996 68.9767 63.9303 68.65C63.3703 68.314 62.927 67.8613 62.6003 67.292C62.2736 66.7133 62.1103 66.0553 62.1103 65.318C62.1103 64.5807 62.2736 63.9273 62.6003 63.358C62.927 62.7793 63.3703 62.3267 63.9303 62C64.4996 61.664 65.1436 61.496 65.8623 61.496C66.5716 61.496 67.2063 61.664 67.7663 62C68.3356 62.3267 68.7836 62.7793 69.1103 63.358C69.437 63.9273 69.6003 64.5807 69.6003 65.318C69.6003 66.0553 69.437 66.7133 69.1103 67.292C68.7836 67.8613 68.3356 68.314 67.7663 68.65C67.2063 68.9767 66.5716 69.14 65.8623 69.14ZM65.8623 67.824C66.301 67.824 66.693 67.7167 67.0383 67.502C67.3836 67.278 67.6543 66.9793 67.8503 66.606C68.0463 66.2233 68.1396 65.794 68.1303 65.318C68.1396 64.8327 68.0463 64.4033 67.8503 64.03C67.6543 63.6473 67.3836 63.3487 67.0383 63.134C66.693 62.9193 66.301 62.812 65.8623 62.812C65.4236 62.812 65.027 62.924 64.6723 63.148C64.327 63.3627 64.0563 63.6613 63.8603 64.044C63.6643 64.4173 63.571 64.842 63.5803 65.318C63.571 65.794 63.6643 66.2233 63.8603 66.606C64.0563 66.9793 64.327 67.278 64.6723 67.502C65.027 67.7167 65.4236 67.824 65.8623 67.824ZM71.1996 69V58.64H72.6416V69H71.1996ZM77.8525 69.14C77.1339 69.14 76.4899 68.9767 75.9205 68.65C75.3605 68.314 74.9172 67.8613 74.5905 67.292C74.2639 66.7133 74.1005 66.0553 74.1005 65.318C74.1005 64.5807 74.2639 63.9273 74.5905 63.358C74.9172 62.7793 75.3605 62.3267 75.9205 62C76.4899 61.664 77.1339 61.496 77.8525 61.496C78.5619 61.496 79.1965 61.664 79.7565 62C80.3259 62.3267 80.7739 62.7793 81.1005 63.358C81.4272 63.9273 81.5905 64.5807 81.5905 65.318C81.5905 66.0553 81.4272 66.7133 81.1005 67.292C80.7739 67.8613 80.3259 68.314 79.7565 68.65C79.1965 68.9767 78.5619 69.14 77.8525 69.14ZM77.8525 67.824C78.2912 67.824 78.6832 67.7167 79.0285 67.502C79.3739 67.278 79.6445 66.9793 79.8405 66.606C80.0365 66.2233 80.1299 65.794 80.1205 65.318C80.1299 64.8327 80.0365 64.4033 79.8405 64.03C79.6445 63.6473 79.3739 63.3487 79.0285 63.134C78.6832 62.9193 78.2912 62.812 77.8525 62.812C77.4139 62.812 77.0172 62.924 76.6625 63.148C76.3172 63.3627 76.0465 63.6613 75.8505 64.044C75.6545 64.4173 75.5612 64.842 75.5705 65.318C75.5612 65.794 75.6545 66.2233 75.8505 66.606C76.0465 66.9793 76.3172 67.278 76.6625 67.502C77.0172 67.7167 77.4139 67.824 77.8525 67.824ZM86.4518 72.22C85.9291 72.22 85.4065 72.136 84.8838 71.968C84.3705 71.8093 83.9551 71.5993 83.6378 71.338L84.1698 70.218C84.3565 70.358 84.5758 70.4793 84.8278 70.582C85.0798 70.694 85.3458 70.778 85.6258 70.834C85.9058 70.8993 86.1811 70.932 86.4518 70.932C86.9651 70.932 87.3945 70.848 87.7398 70.68C88.0851 70.512 88.3465 70.2647 88.5238 69.938C88.7011 69.6113 88.7898 69.2053 88.7898 68.72V67.306L88.9438 67.404C88.8971 67.6933 88.7431 67.9733 88.4818 68.244C88.2298 68.5053 87.9125 68.72 87.5298 68.888C87.1471 69.056 86.7551 69.14 86.3538 69.14C85.6538 69.14 85.0285 68.9767 84.4778 68.65C83.9365 68.314 83.5071 67.8613 83.1898 67.292C82.8725 66.7133 82.7138 66.0553 82.7138 65.318C82.7138 64.5807 82.8678 63.9273 83.1758 63.358C83.4931 62.7793 83.9225 62.3267 84.4638 62C85.0145 61.664 85.6305 61.496 86.3118 61.496C86.5918 61.496 86.8625 61.5333 87.1238 61.608C87.3851 61.6733 87.6278 61.7713 87.8518 61.902C88.0758 62.0233 88.2765 62.1587 88.4538 62.308C88.6311 62.4573 88.7758 62.616 88.8878 62.784C88.9998 62.952 89.0698 63.1107 89.0978 63.26L88.7898 63.372V61.65H90.2318V68.552C90.2318 69.14 90.1431 69.658 89.9658 70.106C89.7978 70.5633 89.5505 70.946 89.2238 71.254C88.8971 71.5713 88.5005 71.8093 88.0338 71.968C87.5671 72.136 87.0398 72.22 86.4518 72.22ZM86.5078 67.81C86.9651 67.81 87.3711 67.7027 87.7258 67.488C88.0805 67.2733 88.3558 66.9793 88.5518 66.606C88.7478 66.2327 88.8458 65.8033 88.8458 65.318C88.8458 64.8327 88.7431 64.4033 88.5378 64.03C88.3418 63.6473 88.0665 63.3487 87.7118 63.134C87.3665 62.9193 86.9651 62.812 86.5078 62.812C86.0598 62.812 85.6585 62.924 85.3038 63.148C84.9585 63.3627 84.6831 63.6613 84.4778 64.044C84.2818 64.4173 84.1838 64.842 84.1838 65.318C84.1838 65.794 84.2818 66.2233 84.4778 66.606C84.6831 66.9793 84.9585 67.2733 85.3038 67.488C85.6585 67.7027 86.0598 67.81 86.5078 67.81ZM93.4856 72.22L94.9696 68.79L94.9836 69.938L91.3156 61.65H92.9956L95.2916 67.054C95.3383 67.1473 95.3943 67.292 95.4596 67.488C95.5249 67.6747 95.5809 67.8613 95.6276 68.048L95.2636 68.132C95.3383 67.936 95.4083 67.74 95.4736 67.544C95.5483 67.348 95.6183 67.152 95.6836 66.956L97.6016 61.65H99.3096L96.2856 69L95.0396 72.22H93.4856Z" fill="#002A50"/>
</svg>
