<svg width="110" height="88" viewBox="0 0 110 88" fill="none" xmlns="http://www.w3.org/2000/svg">
<rect x="0.369995" width="109.043" height="88" rx="12" fill="#CCE5FF"/>
<path d="M35.8087 44.1495C36.0308 43.8903 36.2369 43.6153 36.4789 43.3749C39.048 40.8138 41.6207 38.2557 44.1971 35.7006C44.2967 35.6017 44.3824 35.5027 44.471 35.4127C44.4451 35.3751 44.4361 35.3494 44.4192 35.3395C42.7085 34.3422 42.2594 32.6257 43.278 30.9449C44.6801 28.6318 46.0911 26.3237 47.4912 24.0096C48.1669 22.8806 49.107 21.9303 50.2315 21.2395C52.1806 20.0331 54.1274 18.8235 56.0718 17.6106C56.7459 17.1891 57.4659 16.9181 58.2625 16.8745C58.848 16.8448 59.2941 17.1832 59.3578 17.7026C59.4226 18.2487 59.075 18.6919 58.4696 18.7691C57.8642 18.8463 57.3573 19.0748 56.8575 19.3894C55.0312 20.5351 53.1996 21.6718 51.3627 22.7997C50.4264 23.3678 49.645 24.1561 49.0874 25.0949C47.7172 27.3704 46.3321 29.635 44.9589 31.9085C44.838 32.0942 44.7485 32.2984 44.694 32.5129C44.6024 32.9364 44.8494 33.3836 45.2437 33.5953C45.4294 33.6991 45.6433 33.7423 45.8551 33.7187C46.0668 33.695 46.2658 33.6058 46.4237 33.4637C46.7901 33.1313 47.1427 32.782 47.4862 32.4259C47.5734 32.3252 47.6291 32.2014 47.6465 32.0697C47.8925 30.4136 49.0525 29.2363 50.7274 28.9395C50.9405 28.8966 51.1365 28.7935 51.2921 28.6427C55.56 24.4169 59.8222 20.1862 64.0788 15.9505C65.3236 14.7158 67.1538 14.6822 68.3457 15.8605C68.8742 16.3851 69.183 17.0891 69.2102 17.8308C69.2374 18.5725 68.9808 19.297 68.4921 19.8584C68.3786 19.9889 68.2551 20.1106 68.1316 20.2333C65.3488 22.9995 62.5642 25.7657 59.7781 28.5319C59.6785 28.6308 59.567 28.704 59.3798 28.8544C59.5789 28.8781 59.6715 28.8969 59.7601 28.8969C60.5677 28.8969 61.3743 28.9019 62.1819 28.8969C62.9725 28.8969 63.5242 28.4191 63.6467 27.6494C63.6576 27.5762 63.6636 27.502 63.6716 27.4288C63.7363 26.8629 64.1694 26.4889 64.7002 26.5304C65.2309 26.572 65.6123 27.0103 65.5894 27.5722C65.5808 28.0235 65.4784 28.4681 65.2887 28.8782C65.0991 29.2883 64.8261 29.6551 64.4871 29.9555C63.812 30.564 63.0084 30.8251 62.0972 30.8242C58.5071 30.8182 54.917 30.8182 51.3269 30.8242C50.4486 30.8242 49.7506 31.3693 49.5952 32.1598C49.3772 33.2678 50.1708 34.1948 51.3598 34.1998C53.1741 34.2077 54.9874 34.1998 56.8007 34.1998C57.7965 34.1998 58.7922 34.2067 59.782 34.2057C61.4569 34.2057 62.9984 34.7182 64.516 35.3622C67.1219 36.4693 69.7936 36.6207 72.53 35.8826C72.7304 35.8198 72.9406 35.794 73.1504 35.8064C73.3679 35.8363 73.5683 35.9402 73.7174 36.1004C73.8664 36.2606 73.955 36.4672 73.9679 36.685C73.988 36.9035 73.9288 37.1219 73.801 37.3008C73.6731 37.4797 73.4851 37.6073 73.2708 37.6605C72.5177 37.8651 71.7529 38.025 70.9806 38.1393C68.3298 38.4777 65.7866 38.0631 63.3539 36.9689C63.1079 36.8581 62.856 36.771 62.6041 36.6721C62.5726 37.0005 62.5244 37.327 62.4597 37.6506C62.0833 39.1712 60.6802 40.0091 59.1179 39.6658C58.3471 39.4957 57.6899 39.1128 57.0925 38.6082C57.0576 38.628 57.0158 38.6369 56.9929 38.6627C56.25 39.6866 54.9336 39.9894 53.7158 39.56C52.1474 39.0079 51.1457 37.885 50.5811 36.3595C50.5529 36.2562 50.497 36.1624 50.4196 36.088C50.3421 36.0137 50.2458 35.9615 50.1409 35.937C49.3264 35.6986 48.702 35.1871 48.2211 34.5213L38.3629 44.382C38.6616 44.4453 39.0022 44.5591 39.3587 44.5908C40.5755 44.6996 41.6878 44.3177 42.7612 43.8062C44.5257 42.9663 46.0572 41.7959 47.4663 40.4603C47.5691 40.3447 47.628 40.197 47.6326 40.0428C47.6545 39.3888 47.6465 38.7349 47.6565 38.0799C47.6664 37.4557 48.0548 37.0392 48.6244 37.0411C49.1939 37.0431 49.5863 37.4666 49.5883 38.0898C49.5883 38.9407 49.5883 39.7935 49.5494 40.6433C49.5375 40.8956 49.4499 41.2082 49.2776 41.3794C47.3458 43.3115 45.2138 44.9687 42.6258 45.96C41.2317 46.4923 39.8028 46.7327 38.3221 46.3696C37.5083 46.1748 36.7642 45.7613 36.1712 45.1745C36.0356 45.0173 35.9143 44.8484 35.8087 44.6699V44.1495ZM53.8104 28.8959C54.7066 28.8959 55.5141 28.886 56.3207 28.9019C56.4363 28.9074 56.5516 28.8872 56.6583 28.8427C56.7649 28.7982 56.8602 28.7305 56.9371 28.6446C60.2252 25.368 63.5172 22.0946 66.8132 18.8245C66.9127 18.7321 67.0055 18.6329 67.0911 18.5277C67.1968 18.3896 67.265 18.2268 67.2893 18.0549C67.3135 17.8831 67.293 17.7079 67.2297 17.5462C67.1663 17.3845 67.0623 17.2417 66.9275 17.1313C66.7927 17.021 66.6316 16.9469 66.4597 16.9161C66.0216 16.8369 65.7029 17.0516 65.4082 17.3454C61.6342 21.1003 57.8585 24.8529 54.0812 28.6031C54.0065 28.6763 53.9368 28.7584 53.8104 28.8959ZM52.5746 36.127C53.0177 36.9481 53.5833 37.5249 54.4248 37.7683C55.1487 37.978 55.6117 37.613 55.6197 36.8561C55.6284 36.6843 55.6058 36.5124 55.553 36.3486C55.5286 36.295 55.4918 36.2478 55.4456 36.2111C55.3994 36.1743 55.3451 36.1488 55.2871 36.1369C54.4148 36.1211 53.5335 36.127 52.5746 36.127ZM57.5824 36.1567C58.0902 36.9907 58.6777 37.6407 59.6506 37.798C60.023 37.8583 60.3885 37.7663 60.499 37.3785C60.5926 37.05 60.5617 36.686 60.5617 36.3357C60.5484 36.2939 60.5244 36.2562 60.4921 36.2263C60.4599 36.1963 60.4204 36.1751 60.3775 36.1646C59.4684 36.1537 58.5592 36.1616 57.5824 36.1616V36.1567Z" fill="#002A50"/>
<path d="M72.835 24.3193C71.4339 24.2668 70.3217 23.6752 69.3816 22.7314C69.2167 22.5582 69.123 22.33 69.1189 22.0916C69.1149 21.8533 69.2009 21.622 69.36 21.4435C69.519 21.265 69.7396 21.1522 69.9783 21.1272C70.2169 21.1023 70.4563 21.167 70.6493 21.3087C70.7996 21.4165 70.9321 21.5481 71.0735 21.6688C71.5558 22.1024 72.1727 22.3593 72.8221 22.397C72.9457 22.4032 73.0687 22.4174 73.1905 22.4395C73.4218 22.4811 73.6296 22.6061 73.7739 22.7905C73.9182 22.975 73.9888 23.2058 73.9723 23.4388C73.9557 23.6718 73.8532 23.8906 73.6842 24.0531C73.5153 24.2156 73.292 24.3103 73.0571 24.3193C72.9714 24.3232 72.8838 24.3193 72.835 24.3193Z" fill="#002A50"/>
<path d="M51.1736 46.0748C51.6576 46.0748 52.1425 46.0698 52.6265 46.0748C53.2239 46.0837 53.6402 46.4705 53.6471 47.0196C53.6541 47.5855 53.2369 47.9891 52.6155 47.9941C51.635 48.002 50.6542 48.002 49.673 47.9941C49.0755 47.9881 48.6513 47.5845 48.6424 47.0463C48.6334 46.5081 49.0725 46.0827 49.684 46.0748C50.1808 46.0698 50.6768 46.0748 51.1736 46.0748Z" fill="#002A50"/>
<path d="M58.2112 46.0747C58.6952 46.0747 59.1791 46.0688 59.6631 46.0747C60.2605 46.0827 60.6837 46.4794 60.6907 47.0205C60.6977 47.5617 60.2725 47.9851 59.685 47.9911C58.6806 48.003 57.6752 48.003 56.6688 47.9911C56.0793 47.9832 55.673 47.5617 55.6879 47.0018C55.6999 46.4655 56.1052 46.0797 56.6837 46.0698C57.1945 46.0678 57.7044 46.0747 58.2112 46.0747Z" fill="#002A50"/>
<path d="M65.2462 46.0747C65.7302 46.0747 66.2151 46.0698 66.6991 46.0747C67.3025 46.0826 67.7148 46.4705 67.7217 47.0166C67.7297 47.5845 67.3155 47.9881 66.6941 47.994C65.7129 48.002 64.7321 48.002 63.7516 47.994C63.1392 47.9881 62.707 47.5657 62.72 47.0126C62.7329 46.4596 63.1551 46.0826 63.7566 46.0747C64.2525 46.0698 64.7493 46.0747 65.2462 46.0747Z" fill="#002A50"/>
<path d="M32.4225 69.14C31.8905 69.14 31.3958 69.07 30.9385 68.93C30.4905 68.79 30.0798 68.58 29.7065 68.3C29.3425 68.0107 29.0158 67.656 28.7265 67.236L29.7625 66.046C30.2198 66.6993 30.6585 67.152 31.0785 67.404C31.4985 67.656 31.9978 67.782 32.5765 67.782C32.9312 67.782 33.2532 67.726 33.5425 67.614C33.8318 67.502 34.0605 67.348 34.2285 67.152C34.3965 66.956 34.4805 66.732 34.4805 66.48C34.4805 66.312 34.4525 66.1533 34.3965 66.004C34.3405 65.8547 34.2518 65.7193 34.1305 65.598C34.0185 65.4767 33.8692 65.3647 33.6825 65.262C33.5052 65.1593 33.2952 65.0707 33.0525 64.996C32.8098 64.912 32.5298 64.842 32.2125 64.786C31.7085 64.6833 31.2698 64.548 30.8965 64.38C30.5232 64.212 30.2105 64.002 29.9585 63.75C29.7065 63.498 29.5198 63.2133 29.3985 62.896C29.2772 62.5693 29.2165 62.2053 29.2165 61.804C29.2165 61.412 29.3005 61.048 29.4685 60.712C29.6458 60.376 29.8838 60.0867 30.1825 59.844C30.4905 59.592 30.8498 59.4007 31.2605 59.27C31.6712 59.13 32.1145 59.06 32.5905 59.06C33.0945 59.06 33.5565 59.1253 33.9765 59.256C34.3965 59.3867 34.7698 59.5827 35.0965 59.844C35.4232 60.096 35.6938 60.4087 35.9085 60.782L34.8445 61.832C34.6578 61.524 34.4478 61.2673 34.2145 61.062C33.9812 60.8473 33.7245 60.6887 33.4445 60.586C33.1645 60.474 32.8658 60.418 32.5485 60.418C32.1845 60.418 31.8672 60.474 31.5965 60.586C31.3258 60.698 31.1112 60.8567 30.9525 61.062C30.8032 61.258 30.7285 61.4913 30.7285 61.762C30.7285 61.958 30.7658 62.14 30.8405 62.308C30.9152 62.4667 31.0272 62.6113 31.1765 62.742C31.3352 62.8633 31.5452 62.9753 31.8065 63.078C32.0678 63.1713 32.3805 63.2553 32.7445 63.33C33.2578 63.442 33.7152 63.5867 34.1165 63.764C34.5178 63.932 34.8585 64.1327 35.1385 64.366C35.4185 64.5993 35.6285 64.8607 35.7685 65.15C35.9178 65.4393 35.9925 65.752 35.9925 66.088C35.9925 66.7133 35.8478 67.2547 35.5585 67.712C35.2692 68.1693 34.8585 68.524 34.3265 68.776C33.7945 69.0187 33.1598 69.14 32.4225 69.14ZM40.3468 69.14C39.8242 69.14 39.3668 69.0187 38.9748 68.776C38.5922 68.5333 38.2935 68.1927 38.0788 67.754C37.8735 67.3153 37.7708 66.7927 37.7708 66.186V61.65H39.2128V65.794C39.2128 66.2233 39.2782 66.5967 39.4088 66.914C39.5488 67.222 39.7448 67.46 39.9968 67.628C40.2582 67.796 40.5708 67.88 40.9348 67.88C41.2055 67.88 41.4528 67.838 41.6768 67.754C41.9008 67.6607 42.0922 67.5347 42.2508 67.376C42.4188 67.2173 42.5495 67.026 42.6428 66.802C42.7362 66.578 42.7828 66.3353 42.7828 66.074V61.65H44.2248V69H42.7828V67.46L43.0348 67.292C42.9228 67.6373 42.7315 67.95 42.4608 68.23C42.1995 68.51 41.8868 68.734 41.5228 68.902C41.1588 69.0607 40.7668 69.14 40.3468 69.14ZM46.2474 69V61.65H47.7034V63.96L47.5634 63.4C47.666 63.0453 47.8387 62.7233 48.0814 62.434C48.3334 62.1447 48.618 61.916 48.9354 61.748C49.262 61.58 49.598 61.496 49.9434 61.496C50.102 61.496 50.2514 61.51 50.3914 61.538C50.5407 61.566 50.6574 61.5987 50.7414 61.636L50.3634 63.204C50.2514 63.1573 50.1254 63.12 49.9854 63.092C49.8547 63.0547 49.724 63.036 49.5934 63.036C49.3414 63.036 49.0987 63.0873 48.8654 63.19C48.6414 63.2833 48.4407 63.4187 48.2634 63.596C48.0954 63.764 47.96 63.9647 47.8574 64.198C47.7547 64.422 47.7034 64.6693 47.7034 64.94V69H46.2474ZM54.9788 72.22C54.4561 72.22 53.9335 72.136 53.4108 71.968C52.8975 71.8093 52.4821 71.5993 52.1648 71.338L52.6968 70.218C52.8835 70.358 53.1028 70.4793 53.3548 70.582C53.6068 70.694 53.8728 70.778 54.1528 70.834C54.4328 70.8993 54.7081 70.932 54.9788 70.932C55.4921 70.932 55.9215 70.848 56.2668 70.68C56.6121 70.512 56.8735 70.2647 57.0508 69.938C57.2281 69.6113 57.3168 69.2053 57.3168 68.72V67.306L57.4708 67.404C57.4241 67.6933 57.2701 67.9733 57.0088 68.244C56.7568 68.5053 56.4395 68.72 56.0568 68.888C55.6741 69.056 55.2821 69.14 54.8808 69.14C54.1808 69.14 53.5555 68.9767 53.0048 68.65C52.4635 68.314 52.0341 67.8613 51.7168 67.292C51.3995 66.7133 51.2408 66.0553 51.2408 65.318C51.2408 64.5807 51.3948 63.9273 51.7028 63.358C52.0201 62.7793 52.4495 62.3267 52.9908 62C53.5415 61.664 54.1575 61.496 54.8388 61.496C55.1188 61.496 55.3895 61.5333 55.6508 61.608C55.9121 61.6733 56.1548 61.7713 56.3788 61.902C56.6028 62.0233 56.8035 62.1587 56.9808 62.308C57.1581 62.4573 57.3028 62.616 57.4148 62.784C57.5268 62.952 57.5968 63.1107 57.6248 63.26L57.3168 63.372V61.65H58.7588V68.552C58.7588 69.14 58.6701 69.658 58.4928 70.106C58.3248 70.5633 58.0775 70.946 57.7508 71.254C57.4241 71.5713 57.0275 71.8093 56.5608 71.968C56.0941 72.136 55.5668 72.22 54.9788 72.22ZM55.0348 67.81C55.4921 67.81 55.8981 67.7027 56.2528 67.488C56.6075 67.2733 56.8828 66.9793 57.0788 66.606C57.2748 66.2327 57.3728 65.8033 57.3728 65.318C57.3728 64.8327 57.2701 64.4033 57.0648 64.03C56.8688 63.6473 56.5935 63.3487 56.2388 63.134C55.8935 62.9193 55.4921 62.812 55.0348 62.812C54.5868 62.812 54.1855 62.924 53.8308 63.148C53.4855 63.3627 53.2101 63.6613 53.0048 64.044C52.8088 64.4173 52.7108 64.842 52.7108 65.318C52.7108 65.794 52.8088 66.2233 53.0048 66.606C53.2101 66.9793 53.4855 67.2733 53.8308 67.488C54.1855 67.7027 54.5868 67.81 55.0348 67.81ZM64.2106 69.14C63.4546 69.14 62.7826 68.9813 62.1946 68.664C61.6159 68.3373 61.1586 67.894 60.8226 67.334C60.4959 66.774 60.3326 66.13 60.3326 65.402C60.3326 64.8233 60.4259 64.296 60.6126 63.82C60.7992 63.344 61.0559 62.9333 61.3826 62.588C61.7186 62.2333 62.1152 61.9627 62.5726 61.776C63.0392 61.58 63.5432 61.482 64.0846 61.482C64.5606 61.482 65.0039 61.5753 65.4146 61.762C65.8253 61.9393 66.1799 62.1867 66.4786 62.504C66.7866 62.8213 67.0199 63.1993 67.1786 63.638C67.3466 64.0673 67.4259 64.5387 67.4166 65.052L67.4026 65.668H61.3966L61.0746 64.52H66.1566L65.9466 64.758V64.422C65.9186 64.114 65.8159 63.8387 65.6386 63.596C65.4612 63.3533 65.2372 63.162 64.9666 63.022C64.6959 62.882 64.4019 62.812 64.0846 62.812C63.5806 62.812 63.1559 62.91 62.8106 63.106C62.4652 63.2927 62.2039 63.5727 62.0266 63.946C61.8492 64.31 61.7606 64.7627 61.7606 65.304C61.7606 65.8173 61.8679 66.2653 62.0826 66.648C62.2972 67.0213 62.6006 67.3107 62.9926 67.516C63.3846 67.7213 63.8372 67.824 64.3506 67.824C64.7146 67.824 65.0506 67.7633 65.3586 67.642C65.6759 67.5207 66.0166 67.3013 66.3806 66.984L67.1086 68.006C66.8846 68.23 66.6092 68.426 66.2826 68.594C65.9653 68.762 65.6246 68.8973 65.2606 69C64.9059 69.0933 64.5559 69.14 64.2106 69.14ZM68.9837 69V61.65H70.4397V63.96L70.2997 63.4C70.4024 63.0453 70.575 62.7233 70.8177 62.434C71.0697 62.1447 71.3544 61.916 71.6717 61.748C71.9984 61.58 72.3344 61.496 72.6797 61.496C72.8384 61.496 72.9877 61.51 73.1277 61.538C73.277 61.566 73.3937 61.5987 73.4777 61.636L73.0997 63.204C72.9877 63.1573 72.8617 63.12 72.7217 63.092C72.591 63.0547 72.4604 63.036 72.3297 63.036C72.0777 63.036 71.835 63.0873 71.6017 63.19C71.3777 63.2833 71.177 63.4187 70.9997 63.596C70.8317 63.764 70.6964 63.9647 70.5937 64.198C70.491 64.422 70.4397 64.6693 70.4397 64.94V69H68.9837ZM75.8622 72.22L77.3462 68.79L77.3602 69.938L73.6922 61.65H75.3722L77.6682 67.054C77.7149 67.1473 77.7709 67.292 77.8362 67.488C77.9015 67.6747 77.9575 67.8613 78.0042 68.048L77.6402 68.132C77.7149 67.936 77.7849 67.74 77.8502 67.544C77.9249 67.348 77.9949 67.152 78.0602 66.956L79.9782 61.65H81.6862L78.6622 69L77.4162 72.22H75.8622Z" fill="#002A50"/>
</svg>
