<svg width="54" height="55" viewBox="0 0 54 55" fill="none" xmlns="http://www.w3.org/2000/svg">
<path d="M19.0444 16.8066L16.3932 19.4581L34.9556 38.0187L37.6069 35.3672L19.0444 16.8066Z" fill="#2AA7FF"/>
<path d="M15.0669 54.3447C11.0606 54.3447 7.29411 52.7847 4.46155 49.951C1.62711 47.1185 0.066925 43.352 0.066925 39.3447C0.066925 35.3384 1.62693 31.571 4.46155 28.7384L28.3256 4.87416C31.1582 2.04066 34.9247 0.480469 38.9329 0.480469C42.9411 0.480469 46.7057 2.04047 49.5384 4.87416C52.3729 7.70672 53.933 11.4732 53.933 15.4805C53.933 19.4877 52.3731 23.2542 49.5384 26.0868L25.6744 49.9508C22.8418 52.7843 19.0751 54.3447 15.0669 54.3447ZM38.933 4.23047C35.9265 4.23047 33.101 5.40047 30.977 7.52541L7.11299 31.3897C4.98711 33.5146 3.81711 36.3398 3.81711 39.3447C3.81711 42.3496 4.98711 45.1748 7.11299 47.2998C9.23699 49.4247 12.0622 50.5947 15.0671 50.5947C18.0737 50.5947 20.8991 49.4247 23.0231 47.2998L46.8872 23.4357C49.0131 21.3108 50.183 18.4855 50.183 15.4807C50.183 12.4758 49.0131 9.65053 46.8872 7.52559C44.7632 5.40066 41.9379 4.23047 38.933 4.23047Z" fill="#2AA7FF"/>
<path d="M33.6285 14.7033C33.1487 14.7033 32.6691 14.5201 32.3029 14.1539C31.5705 13.4215 31.5705 12.235 32.3029 11.5024L33.6285 10.1768C35.7636 8.04006 38.9531 7.39544 41.7548 8.53169C42.7142 8.92075 43.1756 10.0139 42.7875 10.9733C42.3994 11.9337 41.3006 12.3923 40.3449 12.007C38.9441 11.4404 37.3493 11.7625 36.2799 12.8292L34.9543 14.1539C34.5881 14.5201 34.1081 14.7033 33.6285 14.7033Z" fill="#2AA7FF"/>
</svg>
