<svg width="203" height="152" viewBox="0 0 203 152" fill="none" xmlns="http://www.w3.org/2000/svg">
<rect y="0.412598" width="203" height="151.217" rx="8" fill="#FAFBFE"/>
<path d="M109.678 53.564L102 64.3113L94.3223 53.564L90.9801 55.2352C91.0239 55.3235 91.0406 55.4195 91.0997 55.5022L100.475 68.6272C100.826 69.1197 101.394 69.4126 102 69.4126C102.606 69.4126 103.174 69.1197 103.525 68.6272L112.9 55.5022C112.96 55.4195 112.976 55.3235 113.02 55.2352L109.678 53.564Z" fill="#2AA7FF"/>
<path d="M119.318 56.2784L109.052 51.1546C108.215 52.1182 107.199 52.9075 106.036 53.4659C106.213 53.7712 106.449 54.0457 106.788 54.2148L117.637 59.6292C119.529 60.5832 120.75 62.5608 120.75 64.6683V76.9126H83.25V64.6683C83.25 62.5608 84.4714 60.5832 86.3554 59.633L97.2116 54.215C97.5514 54.0459 97.7865 53.7714 97.9641 53.4661C96.8012 52.9079 95.7849 52.1184 94.9483 51.1548L84.6744 56.2822C81.5304 57.866 79.4998 61.1583 79.4998 64.6685V78.7878C79.4998 79.8241 80.3385 80.6628 81.3748 80.6628H122.625C123.661 80.6628 124.5 79.8241 124.5 78.7878V64.6685C124.5 61.1583 122.469 57.866 119.318 56.2784Z" fill="#2AA7FF"/>
<path d="M92.625 69.4126H88.875C87.8387 69.4126 87 68.5739 87 67.5376C87 66.5013 87.8387 65.6626 88.875 65.6626H92.625C93.6613 65.6626 94.5 66.5013 94.5 67.5376C94.5 68.5739 93.6613 69.4126 92.625 69.4126Z" fill="#2AA7FF"/>
<path d="M111.375 39.349C104.394 38.9292 101.463 36.2228 101.451 36.212C101.028 35.7854 100.429 35.5876 99.8246 35.6864C99.2295 35.7835 98.7169 36.1606 98.4476 36.6989L97.1183 39.3576C96.1697 39.2843 94.7049 39.1214 93.0368 38.746C92.8965 38.7147 92.7623 38.7368 92.6248 38.737V42.4885C95.7544 43.1466 98.1463 43.1624 98.2498 43.1624C98.9603 43.1624 99.6084 42.7613 99.927 42.1261L100.832 40.3171C102.767 41.4286 106.151 42.8164 111.27 43.1022C111.307 43.1035 111.339 43.0864 111.375 43.0857L111.375 39.349Z" fill="#2AA7FF"/>
<path d="M102 56.2876C95.7964 56.2876 90.75 51.2412 90.75 45.0376V39.4126C90.75 33.209 95.7964 28.1626 102 28.1626C108.204 28.1626 113.25 33.209 113.25 39.4126V45.0376C113.25 51.2412 108.204 56.2876 102 56.2876ZM102 31.9126C97.8636 31.9126 94.5 35.2762 94.5 39.4126V45.0376C94.5 49.174 97.8636 52.5376 102 52.5376C106.136 52.5376 109.5 49.174 109.5 45.0376V39.4126C109.5 35.2762 106.136 31.9126 102 31.9126Z" fill="#2AA7FF"/>
<path d="M70.5304 105.713C71.8984 105.713 73.0804 105.971 74.0764 106.487C75.0844 106.991 75.8524 107.717 76.3804 108.665C76.9204 109.613 77.1904 110.729 77.1904 112.013C77.1904 113.297 76.9204 114.413 76.3804 115.361C75.8524 116.297 75.0844 117.017 74.0764 117.521C73.0804 118.013 71.8984 118.259 70.5304 118.259H66.6244V105.713H70.5304ZM70.5304 116.909C72.1504 116.909 73.3864 116.483 74.2384 115.631C75.0904 114.767 75.5164 113.561 75.5164 112.013C75.5164 110.453 75.0844 109.235 74.2204 108.359C73.3684 107.483 72.1384 107.045 70.5304 107.045H68.2624V116.909H70.5304ZM84.0129 118.421C83.0889 118.421 82.2489 118.211 81.4929 117.791C80.7489 117.371 80.1609 116.777 79.7289 116.009C79.3089 115.229 79.0989 114.329 79.0989 113.309C79.0989 112.301 79.3149 111.413 79.7469 110.645C80.1909 109.865 80.7909 109.271 81.5469 108.863C82.3029 108.443 83.1489 108.233 84.0849 108.233C85.0209 108.233 85.8669 108.443 86.6229 108.863C87.3789 109.271 87.9729 109.859 88.4049 110.627C88.8489 111.395 89.0709 112.289 89.0709 113.309C89.0709 114.329 88.8429 115.229 88.3869 116.009C87.9429 116.777 87.3369 117.371 86.5689 117.791C85.8009 118.211 84.9489 118.421 84.0129 118.421ZM84.0129 116.981C84.6009 116.981 85.1529 116.843 85.6689 116.567C86.1849 116.291 86.5989 115.877 86.9109 115.325C87.2349 114.773 87.3969 114.101 87.3969 113.309C87.3969 112.517 87.2409 111.845 86.9289 111.293C86.6169 110.741 86.2089 110.333 85.7049 110.069C85.2009 109.793 84.6549 109.655 84.0669 109.655C83.4669 109.655 82.9149 109.793 82.4109 110.069C81.9189 110.333 81.5229 110.741 81.2229 111.293C80.9229 111.845 80.7729 112.517 80.7729 113.309C80.7729 114.113 80.9169 114.791 81.2049 115.343C81.5049 115.895 81.9009 116.309 82.3929 116.585C82.8849 116.849 83.4249 116.981 84.0129 116.981ZM90.9726 113.309C90.9726 112.289 91.1766 111.401 91.5846 110.645C91.9926 109.877 92.5566 109.283 93.2766 108.863C94.0086 108.443 94.8426 108.233 95.7786 108.233C96.9906 108.233 97.9866 108.527 98.7666 109.115C99.5586 109.703 100.081 110.519 100.333 111.563H98.5686C98.4006 110.963 98.0706 110.489 97.5786 110.141C97.0986 109.793 96.4986 109.619 95.7786 109.619C94.8426 109.619 94.0866 109.943 93.5106 110.591C92.9346 111.227 92.6466 112.133 92.6466 113.309C92.6466 114.497 92.9346 115.415 93.5106 116.063C94.0866 116.711 94.8426 117.035 95.7786 117.035C96.4986 117.035 97.0986 116.867 97.5786 116.531C98.0586 116.195 98.3886 115.715 98.5686 115.091H100.333C100.069 116.099 99.5406 116.909 98.7486 117.521C97.9566 118.121 96.9666 118.421 95.7786 118.421C94.8426 118.421 94.0086 118.211 93.2766 117.791C92.5566 117.371 91.9926 116.777 91.5846 116.009C91.1766 115.241 90.9726 114.341 90.9726 113.309ZM104.876 109.745V115.559C104.876 116.039 104.978 116.381 105.182 116.585C105.386 116.777 105.74 116.873 106.244 116.873H107.45V118.259H105.974C105.062 118.259 104.378 118.049 103.922 117.629C103.466 117.209 103.238 116.519 103.238 115.559V109.745H101.96V108.395H103.238V105.911H104.876V108.395H107.45V109.745H104.876ZM114.097 118.421C113.173 118.421 112.333 118.211 111.577 117.791C110.833 117.371 110.245 116.777 109.813 116.009C109.393 115.229 109.183 114.329 109.183 113.309C109.183 112.301 109.399 111.413 109.831 110.645C110.275 109.865 110.875 109.271 111.631 108.863C112.387 108.443 113.233 108.233 114.169 108.233C115.105 108.233 115.951 108.443 116.707 108.863C117.463 109.271 118.057 109.859 118.489 110.627C118.933 111.395 119.155 112.289 119.155 113.309C119.155 114.329 118.927 115.229 118.471 116.009C118.027 116.777 117.421 117.371 116.653 117.791C115.885 118.211 115.033 118.421 114.097 118.421ZM114.097 116.981C114.685 116.981 115.237 116.843 115.753 116.567C116.269 116.291 116.683 115.877 116.995 115.325C117.319 114.773 117.481 114.101 117.481 113.309C117.481 112.517 117.325 111.845 117.013 111.293C116.701 110.741 116.293 110.333 115.789 110.069C115.285 109.793 114.739 109.655 114.151 109.655C113.551 109.655 112.999 109.793 112.495 110.069C112.003 110.333 111.607 110.741 111.307 111.293C111.007 111.845 110.857 112.517 110.857 113.309C110.857 114.113 111.001 114.791 111.289 115.343C111.589 115.895 111.985 116.309 112.477 116.585C112.969 116.849 113.509 116.981 114.097 116.981ZM123.306 109.997C123.594 109.433 124.002 108.995 124.53 108.683C125.07 108.371 125.724 108.215 126.492 108.215V109.907H126.06C124.224 109.907 123.306 110.903 123.306 112.895V118.259H121.668V108.395H123.306V109.997ZM132.235 118.421C131.479 118.421 130.801 118.295 130.201 118.043C129.601 117.779 129.127 117.419 128.779 116.963C128.431 116.495 128.239 115.961 128.203 115.361H129.895C129.943 115.853 130.171 116.255 130.579 116.567C130.999 116.879 131.545 117.035 132.217 117.035C132.841 117.035 133.333 116.897 133.693 116.621C134.053 116.345 134.233 115.997 134.233 115.577C134.233 115.145 134.041 114.827 133.657 114.623C133.273 114.407 132.679 114.197 131.875 113.993C131.143 113.801 130.543 113.609 130.075 113.417C129.619 113.213 129.223 112.919 128.887 112.535C128.563 112.139 128.401 111.623 128.401 110.987C128.401 110.483 128.551 110.021 128.851 109.601C129.151 109.181 129.577 108.851 130.129 108.611C130.681 108.359 131.311 108.233 132.019 108.233C133.111 108.233 133.993 108.509 134.665 109.061C135.337 109.613 135.697 110.369 135.745 111.329H134.107C134.071 110.813 133.861 110.399 133.477 110.087C133.105 109.775 132.601 109.619 131.965 109.619C131.377 109.619 130.909 109.745 130.561 109.997C130.213 110.249 130.039 110.579 130.039 110.987C130.039 111.311 130.141 111.581 130.345 111.797C130.561 112.001 130.825 112.169 131.137 112.301C131.461 112.421 131.905 112.559 132.469 112.715C133.177 112.907 133.753 113.099 134.197 113.291C134.641 113.471 135.019 113.747 135.331 114.119C135.655 114.491 135.823 114.977 135.835 115.577C135.835 116.117 135.685 116.603 135.385 117.035C135.085 117.467 134.659 117.809 134.107 118.061C133.567 118.301 132.943 118.421 132.235 118.421Z" fill="#2AA7FF"/>
</svg>
