<svg width="203" height="152" viewBox="0 0 203 152" fill="none" xmlns="http://www.w3.org/2000/svg">
<rect y="0.412598" width="203" height="151.217" rx="8" fill="#FAFBFE"/>
<path d="M54.6208 106.786V110.98H59.1928V112.33H54.6208V116.65H59.7328V118H52.9828V105.436H59.7328V106.786H54.6208ZM74.4333 107.956C75.2013 107.956 75.8853 108.118 76.4853 108.442C77.0853 108.754 77.5593 109.228 77.9073 109.864C78.2553 110.5 78.4293 111.274 78.4293 112.186V118H76.8093V112.42C76.8093 111.436 76.5633 110.686 76.0713 110.17C75.5913 109.642 74.9373 109.378 74.1093 109.378C73.2573 109.378 72.5793 109.654 72.0753 110.206C71.5713 110.746 71.3193 111.532 71.3193 112.564V118H69.6993V112.42C69.6993 111.436 69.4533 110.686 68.9613 110.17C68.4813 109.642 67.8273 109.378 66.9993 109.378C66.1473 109.378 65.4693 109.654 64.9653 110.206C64.4613 110.746 64.2093 111.532 64.2093 112.564V118H62.5713V108.136H64.2093V109.558C64.5333 109.042 64.9653 108.646 65.5053 108.37C66.0573 108.094 66.6633 107.956 67.3233 107.956C68.1513 107.956 68.8833 108.142 69.5193 108.514C70.1553 108.886 70.6293 109.432 70.9413 110.152C71.2173 109.456 71.6733 108.916 72.3093 108.532C72.9453 108.148 73.6533 107.956 74.4333 107.956ZM90.4762 112.69C90.4762 113.002 90.4582 113.332 90.4222 113.68H82.5382C82.5982 114.652 82.9282 115.414 83.5282 115.966C84.1402 116.506 84.8782 116.776 85.7422 116.776C86.4502 116.776 87.0382 116.614 87.5062 116.29C87.9862 115.954 88.3222 115.51 88.5142 114.958H90.2782C90.0142 115.906 89.4862 116.68 88.6942 117.28C87.9022 117.868 86.9182 118.162 85.7422 118.162C84.8062 118.162 83.9662 117.952 83.2222 117.532C82.4902 117.112 81.9142 116.518 81.4942 115.75C81.0742 114.97 80.8642 114.07 80.8642 113.05C80.8642 112.03 81.0682 111.136 81.4762 110.368C81.8842 109.6 82.4542 109.012 83.1862 108.604C83.9302 108.184 84.7822 107.974 85.7422 107.974C86.6782 107.974 87.5062 108.178 88.2262 108.586C88.9462 108.994 89.4982 109.558 89.8822 110.278C90.2782 110.986 90.4762 111.79 90.4762 112.69ZM88.7842 112.348C88.7842 111.724 88.6462 111.19 88.3702 110.746C88.0942 110.29 87.7162 109.948 87.2362 109.72C86.7682 109.48 86.2462 109.36 85.6702 109.36C84.8422 109.36 84.1342 109.624 83.5462 110.152C82.9702 110.68 82.6402 111.412 82.5562 112.348H88.7842ZM94.6363 109.738C94.9243 109.174 95.3323 108.736 95.8603 108.424C96.4003 108.112 97.0543 107.956 97.8223 107.956V109.648H97.3903C95.5543 109.648 94.6363 110.644 94.6363 112.636V118H92.9983V108.136H94.6363V109.738ZM104.141 107.974C104.993 107.974 105.737 108.16 106.373 108.532C107.021 108.904 107.501 109.372 107.813 109.936V108.136H109.469V118.216C109.469 119.116 109.277 119.914 108.893 120.61C108.509 121.318 107.957 121.87 107.237 122.266C106.529 122.662 105.701 122.86 104.753 122.86C103.457 122.86 102.377 122.554 101.513 121.942C100.649 121.33 100.139 120.496 99.9832 119.44H101.603C101.783 120.04 102.155 120.52 102.719 120.88C103.283 121.252 103.961 121.438 104.753 121.438C105.653 121.438 106.385 121.156 106.949 120.592C107.525 120.028 107.813 119.236 107.813 118.216V116.146C107.489 116.722 107.009 117.202 106.373 117.586C105.737 117.97 104.993 118.162 104.141 118.162C103.265 118.162 102.467 117.946 101.747 117.514C101.039 117.082 100.481 116.476 100.073 115.696C99.6652 114.916 99.4612 114.028 99.4612 113.032C99.4612 112.024 99.6652 111.142 100.073 110.386C100.481 109.618 101.039 109.024 101.747 108.604C102.467 108.184 103.265 107.974 104.141 107.974ZM107.813 113.05C107.813 112.306 107.663 111.658 107.363 111.106C107.063 110.554 106.655 110.134 106.139 109.846C105.635 109.546 105.077 109.396 104.465 109.396C103.853 109.396 103.295 109.54 102.791 109.828C102.287 110.116 101.885 110.536 101.585 111.088C101.285 111.64 101.135 112.288 101.135 113.032C101.135 113.788 101.285 114.448 101.585 115.012C101.885 115.564 102.287 115.99 102.791 116.29C103.295 116.578 103.853 116.722 104.465 116.722C105.077 116.722 105.635 116.578 106.139 116.29C106.655 115.99 107.063 115.564 107.363 115.012C107.663 114.448 107.813 113.794 107.813 113.05ZM121.597 112.69C121.597 113.002 121.579 113.332 121.543 113.68H113.659C113.719 114.652 114.049 115.414 114.649 115.966C115.261 116.506 115.999 116.776 116.863 116.776C117.571 116.776 118.159 116.614 118.627 116.29C119.107 115.954 119.443 115.51 119.635 114.958H121.399C121.135 115.906 120.607 116.68 119.815 117.28C119.023 117.868 118.039 118.162 116.863 118.162C115.927 118.162 115.087 117.952 114.343 117.532C113.611 117.112 113.035 116.518 112.615 115.75C112.195 114.97 111.985 114.07 111.985 113.05C111.985 112.03 112.189 111.136 112.597 110.368C113.005 109.6 113.575 109.012 114.307 108.604C115.051 108.184 115.903 107.974 116.863 107.974C117.799 107.974 118.627 108.178 119.347 108.586C120.067 108.994 120.619 109.558 121.003 110.278C121.399 110.986 121.597 111.79 121.597 112.69ZM119.905 112.348C119.905 111.724 119.767 111.19 119.491 110.746C119.215 110.29 118.837 109.948 118.357 109.72C117.889 109.48 117.367 109.36 116.791 109.36C115.963 109.36 115.255 109.624 114.667 110.152C114.091 110.68 113.761 111.412 113.677 112.348H119.905ZM128.925 107.956C130.125 107.956 131.097 108.322 131.841 109.054C132.585 109.774 132.957 110.818 132.957 112.186V118H131.337V112.42C131.337 111.436 131.091 110.686 130.599 110.17C130.107 109.642 129.435 109.378 128.583 109.378C127.719 109.378 127.029 109.648 126.513 110.188C126.009 110.728 125.757 111.514 125.757 112.546V118H124.119V108.136H125.757V109.54C126.081 109.036 126.519 108.646 127.071 108.37C127.635 108.094 128.253 107.956 128.925 107.956ZM135.381 113.05C135.381 112.03 135.585 111.142 135.993 110.386C136.401 109.618 136.965 109.024 137.685 108.604C138.417 108.184 139.251 107.974 140.187 107.974C141.399 107.974 142.395 108.268 143.175 108.856C143.967 109.444 144.489 110.26 144.741 111.304H142.977C142.809 110.704 142.479 110.23 141.987 109.882C141.507 109.534 140.907 109.36 140.187 109.36C139.251 109.36 138.495 109.684 137.919 110.332C137.343 110.968 137.055 111.874 137.055 113.05C137.055 114.238 137.343 115.156 137.919 115.804C138.495 116.452 139.251 116.776 140.187 116.776C140.907 116.776 141.507 116.608 141.987 116.272C142.467 115.936 142.797 115.456 142.977 114.832H144.741C144.477 115.84 143.949 116.65 143.157 117.262C142.365 117.862 141.375 118.162 140.187 118.162C139.251 118.162 138.417 117.952 137.685 117.532C136.965 117.112 136.401 116.518 135.993 115.75C135.585 114.982 135.381 114.082 135.381 113.05ZM155.783 108.136L149.843 122.644H148.151L150.095 117.892L146.117 108.136H147.935L151.031 116.128L154.091 108.136H155.783ZM86.7701 138.718C86.7701 137.494 87.0461 136.396 87.5981 135.424C88.1501 134.44 88.9001 133.672 89.8481 133.12C90.8081 132.568 91.8701 132.292 93.0341 132.292C94.4021 132.292 95.5961 132.622 96.6161 133.282C97.6361 133.942 98.3801 134.878 98.8481 136.09H96.8861C96.5381 135.334 96.0341 134.752 95.3741 134.344C94.7261 133.936 93.9461 133.732 93.0341 133.732C92.1581 133.732 91.3721 133.936 90.6761 134.344C89.9801 134.752 89.4341 135.334 89.0381 136.09C88.6421 136.834 88.4441 137.71 88.4441 138.718C88.4441 139.714 88.6421 140.59 89.0381 141.346C89.4341 142.09 89.9801 142.666 90.6761 143.074C91.3721 143.482 92.1581 143.686 93.0341 143.686C93.9461 143.686 94.7261 143.488 95.3741 143.092C96.0341 142.684 96.5381 142.102 96.8861 141.346H98.8481C98.3801 142.546 97.6361 143.476 96.6161 144.136C95.5961 144.784 94.4021 145.108 93.0341 145.108C91.8701 145.108 90.8081 144.838 89.8481 144.298C88.9001 143.746 88.1501 142.984 87.5981 142.012C87.0461 141.04 86.7701 139.942 86.7701 138.718ZM101.034 140.032C101.034 139.024 101.238 138.142 101.646 137.386C102.054 136.618 102.612 136.024 103.32 135.604C104.04 135.184 104.838 134.974 105.714 134.974C106.578 134.974 107.328 135.16 107.964 135.532C108.6 135.904 109.074 136.372 109.386 136.936V135.136H111.042V145H109.386V143.164C109.062 143.74 108.576 144.22 107.928 144.604C107.292 144.976 106.548 145.162 105.696 145.162C104.82 145.162 104.028 144.946 103.32 144.514C102.612 144.082 102.054 143.476 101.646 142.696C101.238 141.916 101.034 141.028 101.034 140.032ZM109.386 140.05C109.386 139.306 109.236 138.658 108.936 138.106C108.636 137.554 108.228 137.134 107.712 136.846C107.208 136.546 106.65 136.396 106.038 136.396C105.426 136.396 104.868 136.54 104.364 136.828C103.86 137.116 103.458 137.536 103.158 138.088C102.858 138.64 102.708 139.288 102.708 140.032C102.708 140.788 102.858 141.448 103.158 142.012C103.458 142.564 103.86 142.99 104.364 143.29C104.868 143.578 105.426 143.722 106.038 143.722C106.65 143.722 107.208 143.578 107.712 143.29C108.228 142.99 108.636 142.564 108.936 142.012C109.236 141.448 109.386 140.794 109.386 140.05ZM115.808 131.68V145H114.17V131.68H115.808ZM120.598 131.68V145H118.96V131.68H120.598Z" fill="#2AA7FF"/>
<path d="M85.6667 40.375C86.8333 40.375 91.5 51.4375 91.5 52.6667C91.5 55.125 88 57.5833 86.8333 60.0417C85.6667 62.5 88 64.9583 90.3333 67.4167C91.2534 68.386 95 72.3333 97.3333 71.1042C99.6667 69.875 102 66.1875 104.333 66.1875C105.5 66.1875 116 71.1042 116 72.3333C116 77.25 112.5 80.9375 109 82.1667C105.5 83.3958 103.167 83.3958 98.5 82.1667C93.8333 80.9375 90.3333 79.7083 84.5 73.5625C78.6667 67.4167 77.5 63.7292 76.3333 58.8125C75.1667 53.8958 75.1667 51.4375 76.3333 47.75C77.5 44.0625 81 40.375 85.6667 40.375Z" fill="#2AA7FF" stroke="black" stroke-width="2" stroke-linecap="round" stroke-linejoin="round"/>
<path d="M99.6667 50.3166C101.209 51.0622 102.6 52.0943 103.779 53.3482L99.6667 50.3166ZM106.564 57.5833C105.875 56.001 104.927 54.5694 103.779 53.3482L106.564 57.5833Z" fill="#2AA7FF"/>
<path d="M99.6667 50.3166C101.209 51.0622 102.6 52.0943 103.779 53.3482C104.927 54.5694 105.875 56.001 106.564 57.5833" stroke="black" stroke-width="2" stroke-linecap="round" stroke-linejoin="round"/>
<path d="M115.412 55.125C114.571 51.6815 112.867 48.603 110.557 46.1607L115.412 55.125ZM102 40.9946C105.291 41.887 108.231 43.7014 110.557 46.1607L102 40.9946Z" fill="#2AA7FF"/>
<path d="M115.412 55.125C114.571 51.6815 112.867 48.603 110.557 46.1607C108.231 43.7014 105.291 41.887 102 40.9946" stroke="black" stroke-width="2" stroke-linecap="round" stroke-linejoin="round"/>
</svg>
