<svg width="203" height="152" viewBox="0 0 203 152" fill="none" xmlns="http://www.w3.org/2000/svg">
<rect y="0.412598" width="203" height="151.217" rx="8" fill="#FAFBFE"/>
<path d="M63.5075 111.977C63.5075 110.753 63.7835 109.655 64.3355 108.683C64.8875 107.699 65.6375 106.931 66.5855 106.379C67.5455 105.827 68.6075 105.551 69.7715 105.551C71.1395 105.551 72.3335 105.881 73.3535 106.541C74.3735 107.201 75.1175 108.137 75.5855 109.349H73.6235C73.2755 108.593 72.7715 108.011 72.1115 107.603C71.4635 107.195 70.6835 106.991 69.7715 106.991C68.8955 106.991 68.1095 107.195 67.4135 107.603C66.7175 108.011 66.1715 108.593 65.7755 109.349C65.3795 110.093 65.1815 110.969 65.1815 111.977C65.1815 112.973 65.3795 113.849 65.7755 114.605C66.1715 115.349 66.7175 115.925 67.4135 116.333C68.1095 116.741 68.8955 116.945 69.7715 116.945C70.6835 116.945 71.4635 116.747 72.1115 116.351C72.7715 115.943 73.2755 115.361 73.6235 114.605H75.5855C75.1175 115.805 74.3735 116.735 73.3535 117.395C72.3335 118.043 71.1395 118.367 69.7715 118.367C68.6075 118.367 67.5455 118.097 66.5855 117.557C65.6375 117.005 64.8875 116.243 64.3355 115.271C63.7835 114.299 63.5075 113.201 63.5075 111.977ZM83.2798 108.215C84.0238 108.215 84.6958 108.377 85.2958 108.701C85.8958 109.013 86.3638 109.487 86.6998 110.123C87.0478 110.759 87.2218 111.533 87.2218 112.445V118.259H85.6018V112.679C85.6018 111.695 85.3558 110.945 84.8638 110.429C84.3718 109.901 83.6998 109.637 82.8478 109.637C81.9838 109.637 81.2938 109.907 80.7778 110.447C80.2738 110.987 80.0218 111.773 80.0218 112.805V118.259H78.3838V104.939H80.0218V109.799C80.3458 109.295 80.7898 108.905 81.3538 108.629C81.9298 108.353 82.5718 108.215 83.2798 108.215ZM89.6454 113.291C89.6454 112.283 89.8494 111.401 90.2574 110.645C90.6654 109.877 91.2234 109.283 91.9314 108.863C92.6514 108.443 93.4494 108.233 94.3254 108.233C95.1894 108.233 95.9394 108.419 96.5754 108.791C97.2114 109.163 97.6854 109.631 97.9974 110.195V108.395H99.6534V118.259H97.9974V116.423C97.6734 116.999 97.1874 117.479 96.5394 117.863C95.9034 118.235 95.1594 118.421 94.3074 118.421C93.4314 118.421 92.6394 118.205 91.9314 117.773C91.2234 117.341 90.6654 116.735 90.2574 115.955C89.8494 115.175 89.6454 114.287 89.6454 113.291ZM97.9974 113.309C97.9974 112.565 97.8474 111.917 97.5474 111.365C97.2474 110.813 96.8394 110.393 96.3234 110.105C95.8194 109.805 95.2614 109.655 94.6494 109.655C94.0374 109.655 93.4794 109.799 92.9754 110.087C92.4714 110.375 92.0694 110.795 91.7694 111.347C91.4694 111.899 91.3194 112.547 91.3194 113.291C91.3194 114.047 91.4694 114.707 91.7694 115.271C92.0694 115.823 92.4714 116.249 92.9754 116.549C93.4794 116.837 94.0374 116.981 94.6494 116.981C95.2614 116.981 95.8194 116.837 96.3234 116.549C96.8394 116.249 97.2474 115.823 97.5474 115.271C97.8474 114.707 97.9974 114.053 97.9974 113.309ZM104.78 109.745V115.559C104.78 116.039 104.882 116.381 105.086 116.585C105.29 116.777 105.644 116.873 106.148 116.873H107.354V118.259H105.878C104.966 118.259 104.282 118.049 103.826 117.629C103.37 117.209 103.142 116.519 103.142 115.559V109.745H101.864V108.395H103.142V105.911H104.78V108.395H107.354V109.745H104.78ZM111.336 110.231C111.672 109.643 112.164 109.163 112.812 108.791C113.46 108.419 114.198 108.233 115.026 108.233C115.914 108.233 116.712 108.443 117.42 108.863C118.128 109.283 118.686 109.877 119.094 110.645C119.502 111.401 119.706 112.283 119.706 113.291C119.706 114.287 119.502 115.175 119.094 115.955C118.686 116.735 118.122 117.341 117.402 117.773C116.694 118.205 115.902 118.421 115.026 118.421C114.174 118.421 113.424 118.235 112.776 117.863C112.14 117.491 111.66 117.017 111.336 116.441V118.259H109.698V104.939H111.336V110.231ZM118.032 113.291C118.032 112.547 117.882 111.899 117.582 111.347C117.282 110.795 116.874 110.375 116.358 110.087C115.854 109.799 115.296 109.655 114.684 109.655C114.084 109.655 113.526 109.805 113.01 110.105C112.506 110.393 112.098 110.819 111.786 111.383C111.486 111.935 111.336 112.577 111.336 113.309C111.336 114.053 111.486 114.707 111.786 115.271C112.098 115.823 112.506 116.249 113.01 116.549C113.526 116.837 114.084 116.981 114.684 116.981C115.296 116.981 115.854 116.837 116.358 116.549C116.874 116.249 117.282 115.823 117.582 115.271C117.882 114.707 118.032 114.047 118.032 113.291ZM126.524 118.421C125.6 118.421 124.76 118.211 124.004 117.791C123.26 117.371 122.672 116.777 122.24 116.009C121.82 115.229 121.61 114.329 121.61 113.309C121.61 112.301 121.826 111.413 122.258 110.645C122.702 109.865 123.302 109.271 124.058 108.863C124.814 108.443 125.66 108.233 126.596 108.233C127.532 108.233 128.378 108.443 129.134 108.863C129.89 109.271 130.484 109.859 130.916 110.627C131.36 111.395 131.582 112.289 131.582 113.309C131.582 114.329 131.354 115.229 130.898 116.009C130.454 116.777 129.848 117.371 129.08 117.791C128.312 118.211 127.46 118.421 126.524 118.421ZM126.524 116.981C127.112 116.981 127.664 116.843 128.18 116.567C128.696 116.291 129.11 115.877 129.422 115.325C129.746 114.773 129.908 114.101 129.908 113.309C129.908 112.517 129.752 111.845 129.44 111.293C129.128 110.741 128.72 110.333 128.216 110.069C127.712 109.793 127.166 109.655 126.578 109.655C125.978 109.655 125.426 109.793 124.922 110.069C124.43 110.333 124.034 110.741 123.734 111.293C123.434 111.845 123.284 112.517 123.284 113.309C123.284 114.113 123.428 114.791 123.716 115.343C124.016 115.895 124.412 116.309 124.904 116.585C125.396 116.849 125.936 116.981 126.524 116.981ZM136.094 109.745V115.559C136.094 116.039 136.196 116.381 136.4 116.585C136.604 116.777 136.958 116.873 137.462 116.873H138.668V118.259H137.192C136.28 118.259 135.596 118.049 135.14 117.629C134.684 117.209 134.456 116.519 134.456 115.559V109.745H133.178V108.395H134.456V105.911H136.094V108.395H138.668V109.745H136.094Z" fill="#2AA7FF"/>
<path d="M102.496 32C96.9615 32 91.4265 32.115 86.2605 32.4025C82.9817 32.5685 79.8886 33.6469 77.545 35.4412C75.2014 37.2355 73.7634 39.6262 73.4931 42.1775C72.9027 48.33 72.8289 54.425 73.3455 60.5775C73.6284 63.3118 75.2339 65.8602 77.8372 67.707C80.4405 69.5538 83.847 70.5611 87.3675 70.525H95.1165V63.05H87.3675C85.0797 63.1075 83.0871 61.8425 82.8657 60.06C82.4229 54.31 82.4967 48.56 83.0133 42.81C83.1609 41.2 84.7845 39.9925 86.8509 39.8775C91.8693 39.59 97.1829 39.475 102.496 39.475C107.81 39.475 113.124 39.6475 118.142 39.82C120.135 39.935 121.832 41.1425 121.98 42.7525C122.57 48.5025 122.57 54.2525 122.127 60.0025C121.832 61.785 119.913 63.1075 117.625 63.05H109.876L95.1165 70.525V78L109.876 70.525H117.625C124.932 70.5825 131.057 66.2125 131.647 60.5775C132.164 54.4825 132.09 48.33 131.574 42.235C131.303 39.6837 129.865 37.293 127.522 35.4987C125.178 33.7044 122.085 32.626 118.806 32.46C113.566 32.115 108.031 32 102.496 32ZM90.0981 48.79C89.2125 48.79 88.4745 49.365 88.4745 50.055V54.54C88.4745 55.1725 88.9173 55.7475 89.6553 56.035C93.6405 57.53 98.0685 58.335 102.496 58.45C106.924 58.335 111.352 57.53 115.338 56.035C116.076 55.7475 116.518 55.1725 116.518 54.54V50.055C116.518 49.8825 116.445 49.7675 116.297 49.6525C116.22 49.4947 116.102 49.3509 115.95 49.2299C115.799 49.1088 115.618 49.0131 115.418 48.9485C115.217 48.8839 115.002 48.8518 114.785 48.8542C114.569 48.8567 114.355 48.8935 114.157 48.9625C110.467 50.2275 106.482 50.9175 102.423 50.975C98.3637 50.9175 94.3785 50.17 90.6885 48.905C90.505 48.8332 90.3033 48.7939 90.0981 48.79Z" fill="#2AA7FF"/>
</svg>
