<svg width="203" height="152" viewBox="0 0 203 152" fill="none" xmlns="http://www.w3.org/2000/svg">
<rect x="0.5" y="0.912598" width="202" height="150.217" rx="7.5" fill="#2AA7FF" fill-opacity="0.08" stroke="#2AA7FF"/>
<path d="M124.5 80.6626H102C100.965 80.6626 100.125 79.823 100.125 78.7876V30.0376C100.125 29.0022 100.965 28.1626 102 28.1626H124.5C125.535 28.1626 126.375 29.0022 126.375 30.0376V78.7876C126.375 79.823 125.535 80.6626 124.5 80.6626ZM103.875 76.9126H122.625V31.9126H103.875V76.9126Z" fill="#2AA7FF"/>
<path d="M117 80.6626H109.5C108.465 80.6626 107.625 79.823 107.625 78.7876V67.5376C107.625 66.5022 108.465 65.6626 109.5 65.6626H117C118.035 65.6626 118.875 66.5022 118.875 67.5376V78.7876C118.875 79.823 118.035 80.6626 117 80.6626ZM111.375 76.9126H115.125V69.4126H111.375V76.9126Z" fill="#2AA7FF"/>
<path d="M102 80.6626H79.5C78.4646 80.6626 77.625 79.823 77.625 78.7876V48.7876C77.625 47.7522 78.4646 46.9126 79.5 46.9126H102C103.035 46.9126 103.875 47.7522 103.875 48.7876V78.7876C103.875 79.823 103.035 80.6626 102 80.6626ZM81.375 76.9126H100.125V50.6626H81.375V76.9126Z" fill="#2AA7FF"/>
<path d="M117 39.4126H115.125V37.5376C115.125 36.5022 114.285 35.6626 113.25 35.6626C112.215 35.6626 111.375 36.5022 111.375 37.5376V39.4126H109.5C108.465 39.4126 107.625 40.2522 107.625 41.2876C107.625 42.323 108.465 43.1626 109.5 43.1626H111.375V45.0376C111.375 46.073 112.215 46.9126 113.25 46.9126C114.285 46.9126 115.125 46.073 115.125 45.0376V43.1626H117C118.035 43.1626 118.875 42.323 118.875 41.2876C118.875 40.2522 118.035 39.4126 117 39.4126Z" fill="#2AA7FF"/>
<path d="M87 61.9126C85.9646 61.9126 85.125 61.073 85.125 60.0376V56.2876C85.125 55.2522 85.9646 54.4126 87 54.4126C88.0354 54.4126 88.875 55.2522 88.875 56.2876V60.0376C88.875 61.073 88.0354 61.9126 87 61.9126Z" fill="#2AA7FF"/>
<path d="M87 73.1626C85.9646 73.1626 85.125 72.323 85.125 71.2876V67.5376C85.125 66.5022 85.9646 65.6626 87 65.6626C88.0354 65.6626 88.875 66.5022 88.875 67.5376V71.2876C88.875 72.323 88.0354 73.1626 87 73.1626Z" fill="#2AA7FF"/>
<path d="M94.5 61.9126C93.4646 61.9126 92.625 61.073 92.625 60.0376V56.2876C92.625 55.2522 93.4646 54.4126 94.5 54.4126C95.5354 54.4126 96.375 55.2522 96.375 56.2876V60.0376C96.375 61.073 95.5354 61.9126 94.5 61.9126Z" fill="#2AA7FF"/>
<path d="M94.5 73.1626C93.4646 73.1626 92.625 72.323 92.625 71.2876V67.5376C92.625 66.5022 93.4646 65.6626 94.5 65.6626C95.5354 65.6626 96.375 66.5022 96.375 67.5376V71.2876C96.375 72.323 95.5354 73.1626 94.5 73.1626Z" fill="#2AA7FF"/>
<path d="M117 61.9126H109.5C108.465 61.9126 107.625 61.073 107.625 60.0376C107.625 59.0022 108.465 58.1626 109.5 58.1626H117C118.035 58.1626 118.875 59.0022 118.875 60.0376C118.875 61.073 118.035 61.9126 117 61.9126Z" fill="#2AA7FF"/>
<path d="M90.4529 105.695V107.729H85.2149V110.951H89.2289V112.949H85.2149V118.259H82.6949V105.695H90.4529ZM93.8778 107.099C93.4338 107.099 93.0618 106.961 92.7618 106.685C92.4738 106.397 92.3298 106.043 92.3298 105.623C92.3298 105.203 92.4738 104.855 92.7618 104.579C93.0618 104.291 93.4338 104.147 93.8778 104.147C94.3218 104.147 94.6878 104.291 94.9758 104.579C95.2758 104.855 95.4258 105.203 95.4258 105.623C95.4258 106.043 95.2758 106.397 94.9758 106.685C94.6878 106.961 94.3218 107.099 93.8778 107.099ZM95.1198 108.287V118.259H92.5998V108.287H95.1198ZM103.496 108.143C104.684 108.143 105.644 108.521 106.376 109.277C107.108 110.021 107.474 111.065 107.474 112.409V118.259H104.954V112.751C104.954 111.959 104.756 111.353 104.36 110.933C103.964 110.501 103.424 110.285 102.74 110.285C102.044 110.285 101.492 110.501 101.084 110.933C100.688 111.353 100.49 111.959 100.49 112.751V118.259H97.9695V108.287H100.49V109.529C100.826 109.097 101.252 108.761 101.768 108.521C102.296 108.269 102.872 108.143 103.496 108.143ZM109.582 113.237C109.582 112.229 109.78 111.335 110.176 110.555C110.584 109.775 111.136 109.175 111.832 108.755C112.528 108.335 113.302 108.125 114.154 108.125C114.802 108.125 115.42 108.269 116.008 108.557C116.596 108.833 117.064 109.205 117.412 109.673V104.939H119.968V118.259H117.412V116.783C117.1 117.275 116.662 117.671 116.098 117.971C115.534 118.271 114.88 118.421 114.136 118.421C113.296 118.421 112.528 118.205 111.832 117.773C111.136 117.341 110.584 116.735 110.176 115.955C109.78 115.163 109.582 114.257 109.582 113.237ZM117.43 113.273C117.43 112.661 117.31 112.139 117.07 111.707C116.83 111.263 116.506 110.927 116.098 110.699C115.69 110.459 115.252 110.339 114.784 110.339C114.316 110.339 113.884 110.453 113.488 110.681C113.092 110.909 112.768 111.245 112.516 111.689C112.276 112.121 112.156 112.637 112.156 113.237C112.156 113.837 112.276 114.365 112.516 114.821C112.768 115.265 113.092 115.607 113.488 115.847C113.896 116.087 114.328 116.207 114.784 116.207C115.252 116.207 115.69 116.093 116.098 115.865C116.506 115.625 116.83 115.289 117.07 114.857C117.31 114.413 117.43 113.885 117.43 113.273ZM70.678 132.695C71.998 132.695 73.156 132.953 74.152 133.469C75.16 133.985 75.934 134.723 76.474 135.683C77.026 136.631 77.302 137.735 77.302 138.995C77.302 140.255 77.026 141.359 76.474 142.307C75.934 143.243 75.16 143.969 74.152 144.485C73.156 145.001 71.998 145.259 70.678 145.259H66.286V132.695H70.678ZM70.588 143.117C71.908 143.117 72.928 142.757 73.648 142.037C74.368 141.317 74.728 140.303 74.728 138.995C74.728 137.687 74.368 136.667 73.648 135.935C72.928 135.191 71.908 134.819 70.588 134.819H68.806V143.117H70.588ZM83.9764 145.421C83.0164 145.421 82.1524 145.211 81.3844 144.791C80.6164 144.359 80.0104 143.753 79.5664 142.973C79.1344 142.193 78.9184 141.293 78.9184 140.273C78.9184 139.253 79.1404 138.353 79.5844 137.573C80.0404 136.793 80.6584 136.193 81.4384 135.773C82.2184 135.341 83.0884 135.125 84.0484 135.125C85.0084 135.125 85.8784 135.341 86.6584 135.773C87.4384 136.193 88.0504 136.793 88.4944 137.573C88.9504 138.353 89.1784 139.253 89.1784 140.273C89.1784 141.293 88.9444 142.193 88.4764 142.973C88.0204 143.753 87.3964 144.359 86.6044 144.791C85.8244 145.211 84.9484 145.421 83.9764 145.421ZM83.9764 143.225C84.4324 143.225 84.8584 143.117 85.2544 142.901C85.6624 142.673 85.9864 142.337 86.2264 141.893C86.4664 141.449 86.5864 140.909 86.5864 140.273C86.5864 139.325 86.3344 138.599 85.8304 138.095C85.3384 137.579 84.7324 137.321 84.0124 137.321C83.2924 137.321 82.6864 137.579 82.1944 138.095C81.7144 138.599 81.4744 139.325 81.4744 140.273C81.4744 141.221 81.7084 141.953 82.1764 142.469C82.6564 142.973 83.2564 143.225 83.9764 143.225ZM90.7389 140.273C90.7389 139.241 90.9489 138.341 91.3689 137.573C91.7889 136.793 92.3709 136.193 93.1149 135.773C93.8589 135.341 94.7109 135.125 95.6709 135.125C96.9069 135.125 97.9269 135.437 98.7309 136.061C99.5469 136.673 100.093 137.537 100.369 138.653H97.6509C97.5069 138.221 97.2609 137.885 96.9129 137.645C96.5769 137.393 96.1569 137.267 95.6529 137.267C94.9329 137.267 94.3629 137.531 93.9429 138.059C93.5229 138.575 93.3129 139.313 93.3129 140.273C93.3129 141.221 93.5229 141.959 93.9429 142.487C94.3629 143.003 94.9329 143.261 95.6529 143.261C96.6729 143.261 97.3389 142.805 97.6509 141.893H100.369C100.093 142.973 99.5469 143.831 98.7309 144.467C97.9149 145.103 96.8949 145.421 95.6709 145.421C94.7109 145.421 93.8589 145.211 93.1149 144.791C92.3709 144.359 91.7889 143.759 91.3689 142.991C90.9489 142.211 90.7389 141.305 90.7389 140.273ZM105.509 137.357V142.181C105.509 142.517 105.587 142.763 105.743 142.919C105.911 143.063 106.187 143.135 106.571 143.135H107.741V145.259H106.157C104.033 145.259 102.971 144.227 102.971 142.163V137.357H101.783V135.287H102.971V132.821H105.509V135.287H107.741V137.357H105.509ZM114.342 145.421C113.382 145.421 112.518 145.211 111.75 144.791C110.982 144.359 110.376 143.753 109.932 142.973C109.5 142.193 109.284 141.293 109.284 140.273C109.284 139.253 109.506 138.353 109.95 137.573C110.406 136.793 111.024 136.193 111.804 135.773C112.584 135.341 113.454 135.125 114.414 135.125C115.374 135.125 116.244 135.341 117.024 135.773C117.804 136.193 118.416 136.793 118.86 137.573C119.316 138.353 119.544 139.253 119.544 140.273C119.544 141.293 119.31 142.193 118.842 142.973C118.386 143.753 117.762 144.359 116.97 144.791C116.19 145.211 115.314 145.421 114.342 145.421ZM114.342 143.225C114.798 143.225 115.224 143.117 115.62 142.901C116.028 142.673 116.352 142.337 116.592 141.893C116.832 141.449 116.952 140.909 116.952 140.273C116.952 139.325 116.7 138.599 116.196 138.095C115.704 137.579 115.098 137.321 114.378 137.321C113.658 137.321 113.052 137.579 112.56 138.095C112.08 138.599 111.84 139.325 111.84 140.273C111.84 141.221 112.074 141.953 112.542 142.469C113.022 142.973 113.622 143.225 114.342 143.225ZM124.272 136.835C124.596 136.307 125.016 135.893 125.532 135.593C126.06 135.293 126.66 135.143 127.332 135.143V137.789H126.666C125.874 137.789 125.274 137.975 124.866 138.347C124.47 138.719 124.272 139.367 124.272 140.291V145.259H121.752V135.287H124.272V136.835ZM133.205 145.421C132.389 145.421 131.657 145.277 131.009 144.989C130.361 144.689 129.845 144.287 129.461 143.783C129.089 143.279 128.885 142.721 128.849 142.109H131.387C131.435 142.493 131.621 142.811 131.945 143.063C132.281 143.315 132.695 143.441 133.187 143.441C133.667 143.441 134.039 143.345 134.303 143.153C134.579 142.961 134.717 142.715 134.717 142.415C134.717 142.091 134.549 141.851 134.213 141.695C133.889 141.527 133.367 141.347 132.647 141.155C131.903 140.975 131.291 140.789 130.811 140.597C130.343 140.405 129.935 140.111 129.587 139.715C129.251 139.319 129.083 138.785 129.083 138.113C129.083 137.561 129.239 137.057 129.551 136.601C129.875 136.145 130.331 135.785 130.919 135.521C131.519 135.257 132.221 135.125 133.025 135.125C134.213 135.125 135.161 135.425 135.869 136.025C136.577 136.613 136.967 137.411 137.039 138.419H134.627C134.591 138.023 134.423 137.711 134.123 137.483C133.835 137.243 133.445 137.123 132.953 137.123C132.497 137.123 132.143 137.207 131.891 137.375C131.651 137.543 131.531 137.777 131.531 138.077C131.531 138.413 131.699 138.671 132.035 138.851C132.371 139.019 132.893 139.193 133.601 139.373C134.321 139.553 134.915 139.739 135.383 139.931C135.851 140.123 136.253 140.423 136.589 140.831C136.937 141.227 137.117 141.755 137.129 142.415C137.129 142.991 136.967 143.507 136.643 143.963C136.331 144.419 135.875 144.779 135.275 145.043C134.687 145.295 133.997 145.421 133.205 145.421Z" fill="#2AA7FF"/>
</svg>
