<svg width="203" height="152" viewBox="0 0 203 152" fill="none" xmlns="http://www.w3.org/2000/svg">
<rect y="0.412598" width="203" height="151.217" rx="8" fill="#FAFBFE"/>
<path d="M94.0444 43.8066L91.3932 46.4581L109.956 65.0187L112.607 62.3672L94.0444 43.8066Z" fill="#2AA7FF"/>
<path d="M90.0669 81.3447C86.0606 81.3447 82.2941 79.7847 79.4616 76.951C76.6271 74.1185 75.0669 70.352 75.0669 66.3447C75.0669 62.3384 76.6269 58.571 79.4616 55.7384L103.326 31.8742C106.158 29.0407 109.925 27.4805 113.933 27.4805C117.941 27.4805 121.706 29.0405 124.538 31.8742C127.373 34.7067 128.933 38.4732 128.933 42.4805C128.933 46.4877 127.373 50.2542 124.538 53.0868L100.674 76.9508C97.8418 79.7843 94.0751 81.3447 90.0669 81.3447ZM113.933 31.2305C110.926 31.2305 108.101 32.4005 105.977 34.5254L82.113 58.3897C79.9871 60.5146 78.8171 63.3398 78.8171 66.3447C78.8171 69.3496 79.9871 72.1748 82.113 74.2998C84.237 76.4247 87.0622 77.5947 90.0671 77.5947C93.0737 77.5947 95.8991 76.4247 98.0231 74.2998L121.887 50.4357C124.013 48.3108 125.183 45.4855 125.183 42.4807C125.183 39.4758 124.013 36.6505 121.887 34.5256C119.763 32.4007 116.938 31.2305 113.933 31.2305Z" fill="#2AA7FF"/>
<path d="M108.629 41.7033C108.149 41.7033 107.669 41.5201 107.303 41.1539C106.571 40.4215 106.571 39.235 107.303 38.5024L108.629 37.1768C110.764 35.0401 113.953 34.3954 116.755 35.5317C117.714 35.9208 118.176 37.0139 117.788 37.9733C117.399 38.9337 116.301 39.3923 115.345 39.007C113.944 38.4404 112.349 38.7625 111.28 39.8292L109.954 41.1539C109.588 41.5201 109.108 41.7033 108.629 41.7033Z" fill="#2AA7FF"/>
<path d="M52.4032 105.803V118.259H50.7652V108.971L46.6252 118.259H45.4732L41.3152 108.953V118.259H39.6772V105.803H41.4412L46.0492 116.099L50.6572 105.803H52.4032ZM64.5411 112.949C64.5411 113.261 64.5231 113.591 64.4871 113.939H56.6031C56.6631 114.911 56.9931 115.673 57.5931 116.225C58.2051 116.765 58.9431 117.035 59.8071 117.035C60.5151 117.035 61.1031 116.873 61.5711 116.549C62.0511 116.213 62.3871 115.769 62.5791 115.217H64.3431C64.0791 116.165 63.5511 116.939 62.7591 117.539C61.9671 118.127 60.9831 118.421 59.8071 118.421C58.8711 118.421 58.0311 118.211 57.2871 117.791C56.5551 117.371 55.9791 116.777 55.5591 116.009C55.1391 115.229 54.9291 114.329 54.9291 113.309C54.9291 112.289 55.1331 111.395 55.5411 110.627C55.9491 109.859 56.5191 109.271 57.2511 108.863C57.9951 108.443 58.8471 108.233 59.8071 108.233C60.7431 108.233 61.5711 108.437 62.2911 108.845C63.0111 109.253 63.5631 109.817 63.9471 110.537C64.3431 111.245 64.5411 112.049 64.5411 112.949ZM62.8491 112.607C62.8491 111.983 62.7111 111.449 62.4351 111.005C62.1591 110.549 61.7811 110.207 61.3011 109.979C60.8331 109.739 60.3111 109.619 59.7351 109.619C58.9071 109.619 58.1991 109.883 57.6111 110.411C57.0351 110.939 56.7051 111.671 56.6211 112.607H62.8491ZM66.4512 113.291C66.4512 112.283 66.6552 111.401 67.0632 110.645C67.4712 109.877 68.0292 109.283 68.7372 108.863C69.4572 108.443 70.2612 108.233 71.1492 108.233C71.9172 108.233 72.6312 108.413 73.2912 108.773C73.9512 109.121 74.4552 109.583 74.8032 110.159V104.939H76.4592V118.259H74.8032V116.405C74.4792 116.993 73.9992 117.479 73.3632 117.863C72.7272 118.235 71.9832 118.421 71.1312 118.421C70.2552 118.421 69.4572 118.205 68.7372 117.773C68.0292 117.341 67.4712 116.735 67.0632 115.955C66.6552 115.175 66.4512 114.287 66.4512 113.291ZM74.8032 113.309C74.8032 112.565 74.6532 111.917 74.3532 111.365C74.0532 110.813 73.6452 110.393 73.1292 110.105C72.6252 109.805 72.0672 109.655 71.4552 109.655C70.8432 109.655 70.2852 109.799 69.7812 110.087C69.2772 110.375 68.8752 110.795 68.5752 111.347C68.2752 111.899 68.1252 112.547 68.1252 113.291C68.1252 114.047 68.2752 114.707 68.5752 115.271C68.8752 115.823 69.2772 116.249 69.7812 116.549C70.2852 116.837 70.8432 116.981 71.4552 116.981C72.0672 116.981 72.6252 116.837 73.1292 116.549C73.6452 116.249 74.0532 115.823 74.3532 115.271C74.6532 114.707 74.8032 114.053 74.8032 113.309ZM80.4333 106.793C80.1213 106.793 79.8573 106.685 79.6413 106.469C79.4253 106.253 79.3173 105.989 79.3173 105.677C79.3173 105.365 79.4253 105.101 79.6413 104.885C79.8573 104.669 80.1213 104.561 80.4333 104.561C80.7333 104.561 80.9853 104.669 81.1893 104.885C81.4053 105.101 81.5133 105.365 81.5133 105.677C81.5133 105.989 81.4053 106.253 81.1893 106.469C80.9853 106.685 80.7333 106.793 80.4333 106.793ZM81.2253 108.395V118.259H79.5873V108.395H81.2253ZM83.7649 113.309C83.7649 112.289 83.9689 111.401 84.3769 110.645C84.7849 109.877 85.3489 109.283 86.0689 108.863C86.8009 108.443 87.6349 108.233 88.5709 108.233C89.7829 108.233 90.7789 108.527 91.5589 109.115C92.3509 109.703 92.8729 110.519 93.1249 111.563H91.3609C91.1929 110.963 90.8629 110.489 90.3709 110.141C89.8909 109.793 89.2909 109.619 88.5709 109.619C87.6349 109.619 86.8789 109.943 86.3029 110.591C85.7269 111.227 85.4389 112.133 85.4389 113.309C85.4389 114.497 85.7269 115.415 86.3029 116.063C86.8789 116.711 87.6349 117.035 88.5709 117.035C89.2909 117.035 89.8909 116.867 90.3709 116.531C90.8509 116.195 91.1809 115.715 91.3609 115.091H93.1249C92.8609 116.099 92.3329 116.909 91.5409 117.521C90.7489 118.121 89.7589 118.421 88.5709 118.421C87.6349 118.421 86.8009 118.211 86.0689 117.791C85.3489 117.371 84.7849 116.777 84.3769 116.009C83.9689 115.241 83.7649 114.341 83.7649 113.309ZM95.0585 113.291C95.0585 112.283 95.2625 111.401 95.6705 110.645C96.0785 109.877 96.6365 109.283 97.3445 108.863C98.0645 108.443 98.8625 108.233 99.7385 108.233C100.603 108.233 101.353 108.419 101.989 108.791C102.625 109.163 103.099 109.631 103.411 110.195V108.395H105.067V118.259H103.411V116.423C103.087 116.999 102.601 117.479 101.953 117.863C101.317 118.235 100.573 118.421 99.7205 118.421C98.8445 118.421 98.0525 118.205 97.3445 117.773C96.6365 117.341 96.0785 116.735 95.6705 115.955C95.2625 115.175 95.0585 114.287 95.0585 113.291ZM103.411 113.309C103.411 112.565 103.261 111.917 102.961 111.365C102.661 110.813 102.253 110.393 101.737 110.105C101.233 109.805 100.675 109.655 100.063 109.655C99.4505 109.655 98.8925 109.799 98.3885 110.087C97.8845 110.375 97.4825 110.795 97.1825 111.347C96.8825 111.899 96.7325 112.547 96.7325 113.291C96.7325 114.047 96.8825 114.707 97.1825 115.271C97.4825 115.823 97.8845 116.249 98.3885 116.549C98.8925 116.837 99.4505 116.981 100.063 116.981C100.675 116.981 101.233 116.837 101.737 116.549C102.253 116.249 102.661 115.823 102.961 115.271C103.261 114.707 103.411 114.053 103.411 113.309ZM109.833 104.939V118.259H108.195V104.939H109.833ZM122.121 118.385C121.293 118.385 120.549 118.241 119.889 117.953C119.241 117.653 118.731 117.245 118.359 116.729C117.987 116.201 117.795 115.595 117.783 114.911H119.529C119.589 115.499 119.829 115.997 120.249 116.405C120.681 116.801 121.305 116.999 122.121 116.999C122.901 116.999 123.513 116.807 123.957 116.423C124.413 116.027 124.641 115.523 124.641 114.911C124.641 114.431 124.509 114.041 124.245 113.741C123.981 113.441 123.651 113.213 123.255 113.057C122.859 112.901 122.325 112.733 121.653 112.553C120.825 112.337 120.159 112.121 119.655 111.905C119.163 111.689 118.737 111.353 118.377 110.897C118.029 110.429 117.855 109.805 117.855 109.025C117.855 108.341 118.029 107.735 118.377 107.207C118.725 106.679 119.211 106.271 119.835 105.983C120.471 105.695 121.197 105.551 122.013 105.551C123.189 105.551 124.149 105.845 124.893 106.433C125.649 107.021 126.075 107.801 126.171 108.773H124.371C124.311 108.293 124.059 107.873 123.615 107.513C123.171 107.141 122.583 106.955 121.851 106.955C121.167 106.955 120.609 107.135 120.177 107.495C119.745 107.843 119.529 108.335 119.529 108.971C119.529 109.427 119.655 109.799 119.907 110.087C120.171 110.375 120.489 110.597 120.861 110.753C121.245 110.897 121.779 111.065 122.463 111.257C123.291 111.485 123.957 111.713 124.461 111.941C124.965 112.157 125.397 112.499 125.757 112.967C126.117 113.423 126.297 114.047 126.297 114.839C126.297 115.451 126.135 116.027 125.811 116.567C125.487 117.107 125.007 117.545 124.371 117.881C123.735 118.217 122.985 118.385 122.121 118.385ZM131.066 109.745V115.559C131.066 116.039 131.168 116.381 131.372 116.585C131.576 116.777 131.93 116.873 132.434 116.873H133.64V118.259H132.164C131.252 118.259 130.568 118.049 130.112 117.629C129.656 117.209 129.428 116.519 129.428 115.559V109.745H128.15V108.395H129.428V105.911H131.066V108.395H133.64V109.745H131.066ZM140.286 118.421C139.362 118.421 138.522 118.211 137.766 117.791C137.022 117.371 136.434 116.777 136.002 116.009C135.582 115.229 135.372 114.329 135.372 113.309C135.372 112.301 135.588 111.413 136.02 110.645C136.464 109.865 137.064 109.271 137.82 108.863C138.576 108.443 139.422 108.233 140.358 108.233C141.294 108.233 142.14 108.443 142.896 108.863C143.652 109.271 144.246 109.859 144.678 110.627C145.122 111.395 145.344 112.289 145.344 113.309C145.344 114.329 145.116 115.229 144.66 116.009C144.216 116.777 143.61 117.371 142.842 117.791C142.074 118.211 141.222 118.421 140.286 118.421ZM140.286 116.981C140.874 116.981 141.426 116.843 141.942 116.567C142.458 116.291 142.872 115.877 143.184 115.325C143.508 114.773 143.67 114.101 143.67 113.309C143.67 112.517 143.514 111.845 143.202 111.293C142.89 110.741 142.482 110.333 141.978 110.069C141.474 109.793 140.928 109.655 140.34 109.655C139.74 109.655 139.188 109.793 138.684 110.069C138.192 110.333 137.796 110.741 137.496 111.293C137.196 111.845 137.046 112.517 137.046 113.309C137.046 114.113 137.19 114.791 137.478 115.343C137.778 115.895 138.174 116.309 138.666 116.585C139.158 116.849 139.698 116.981 140.286 116.981ZM149.496 109.997C149.784 109.433 150.192 108.995 150.72 108.683C151.26 108.371 151.914 108.215 152.682 108.215V109.907H152.25C150.414 109.907 149.496 110.903 149.496 112.895V118.259H147.858V108.395H149.496V109.997ZM163.933 112.949C163.933 113.261 163.915 113.591 163.879 113.939H155.995C156.055 114.911 156.385 115.673 156.985 116.225C157.597 116.765 158.335 117.035 159.199 117.035C159.907 117.035 160.495 116.873 160.963 116.549C161.443 116.213 161.779 115.769 161.971 115.217H163.735C163.471 116.165 162.943 116.939 162.151 117.539C161.359 118.127 160.375 118.421 159.199 118.421C158.263 118.421 157.423 118.211 156.679 117.791C155.947 117.371 155.371 116.777 154.951 116.009C154.531 115.229 154.321 114.329 154.321 113.309C154.321 112.289 154.525 111.395 154.933 110.627C155.341 109.859 155.911 109.271 156.643 108.863C157.387 108.443 158.239 108.233 159.199 108.233C160.135 108.233 160.963 108.437 161.683 108.845C162.403 109.253 162.955 109.817 163.339 110.537C163.735 111.245 163.933 112.049 163.933 112.949ZM162.241 112.607C162.241 111.983 162.103 111.449 161.827 111.005C161.551 110.549 161.173 110.207 160.693 109.979C160.225 109.739 159.703 109.619 159.127 109.619C158.299 109.619 157.591 109.883 157.003 110.411C156.427 110.939 156.097 111.671 156.013 112.607H162.241Z" fill="#2AA7FF"/>
</svg>
